$MeshFormat
4.1 0 8
$EndMeshFormat
$PhysicalNames
8
1 3 "inlet"
1 4 "outlet"
1 5 "bottom"
1 6 "top"
1 7 "left"
1 8 "right"
2 1 "fracture"
2 2 "matrix"
$EndPhysicalNames
$Entities
16 24 9 0
1 0 0 0 0 
2 0.1 0 0 0 
3 49.9 0 0 0 
4 50 0 0 0 
5 0 50 0 0 
6 0.1 50 0 0 
7 49.9 50 0 0 
8 50 50 0 0 
9 0 100 0 0 
10 0.1 100 0 0 
11 49.9 100 0 0 
12 50 100 0 0 
13 0 150 0 0 
14 0.1 150 0 0 
15 49.9 150 0 0 
16 50 150 0 0 
1 0 0 0 0.1 0 0 1 3 2 1 -2 
2 0.1000000000000014 0 0 49.9 0 0 1 5 2 2 -3 
3 49.9 0 0 50 0 0 1 5 2 3 -4 
4 0 50 0 0.1 50 0 0 2 5 -6 
5 0.1000000000000014 50 0 49.9 50 0 0 2 6 -7 
6 49.9 50 0 50 50 0 0 2 7 -8 
7 0 100 0 0.1 100 0 0 2 9 -10 
8 0.1000000000000014 100 0 49.9 100 0 0 2 10 -11 
9 49.9 100 0 50 100 0 0 2 11 -12 
10 0 150 0 0.1 150 0 1 6 2 13 -14 
11 0.1000000000000014 150 0 49.9 150 0 1 6 2 14 -15 
12 49.9 150 0 50 150 0 1 4 2 15 -16 
13 0 0 0 0 50 0 1 7 2 1 -5 
14 0 50 0 0 100 0 1 7 2 5 -9 
15 0 100 0 0 150 0 1 7 2 9 -13 
16 0.1 0 0 0.1 50 0 0 2 2 -6 
17 0.1 50 0 0.1 100 0 0 2 6 -10 
18 0.1 100 0 0.1 150 0 0 2 10 -14 
19 49.9 0 0 49.9 50 0 0 2 3 -7 
20 49.9 50 0 49.9 100 0 0 2 7 -11 
21 49.9 100 0 49.9 150 0 0 2 11 -15 
22 50 0 0 50 50 0 1 8 2 4 -8 
23 50 50 0 50 100 0 1 8 2 8 -12 
24 50 100 0 50 150 0 1 8 2 12 -16 
1 0 0 0 0.1 50 0 1 1 4 1 16 -4 -13 
2 0.1000000000000014 0 0 49.9 50 0 1 2 4 2 19 -5 -16 
3 49.9 0 0 50 50 0 1 2 4 3 22 -6 -19 
4 0 50 0 0.1 100 0 1 1 4 4 17 -7 -14 
5 0.1000000000000014 50 0 49.9 100 0 1 2 4 5 20 -8 -17 
6 49.9 50 0 50 100 0 1 1 4 6 23 -9 -20 
7 0 100 0 0.1 150 0 1 2 4 7 18 -10 -15 
8 0.1000000000000014 100 0 49.9 150 0 1 2 4 8 21 -11 -18 
9 49.9 100 0 50 150 0 1 1 4 9 24 -12 -21 
$EndEntities
$Nodes
45 1209 1 1209
0 1 0 1
1
0 0 0
0 2 0 1
2
0.1 0 0
0 3 0 1
3
49.9 0 0
0 4 0 1
4
50 0 0
0 5 0 1
5
0 50 0
0 6 0 1
6
0.1 50 0
0 7 0 1
7
49.9 50 0
0 8 0 1
8
50 50 0
0 9 0 1
9
0 100 0
0 10 0 1
10
0.1 100 0
0 11 0 1
11
49.9 100 0
0 12 0 1
12
50 100 0
0 13 0 1
13
0 150 0
0 14 0 1
14
0.1 150 0
0 15 0 1
15
49.9 150 0
0 16 0 1
16
50 150 0
1 1 0 0
1 2 0 35
17
18
19
20
21
22
23
24
25
26
27
28
29
30
31
32
33
34
35
36
37
38
39
40
41
42
43
44
45
46
47
48
49
50
51
0.2177595942306955 0 0
0.3713371636063902 0 0
0.5712939635775987 0 0
0.8310725588415639 0 0
1.167621480425505 0 0
1.602041780622574 0 0
2.160164625924769 0 0
2.872898452051423 0 0
3.776089194671704 0 0
4.909523771044141 0 0
6.314616623926604 0 0
8.030321838089872 0 0
10.08701811272338 0 0
12.49865973156656 0 0
15.25439582479418 0 0
18.31190376551296 0 0
21.5953059669258 0 0
24.99999999984315 0 0
28.40469403278432 0 0
31.68809623423083 0 0
34.74560417498714 0 0
37.50134026825118 0 0
39.91298188712974 0 0
41.96967816179535 0 0
43.68538337598797 0 0
45.09047622889232 0 0
46.22391080528217 0 0
47.12710154791595 0 0
47.83983537405296 0 0
48.39795821936263 0 0
48.83237851956491 0 0
49.1689274411525 0 0
49.42870603641895 0 0
49.62866283639185 0 0
49.78224040576862 0 0
1 3 0 0
1 5 0 35
52
53
54
55
56
57
58
59
60
61
62
63
64
65
66
67
68
69
70
71
72
73
74
75
76
77
78
79
80
81
82
83
84
85
86
0.2177595942306955 50 0
0.3713371636063902 50 0
0.5712939635775987 50 0
0.8310725588415639 50 0
1.167621480425505 50 0
1.602041780622574 50 0
2.160164625924769 50 0
2.872898452051423 50 0
3.776089194671704 50 0
4.909523771044141 50 0
6.314616623926604 50 0
8.030321838089872 50 0
10.08701811272338 50 0
12.49865973156656 50 0
15.25439582479418 50 0
18.31190376551296 50 0
21.5953059669258 50 0
24.99999999984315 50 0
28.40469403278432 50 0
31.68809623423083 50 0
34.74560417498714 50 0
37.50134026825118 50 0
39.91298188712974 50 0
41.96967816179535 50 0
43.68538337598797 50 0
45.09047622889232 50 0
46.22391080528217 50 0
47.12710154791595 50 0
47.83983537405296 50 0
48.39795821936263 50 0
48.83237851956491 50 0
49.1689274411525 50 0
49.42870603641895 50 0
49.62866283639185 50 0
49.78224040576862 50 0
1 8 0 35
87
88
89
90
91
92
93
94
95
96
97
98
99
100
101
102
103
104
105
106
107
108
109
110
111
112
113
114
115
116
117
118
119
120
121
0.2177595942306955 100 0
0.3713371636063902 100 0
0.5712939635775987 100 0
0.8310725588415639 100 0
1.167621480425505 100 0
1.602041780622574 100 0
2.160164625924769 100 0
2.872898452051423 100 0
3.776089194671704 100 0
4.909523771044141 100 0
6.314616623926604 100 0
8.030321838089872 100 0
10.08701811272338 100 0
12.49865973156656 100 0
15.25439582479418 100 0
18.31190376551296 100 0
21.5953059669258 100 0
24.99999999984315 100 0
28.40469403278432 100 0
31.68809623423083 100 0
34.74560417498714 100 0
37.50134026825118 100 0
39.91298188712974 100 0
41.96967816179535 100 0
43.68538337598797 100 0
45.09047622889232 100 0
46.22391080528217 100 0
47.12710154791595 100 0
47.83983537405296 100 0
48.39795821936263 100 0
48.83237851956491 100 0
49.1689274411525 100 0
49.42870603641895 100 0
49.62866283639185 100 0
49.78224040576862 100 0
1 10 0 0
1 11 0 35
122
123
124
125
126
127
128
129
130
131
132
133
134
135
136
137
138
139
140
141
142
143
144
145
146
147
148
149
150
151
152
153
154
155
156
0.2177595942306955 150 0
0.3713371636063902 150 0
0.5712939635775987 150 0
0.8310725588415639 150 0
1.167621480425505 150 0
1.602041780622574 150 0
2.160164625924769 150 0
2.872898452051423 150 0
3.776089194671704 150 0
4.909523771044141 150 0
6.314616623926604 150 0
8.030321838089872 150 0
10.08701811272338 150 0
12.49865973156656 150 0
15.25439582479418 150 0
18.31190376551296 150 0
21.5953059669258 150 0
24.99999999984315 150 0
28.40469403278432 150 0
31.68809623423083 150 0
34.74560417498714 150 0
37.50134026825118 150 0
39.91298188712974 150 0
41.96967816179535 150 0
43.68538337598797 150 0
45.09047622889232 150 0
46.22391080528217 150 0
47.12710154791595 150 0
47.83983537405296 150 0
48.39795821936263 150 0
48.83237851956491 150 0
49.1689274411525 150 0
49.42870603641895 150 0
49.62866283639185 150 0
49.78224040576862 150 0
1 12 0 0
1 13 0 9
157
158
159
160
161
162
163
164
165
0 4.99999999998078 0
0 9.999999999957042 0
0 14.99999999993109 0
0 19.99999999992 0
0 24.99999999991182 0
0 29.99999999990365 0
0 34.99999999991795 0
0 39.9999999999453 0
0 44.99999999997265 0
1 14 0 9
166
167
168
169
170
171
172
173
174
0 54.99999999994839 0
0 59.99999999989678 0
0 64.99999999984517 0
0 69.99999999979357 0
0 74.99999999974196 0
0 79.99999999969032 0
0 84.9999999997286 0
0 89.99999999981907 0
0 94.99999999990953 0
1 15 0 9
175
176
177
178
179
180
181
182
183
0 104.9999999999373 0
0 109.9999999998746 0
0 114.9999999998118 0
0 119.9999999997491 0
0 124.9999999996864 0
0 129.9999999996825 0
0 134.9999999997619 0
0 139.9999999998412 0
0 144.9999999999206 0
1 16 0 9
184
185
186
187
188
189
190
191
192
0.1 4.99999999998078 0
0.1 9.999999999957042 0
0.1 14.99999999993109 0
0.1 19.99999999992 0
0.1 24.99999999991182 0
0.1 29.99999999990365 0
0.1 34.99999999991795 0
0.1 39.9999999999453 0
0.1 44.99999999997265 0
1 17 0 9
193
194
195
196
197
198
199
200
201
0.1 54.99999999994839 0
0.1 59.99999999989678 0
0.1 64.99999999984517 0
0.1 69.99999999979357 0
0.1 74.99999999974196 0
0.1 79.99999999969032 0
0.1 84.9999999997286 0
0.1 89.99999999981907 0
0.1 94.99999999990953 0
1 18 0 9
202
203
204
205
206
207
208
209
210
0.1 104.9999999999373 0
0.1 109.9999999998746 0
0.1 114.9999999998118 0
0.1 119.9999999997491 0
0.1 124.9999999996864 0
0.1 129.9999999996825 0
0.1 134.9999999997619 0
0.1 139.9999999998412 0
0.1 144.9999999999206 0
1 19 0 9
211
212
213
214
215
216
217
218
219
49.9 4.99999999998078 0
49.9 9.999999999957042 0
49.9 14.99999999993109 0
49.9 19.99999999992 0
49.9 24.99999999991182 0
49.9 29.99999999990365 0
49.9 34.99999999991795 0
49.9 39.9999999999453 0
49.9 44.99999999997265 0
1 20 0 9
220
221
222
223
224
225
226
227
228
49.9 54.99999999994839 0
49.9 59.99999999989678 0
49.9 64.99999999984517 0
49.9 69.99999999979357 0
49.9 74.99999999974196 0
49.9 79.99999999969032 0
49.9 84.9999999997286 0
49.9 89.99999999981907 0
49.9 94.99999999990953 0
1 21 0 9
229
230
231
232
233
234
235
236
237
49.9 104.9999999999373 0
49.9 109.9999999998746 0
49.9 114.9999999998118 0
49.9 119.9999999997491 0
49.9 124.9999999996864 0
49.9 129.9999999996825 0
49.9 134.9999999997619 0
49.9 139.9999999998412 0
49.9 144.9999999999206 0
1 22 0 9
238
239
240
241
242
243
244
245
246
50 4.99999999998078 0
50 9.999999999957042 0
50 14.99999999993109 0
50 19.99999999992 0
50 24.99999999991182 0
50 29.99999999990365 0
50 34.99999999991795 0
50 39.9999999999453 0
50 44.99999999997265 0
1 23 0 9
247
248
249
250
251
252
253
254
255
50 54.99999999994839 0
50 59.99999999989678 0
50 64.99999999984517 0
50 69.99999999979357 0
50 74.99999999974196 0
50 79.99999999969032 0
50 84.9999999997286 0
50 89.99999999981907 0
50 94.99999999990953 0
1 24 0 9
256
257
258
259
260
261
262
263
264
50 104.9999999999373 0
50 109.9999999998746 0
50 114.9999999998118 0
50 119.9999999997491 0
50 124.9999999996864 0
50 129.9999999996825 0
50 134.9999999997619 0
50 139.9999999998412 0
50 144.9999999999206 0
2 1 0 0
2 2 0 315
265
266
267
268
269
270
271
272
273
274
275
276
277
278
279
280
281
282
283
284
285
286
287
288
289
290
291
292
293
294
295
296
297
298
299
300
301
302
303
304
305
306
307
308
309
310
311
312
313
314
315
316
317
318
319
320
321
322
323
324
325
326
327
328
329
330
331
332
333
334
335
336
337
338
339
340
341
342
343
344
345
346
347
348
349
350
351
352
353
354
355
356
357
358
359
360
361
362
363
364
365
366
367
368
369
370
371
372
373
374
375
376
377
378
379
380
381
382
383
384
385
386
387
388
389
390
391
392
393
394
395
396
397
398
399
400
401
402
403
404
405
406
407
408
409
410
411
412
413
414
415
416
417
418
419
420
421
422
423
424
425
426
427
428
429
430
431
432
433
434
435
436
437
438
439
440
441
442
443
444
445
446
447
448
449
450
451
452
453
454
455
456
457
458
459
460
461
462
463
464
465
466
467
468
469
470
471
472
473
474
475
476
477
478
479
480
481
482
483
484
485
486
487
488
489
490
491
492
493
494
495
496
497
498
499
500
501
502
503
504
505
506
507
508
509
510
511
512
513
514
515
516
517
518
519
520
521
522
523
524
525
526
527
528
529
530
531
532
533
534
535
536
537
538
539
540
541
542
543
544
545
546
547
548
549
550
551
552
553
554
555
556
557
558
559
560
561
562
563
564
565
566
567
568
569
570
571
572
573
574
575
576
577
578
579
0.2177595942306955 4.999999999980781 0
0.2177595942306955 9.999999999957042 0
0.2177595942306954 14.99999999993109 0
0.2177595942306954 19.99999999992 0
0.2177595942306955 24.99999999991183 0
0.2177595942306955 29.99999999990365 0
0.2177595942306955 34.99999999991795 0
0.2177595942306954 39.9999999999453 0
0.2177595942306955 44.99999999997264 0
0.3713371636063902 4.99999999998078 0
0.3713371636063904 9.999999999957042 0
0.3713371636063902 14.99999999993109 0
0.3713371636063902 19.99999999992 0
0.3713371636063901 24.99999999991182 0
0.3713371636063904 29.99999999990365 0
0.3713371636063902 34.99999999991795 0
0.3713371636063902 39.9999999999453 0
0.3713371636063902 44.99999999997265 0
0.5712939635775985 4.99999999998078 0
0.5712939635775985 9.999999999957044 0
0.5712939635775985 14.99999999993109 0
0.5712939635775987 19.99999999992 0
0.5712939635775987 24.99999999991182 0
0.5712939635775987 29.99999999990365 0
0.5712939635775985 34.99999999991795 0
0.5712939635775987 39.9999999999453 0
0.5712939635775987 44.99999999997264 0
0.8310725588415638 4.99999999998078 0
0.8310725588415638 9.999999999957042 0
0.8310725588415639 14.99999999993109 0
0.8310725588415638 19.99999999992 0
0.8310725588415638 24.99999999991182 0
0.8310725588415638 29.99999999990364 0
0.8310725588415638 34.99999999991795 0
0.8310725588415639 39.9999999999453 0
0.8310725588415638 44.99999999997265 0
1.167621480425505 4.99999999998078 0
1.167621480425505 9.999999999957042 0
1.167621480425505 14.99999999993109 0
1.167621480425505 19.99999999992 0
1.167621480425504 24.99999999991183 0
1.167621480425505 29.99999999990365 0
1.167621480425505 34.99999999991795 0
1.167621480425504 39.9999999999453 0
1.167621480425505 44.99999999997265 0
1.602041780622573 4.99999999998078 0
1.602041780622574 9.999999999957042 0
1.602041780622574 14.99999999993109 0
1.602041780622574 19.99999999992 0
1.602041780622574 24.99999999991182 0
1.602041780622574 29.99999999990364 0
1.602041780622574 34.99999999991796 0
1.602041780622574 39.9999999999453 0
1.602041780622574 44.99999999997265 0
2.16016462592477 4.99999999998078 0
2.160164625924769 9.999999999957042 0
2.160164625924769 14.99999999993109 0
2.16016462592477 19.99999999992 0
2.160164625924769 24.99999999991183 0
2.160164625924769 29.99999999990365 0
2.16016462592477 34.99999999991795 0
2.160164625924769 39.9999999999453 0
2.160164625924769 44.99999999997265 0
2.872898452051423 4.99999999998078 0
2.872898452051423 9.999999999957042 0
2.872898452051422 14.99999999993109 0
2.872898452051423 19.99999999992 0
2.872898452051422 24.99999999991182 0
2.872898452051422 29.99999999990364 0
2.872898452051423 34.99999999991796 0
2.872898452051422 39.9999999999453 0
2.872898452051423 44.99999999997265 0
3.776089194671704 4.99999999998078 0
3.776089194671704 9.999999999957042 0
3.776089194671704 14.9999999999311 0
3.776089194671705 19.99999999992 0
3.776089194671704 24.99999999991183 0
3.776089194671705 29.99999999990365 0
3.776089194671704 34.99999999991795 0
3.776089194671705 39.9999999999453 0
3.776089194671704 44.99999999997267 0
4.90952377104414 4.99999999998078 0
4.909523771044141 9.999999999957048 0
4.90952377104414 14.99999999993109 0
4.909523771044141 19.99999999992 0
4.909523771044141 24.99999999991182 0
4.90952377104414 29.99999999990365 0
4.90952377104414 34.99999999991795 0
4.90952377104414 39.9999999999453 0
4.909523771044141 44.99999999997265 0
6.314616623926604 4.999999999980781 0
6.314616623926606 9.999999999957042 0
6.314616623926604 14.99999999993109 0
6.314616623926604 19.99999999992 0
6.314616623926603 24.99999999991182 0
6.314616623926604 29.99999999990364 0
6.314616623926604 34.99999999991795 0
6.314616623926605 39.9999999999453 0
6.314616623926603 44.99999999997265 0
8.030321838089872 4.99999999998078 0
8.030321838089874 9.999999999957044 0
8.030321838089874 14.99999999993109 0
8.03032183808987 19.99999999992 0
8.03032183808987 24.99999999991182 0
8.030321838089874 29.99999999990365 0
8.03032183808987 34.99999999991795 0
8.03032183808987 39.9999999999453 0
8.030321838089876 44.99999999997267 0
10.08701811272338 4.99999999998078 0
10.08701811272338 9.999999999957042 0
10.08701811272338 14.9999999999311 0
10.08701811272338 19.99999999992 0
10.08701811272338 24.99999999991182 0
10.08701811272338 29.99999999990365 0
10.08701811272338 34.99999999991796 0
10.08701811272338 39.9999999999453 0
10.08701811272338 44.99999999997267 0
12.49865973156656 4.99999999998078 0
12.49865973156656 9.999999999957044 0
12.49865973156656 14.99999999993109 0
12.49865973156656 19.99999999992 0
12.49865973156656 24.99999999991182 0
12.49865973156656 29.99999999990364 0
12.49865973156656 34.99999999991795 0
12.49865973156656 39.9999999999453 0
12.49865973156656 44.99999999997265 0
15.25439582479417 4.99999999998078 0
15.25439582479418 9.999999999957042 0
15.25439582479418 14.9999999999311 0
15.25439582479418 19.99999999992 0
15.25439582479418 24.99999999991182 0
15.25439582479418 29.99999999990364 0
15.25439582479418 34.99999999991795 0
15.25439582479418 39.9999999999453 0
15.25439582479418 44.99999999997265 0
18.31190376551296 4.99999999998078 0
18.31190376551296 9.999999999957042 0
18.31190376551296 14.9999999999311 0
18.31190376551296 19.99999999992 0
18.31190376551296 24.99999999991182 0
18.31190376551296 29.99999999990365 0
18.31190376551296 34.99999999991796 0
18.31190376551295 39.9999999999453 0
18.31190376551296 44.99999999997266 0
21.5953059669258 4.99999999998078 0
21.5953059669258 9.999999999957042 0
21.5953059669258 14.99999999993109 0
21.5953059669258 19.99999999992 0
21.5953059669258 24.99999999991182 0
21.5953059669258 29.99999999990364 0
21.59530596692579 34.99999999991795 0
21.5953059669258 39.9999999999453 0
21.5953059669258 44.99999999997267 0
24.99999999984315 4.99999999998078 0
24.99999999984316 9.999999999957042 0
24.99999999984316 14.99999999993109 0
24.99999999984315 19.99999999992 0
24.99999999984315 24.99999999991182 0
24.99999999984315 29.99999999990364 0
24.99999999984315 34.99999999991796 0
24.99999999984315 39.9999999999453 0
24.99999999984315 44.99999999997265 0
28.40469403278433 4.99999999998078 0
28.40469403278433 9.999999999957044 0
28.40469403278432 14.99999999993109 0
28.40469403278432 19.99999999992 0
28.40469403278432 24.99999999991182 0
28.40469403278432 29.99999999990364 0
28.40469403278433 34.99999999991795 0
28.40469403278432 39.9999999999453 0
28.40469403278432 44.99999999997265 0
31.68809623423083 4.99999999998078 0
31.68809623423083 9.999999999957042 0
31.68809623423083 14.99999999993109 0
31.68809623423083 19.99999999992 0
31.68809623423083 24.99999999991182 0
31.68809623423083 29.99999999990364 0
31.68809623423083 34.99999999991795 0
31.68809623423083 39.9999999999453 0
31.68809623423083 44.99999999997266 0
34.74560417498715 4.99999999998078 0
34.74560417498714 9.999999999957044 0
34.74560417498714 14.99999999993109 0
34.74560417498714 19.99999999992 0
34.74560417498714 24.99999999991182 0
34.74560417498714 29.99999999990365 0
34.74560417498714 34.99999999991795 0
34.74560417498714 39.9999999999453 0
34.74560417498713 44.99999999997265 0
37.50134026825118 4.99999999998078 0
37.50134026825118 9.999999999957042 0
37.50134026825117 14.99999999993109 0
37.50134026825118 19.99999999992 0
37.50134026825118 24.99999999991182 0
37.50134026825118 29.99999999990364 0
37.50134026825118 34.99999999991796 0
37.50134026825118 39.9999999999453 0
37.50134026825118 44.99999999997263 0
39.91298188712975 4.99999999998078 0
39.91298188712973 9.999999999957042 0
39.91298188712975 14.99999999993109 0
39.91298188712974 19.99999999992 0
39.91298188712975 24.99999999991182 0
39.91298188712973 29.99999999990365 0
39.91298188712974 34.99999999991795 0
39.91298188712975 39.9999999999453 0
39.91298188712975 44.99999999997266 0
41.96967816179536 4.99999999998078 0
41.96967816179534 9.999999999957042 0
41.96967816179536 14.99999999993109 0
41.96967816179536 19.99999999992 0
41.96967816179535 24.99999999991183 0
41.96967816179535 29.99999999990364 0
41.96967816179535 34.99999999991795 0
41.96967816179535 39.9999999999453 0
41.96967816179536 44.99999999997265 0
43.685383375988 4.999999999980781 0
43.685383375988 9.999999999957042 0
43.68538337598798 14.99999999993109 0
43.68538337598797 19.99999999992 0
43.68538337598798 24.99999999991182 0
43.68538337598797 29.99999999990364 0
43.68538337598797 34.99999999991795 0
43.68538337598798 39.99999999994531 0
43.68538337598797 44.99999999997263 0
45.09047622889233 4.99999999998078 0
45.09047622889232 9.999999999957042 0
45.09047622889232 14.99999999993109 0
45.09047622889233 19.99999999992 0
45.09047622889231 24.99999999991182 0
45.09047622889232 29.99999999990365 0
45.09047622889231 34.99999999991795 0
45.09047622889232 39.9999999999453 0
45.09047622889232 44.99999999997265 0
46.22391080528218 4.99999999998078 0
46.22391080528216 9.999999999957044 0
46.22391080528216 14.99999999993109 0
46.22391080528215 19.99999999992 0
46.22391080528217 24.99999999991183 0
46.22391080528217 29.99999999990364 0
46.22391080528216 34.99999999991795 0
46.22391080528216 39.9999999999453 0
46.22391080528217 44.99999999997265 0
47.12710154791594 4.99999999998078 0
47.12710154791594 9.999999999957042 0
47.12710154791595 14.99999999993109 0
47.12710154791594 19.99999999992 0
47.12710154791596 24.99999999991182 0
47.12710154791595 29.99999999990365 0
47.12710154791595 34.99999999991795 0
47.12710154791595 39.9999999999453 0
47.12710154791595 44.99999999997265 0
47.83983537405295 4.99999999998078 0
47.83983537405295 9.999999999957044 0
47.83983537405296 14.99999999993109 0
47.83983537405296 19.99999999992 0
47.83983537405296 24.99999999991182 0
47.83983537405296 29.99999999990365 0
47.83983537405297 34.99999999991795 0
47.83983537405296 39.99999999994531 0
47.83983537405296 44.99999999997265 0
48.39795821936263 4.99999999998078 0
48.39795821936263 9.999999999957044 0
48.39795821936263 14.99999999993109 0
48.39795821936262 19.99999999992 0
48.39795821936264 24.99999999991183 0
48.39795821936263 29.99999999990364 0
48.39795821936262 34.99999999991795 0
48.39795821936264 39.9999999999453 0
48.39795821936262 44.99999999997265 0
48.83237851956491 4.999999999980781 0
48.83237851956491 9.999999999957042 0
48.83237851956492 14.99999999993109 0
48.83237851956491 19.99999999992 0
48.83237851956488 24.99999999991182 0
48.83237851956491 29.99999999990365 0
48.83237851956491 34.99999999991796 0
48.8323785195649 39.9999999999453 0
48.83237851956491 44.99999999997265 0
49.16892744115249 4.99999999998078 0
49.1689274411525 9.999999999957042 0
49.1689274411525 14.9999999999311 0
49.16892744115248 19.99999999992 0
49.1689274411525 24.99999999991182 0
49.1689274411525 29.99999999990364 0
49.1689274411525 34.99999999991795 0
49.16892744115248 39.9999999999453 0
49.16892744115249 44.99999999997265 0
49.42870603641896 4.999999999980781 0
49.42870603641895 9.999999999957044 0
49.42870603641895 14.99999999993109 0
49.42870603641894 19.99999999992 0
49.42870603641893 24.99999999991182 0
49.42870603641895 29.99999999990364 0
49.42870603641897 34.99999999991796 0
49.42870603641895 39.99999999994531 0
49.42870603641896 44.99999999997265 0
49.62866283639185 4.99999999998078 0
49.62866283639185 9.999999999957042 0
49.62866283639185 14.99999999993109 0
49.62866283639185 19.99999999992 0
49.62866283639185 24.99999999991183 0
49.62866283639184 29.99999999990364 0
49.62866283639185 34.99999999991795 0
49.62866283639185 39.9999999999453 0
49.62866283639185 44.99999999997265 0
49.7822404057686 4.99999999998078 0
49.78224040576862 9.999999999957044 0
49.78224040576861 14.99999999993109 0
49.78224040576863 19.99999999992 0
49.78224040576862 24.99999999991182 0
49.78224040576862 29.99999999990365 0
49.78224040576862 34.99999999991795 0
49.78224040576861 39.9999999999453 0
49.78224040576862 44.99999999997265 0
2 3 0 0
2 4 0 0
2 5 0 315
580
581
582
583
584
585
586
587
588
589
590
591
592
593
594
595
596
597
598
599
600
601
602
603
604
605
606
607
608
609
610
611
612
613
614
615
616
617
618
619
620
621
622
623
624
625
626
627
628
629
630
631
632
633
634
635
636
637
638
639
640
641
642
643
644
645
646
647
648
649
650
651
652
653
654
655
656
657
658
659
660
661
662
663
664
665
666
667
668
669
670
671
672
673
674
675
676
677
678
679
680
681
682
683
684
685
686
687
688
689
690
691
692
693
694
695
696
697
698
699
700
701
702
703
704
705
706
707
708
709
710
711
712
713
714
715
716
717
718
719
720
721
722
723
724
725
726
727
728
729
730
731
732
733
734
735
736
737
738
739
740
741
742
743
744
745
746
747
748
749
750
751
752
753
754
755
756
757
758
759
760
761
762
763
764
765
766
767
768
769
770
771
772
773
774
775
776
777
778
779
780
781
782
783
784
785
786
787
788
789
790
791
792
793
794
795
796
797
798
799
800
801
802
803
804
805
806
807
808
809
810
811
812
813
814
815
816
817
818
819
820
821
822
823
824
825
826
827
828
829
830
831
832
833
834
835
836
837
838
839
840
841
842
843
844
845
846
847
848
849
850
851
852
853
854
855
856
857
858
859
860
861
862
863
864
865
866
867
868
869
870
871
872
873
874
875
876
877
878
879
880
881
882
883
884
885
886
887
888
889
890
891
892
893
894
0.2177595942306955 54.99999999994839 0
0.2177595942306954 59.99999999989679 0
0.2177595942306955 64.99999999984516 0
0.2177595942306956 69.99999999979359 0
0.2177595942306954 74.99999999974197 0
0.2177595942306955 79.99999999969032 0
0.2177595942306955 84.9999999997286 0
0.2177595942306955 89.99999999981907 0
0.2177595942306955 94.99999999990955 0
0.3713371636063902 54.99999999994839 0
0.3713371636063902 59.99999999989679 0
0.3713371636063902 64.99999999984517 0
0.3713371636063902 69.99999999979357 0
0.3713371636063902 74.99999999974196 0
0.3713371636063902 79.99999999969032 0
0.3713371636063902 84.9999999997286 0
0.3713371636063901 89.99999999981905 0
0.3713371636063902 94.99999999990952 0
0.5712939635775987 54.99999999994839 0
0.5712939635775985 59.99999999989678 0
0.5712939635775985 64.99999999984517 0
0.5712939635775985 69.99999999979357 0
0.5712939635775987 74.99999999974196 0
0.5712939635775985 79.99999999969032 0
0.5712939635775985 84.9999999997286 0
0.5712939635775985 89.99999999981907 0
0.5712939635775987 94.99999999990953 0
0.8310725588415638 54.99999999994839 0
0.8310725588415637 59.99999999989677 0
0.8310725588415639 64.99999999984519 0
0.8310725588415639 69.99999999979357 0
0.8310725588415638 74.99999999974196 0
0.8310725588415639 79.99999999969032 0
0.8310725588415638 84.99999999972859 0
0.8310725588415638 89.99999999981907 0
0.8310725588415638 94.99999999990953 0
1.167621480425504 54.99999999994839 0
1.167621480425504 59.99999999989678 0
1.167621480425505 64.99999999984517 0
1.167621480425505 69.99999999979357 0
1.167621480425504 74.99999999974196 0
1.167621480425505 79.99999999969032 0
1.167621480425505 84.9999999997286 0
1.167621480425505 89.99999999981907 0
1.167621480425505 94.99999999990955 0
1.602041780622574 54.99999999994837 0
1.602041780622574 59.99999999989679 0
1.602041780622574 64.99999999984517 0
1.602041780622574 69.99999999979357 0
1.602041780622574 74.99999999974196 0
1.602041780622574 79.99999999969032 0
1.602041780622574 84.9999999997286 0
1.602041780622574 89.99999999981907 0
1.602041780622574 94.99999999990953 0
2.160164625924769 54.99999999994839 0
2.16016462592477 59.99999999989679 0
2.160164625924769 64.99999999984517 0
2.16016462592477 69.99999999979357 0
2.16016462592477 74.99999999974196 0
2.16016462592477 79.99999999969032 0
2.16016462592477 84.9999999997286 0
2.160164625924769 89.99999999981907 0
2.160164625924769 94.99999999990953 0
2.872898452051423 54.99999999994839 0
2.872898452051424 59.99999999989679 0
2.872898452051422 64.99999999984516 0
2.872898452051423 69.99999999979357 0
2.872898452051421 74.99999999974196 0
2.872898452051424 79.99999999969032 0
2.872898452051421 84.9999999997286 0
2.872898452051422 89.99999999981907 0
2.872898452051422 94.99999999990953 0
3.776089194671704 54.99999999994839 0
3.776089194671703 59.99999999989679 0
3.776089194671703 64.99999999984516 0
3.776089194671705 69.99999999979357 0
3.776089194671704 74.99999999974196 0
3.776089194671704 79.99999999969032 0
3.776089194671703 84.9999999997286 0
3.776089194671704 89.99999999981907 0
3.776089194671703 94.99999999990953 0
4.909523771044139 54.99999999994838 0
4.90952377104414 59.99999999989677 0
4.909523771044142 64.99999999984517 0
4.90952377104414 69.99999999979357 0
4.90952377104414 74.99999999974196 0
4.90952377104414 79.99999999969032 0
4.90952377104414 84.9999999997286 0
4.909523771044141 89.99999999981905 0
4.90952377104414 94.99999999990953 0
6.314616623926605 54.99999999994839 0
6.314616623926605 59.99999999989679 0
6.314616623926604 64.99999999984517 0
6.314616623926604 69.99999999979357 0
6.314616623926604 74.99999999974196 0
6.314616623926604 79.99999999969032 0
6.314616623926604 84.9999999997286 0
6.314616623926604 89.99999999981907 0
6.314616623926605 94.99999999990952 0
8.030321838089874 54.99999999994839 0
8.03032183808987 59.99999999989677 0
8.03032183808987 64.99999999984516 0
8.030321838089874 69.99999999979357 0
8.03032183808987 74.99999999974196 0
8.030321838089874 79.99999999969032 0
8.03032183808987 84.9999999997286 0
8.03032183808987 89.99999999981907 0
8.030321838089872 94.99999999990953 0
10.08701811272338 54.99999999994839 0
10.08701811272338 59.99999999989677 0
10.08701811272338 64.99999999984516 0
10.08701811272338 69.99999999979357 0
10.08701811272338 74.99999999974196 0
10.08701811272338 79.99999999969032 0
10.08701811272338 84.9999999997286 0
10.08701811272337 89.99999999981907 0
10.08701811272338 94.99999999990953 0
12.49865973156656 54.99999999994838 0
12.49865973156656 59.99999999989678 0
12.49865973156656 64.99999999984517 0
12.49865973156656 69.99999999979357 0
12.49865973156656 74.99999999974197 0
12.49865973156656 79.99999999969032 0
12.49865973156657 84.9999999997286 0
12.49865973156655 89.99999999981907 0
12.49865973156656 94.99999999990953 0
15.25439582479418 54.99999999994838 0
15.25439582479418 59.99999999989678 0
15.25439582479418 64.99999999984517 0
15.25439582479418 69.99999999979357 0
15.25439582479417 74.99999999974196 0
15.25439582479418 79.99999999969032 0
15.25439582479417 84.9999999997286 0
15.25439582479418 89.99999999981905 0
15.25439582479418 94.99999999990953 0
18.31190376551296 54.99999999994838 0
18.31190376551296 59.99999999989678 0
18.31190376551296 64.99999999984517 0
18.31190376551296 69.99999999979357 0
18.31190376551295 74.99999999974196 0
18.31190376551296 79.99999999969032 0
18.31190376551295 84.9999999997286 0
18.31190376551295 89.99999999981907 0
18.31190376551296 94.99999999990953 0
21.59530596692579 54.99999999994839 0
21.5953059669258 59.99999999989679 0
21.59530596692579 64.99999999984516 0
21.5953059669258 69.99999999979356 0
21.5953059669258 74.99999999974196 0
21.5953059669258 79.99999999969032 0
21.5953059669258 84.99999999972859 0
21.5953059669258 89.99999999981907 0
21.5953059669258 94.99999999990953 0
24.99999999984315 54.99999999994839 0
24.99999999984316 59.99999999989678 0
24.99999999984316 64.99999999984517 0
24.99999999984316 69.99999999979357 0
24.99999999984315 74.99999999974196 0
24.99999999984315 79.99999999969032 0
24.99999999984315 84.9999999997286 0
24.99999999984315 89.99999999981907 0
24.99999999984315 94.99999999990953 0
28.40469403278433 54.99999999994839 0
28.40469403278433 59.99999999989679 0
28.40469403278432 64.99999999984517 0
28.40469403278432 69.99999999979357 0
28.40469403278432 74.99999999974196 0
28.40469403278432 79.99999999969032 0
28.40469403278432 84.9999999997286 0
28.40469403278432 89.99999999981907 0
28.40469403278432 94.99999999990953 0
31.68809623423083 54.99999999994839 0
31.68809623423084 59.99999999989678 0
31.68809623423084 64.99999999984517 0
31.68809623423084 69.99999999979357 0
31.68809623423083 74.99999999974196 0
31.68809623423083 79.99999999969032 0
31.68809623423083 84.9999999997286 0
31.68809623423083 89.99999999981907 0
31.68809623423083 94.99999999990953 0
34.74560417498714 54.99999999994839 0
34.74560417498714 59.99999999989679 0
34.74560417498714 64.99999999984517 0
34.74560417498714 69.99999999979357 0
34.74560417498714 74.99999999974196 0
34.74560417498714 79.99999999969032 0
34.74560417498714 84.9999999997286 0
34.74560417498714 89.99999999981907 0
34.74560417498714 94.99999999990953 0
37.50134026825119 54.99999999994839 0
37.50134026825117 59.99999999989678 0
37.50134026825117 64.99999999984517 0
37.50134026825118 69.99999999979357 0
37.50134026825118 74.99999999974196 0
37.50134026825118 79.99999999969032 0
37.50134026825118 84.9999999997286 0
37.50134026825118 89.99999999981907 0
37.50134026825118 94.99999999990953 0
39.91298188712975 54.99999999994839 0
39.91298188712975 59.99999999989678 0
39.91298188712975 64.99999999984516 0
39.91298188712974 69.99999999979357 0
39.91298188712975 74.99999999974195 0
39.91298188712975 79.99999999969032 0
39.91298188712975 84.9999999997286 0
39.91298188712974 89.99999999981907 0
39.91298188712975 94.99999999990952 0
41.96967816179535 54.99999999994839 0
41.96967816179535 59.99999999989677 0
41.96967816179535 64.99999999984517 0
41.96967816179536 69.99999999979357 0
41.96967816179534 74.99999999974196 0
41.96967816179536 79.99999999969032 0
41.96967816179536 84.9999999997286 0
41.96967816179534 89.99999999981907 0
41.96967816179535 94.99999999990953 0
43.68538337598797 54.99999999994839 0
43.68538337598797 59.99999999989678 0
43.68538337598797 64.99999999984517 0
43.68538337598797 69.99999999979357 0
43.68538337598798 74.99999999974196 0
43.68538337598797 79.99999999969032 0
43.68538337598797 84.9999999997286 0
43.68538337598798 89.99999999981907 0
43.68538337598798 94.99999999990953 0
45.09047622889231 54.99999999994839 0
45.09047622889231 59.99999999989678 0
45.09047622889231 64.99999999984517 0
45.09047622889232 69.99999999979357 0
45.09047622889233 74.99999999974196 0
45.09047622889232 79.9999999996903 0
45.09047622889232 84.9999999997286 0
45.09047622889232 89.99999999981907 0
45.09047622889232 94.99999999990952 0
46.22391080528217 54.99999999994839 0
46.22391080528217 59.99999999989678 0
46.22391080528218 64.99999999984517 0
46.22391080528217 69.99999999979357 0
46.22391080528216 74.99999999974196 0
46.22391080528218 79.99999999969032 0
46.22391080528216 84.9999999997286 0
46.22391080528218 89.99999999981905 0
46.22391080528216 94.99999999990953 0
47.12710154791597 54.99999999994839 0
47.12710154791595 59.99999999989678 0
47.12710154791594 64.99999999984517 0
47.12710154791595 69.99999999979356 0
47.12710154791594 74.99999999974196 0
47.12710154791593 79.99999999969032 0
47.12710154791595 84.9999999997286 0
47.12710154791595 89.99999999981907 0
47.12710154791596 94.99999999990953 0
47.83983537405297 54.99999999994839 0
47.83983537405297 59.99999999989678 0
47.83983537405297 64.99999999984516 0
47.83983537405296 69.99999999979357 0
47.83983537405296 74.99999999974196 0
47.83983537405296 79.99999999969032 0
47.83983537405294 84.9999999997286 0
47.83983537405296 89.99999999981907 0
47.83983537405295 94.99999999990953 0
48.39795821936262 54.99999999994838 0
48.39795821936263 59.99999999989677 0
48.39795821936261 64.99999999984517 0
48.39795821936263 69.99999999979357 0
48.39795821936261 74.99999999974195 0
48.39795821936263 79.99999999969032 0
48.39795821936261 84.99999999972859 0
48.39795821936263 89.99999999981907 0
48.39795821936262 94.99999999990952 0
48.8323785195649 54.99999999994839 0
48.83237851956492 59.99999999989678 0
48.8323785195649 64.99999999984516 0
48.83237851956491 69.99999999979357 0
48.83237851956491 74.99999999974197 0
48.83237851956491 79.99999999969032 0
48.8323785195649 84.99999999972859 0
48.83237851956491 89.99999999981907 0
48.83237851956491 94.99999999990952 0
49.1689274411525 54.99999999994839 0
49.1689274411525 59.99999999989679 0
49.16892744115249 64.99999999984517 0
49.1689274411525 69.99999999979357 0
49.16892744115248 74.99999999974196 0
49.16892744115248 79.9999999996903 0
49.1689274411525 84.9999999997286 0
49.1689274411525 89.99999999981907 0
49.1689274411525 94.99999999990953 0
49.42870603641897 54.99999999994838 0
49.42870603641895 59.99999999989678 0
49.42870603641896 64.99999999984517 0
49.42870603641894 69.99999999979357 0
49.42870603641895 74.99999999974196 0
49.42870603641895 79.99999999969033 0
49.42870603641897 84.9999999997286 0
49.42870603641896 89.99999999981907 0
49.42870603641895 94.99999999990953 0
49.62866283639185 54.99999999994839 0
49.62866283639185 59.99999999989678 0
49.62866283639185 64.99999999984517 0
49.62866283639185 69.99999999979357 0
49.62866283639185 74.99999999974196 0
49.62866283639185 79.99999999969032 0
49.62866283639185 84.9999999997286 0
49.62866283639185 89.99999999981907 0
49.62866283639185 94.99999999990953 0
49.78224040576861 54.99999999994838 0
49.78224040576862 59.99999999989678 0
49.78224040576863 64.99999999984517 0
49.78224040576861 69.99999999979359 0
49.78224040576862 74.99999999974197 0
49.78224040576862 79.99999999969032 0
49.78224040576862 84.9999999997286 0
49.78224040576862 89.99999999981907 0
49.78224040576861 94.99999999990953 0
2 6 0 0
2 7 0 0
2 8 0 315
895
896
897
898
899
900
901
902
903
904
905
906
907
908
909
910
911
912
913
914
915
916
917
918
919
920
921
922
923
924
925
926
927
928
929
930
931
932
933
934
935
936
937
938
939
940
941
942
943
944
945
946
947
948
949
950
951
952
953
954
955
956
957
958
959
960
961
962
963
964
965
966
967
968
969
970
971
972
973
974
975
976
977
978
979
980
981
982
983
984
985
986
987
988
989
990
991
992
993
994
995
996
997
998
999
1000
1001
1002
1003
1004
1005
1006
1007
1008
1009
1010
1011
1012
1013
1014
1015
1016
1017
1018
1019
1020
1021
1022
1023
1024
1025
1026
1027
1028
1029
1030
1031
1032
1033
1034
1035
1036
1037
1038
1039
1040
1041
1042
1043
1044
1045
1046
1047
1048
1049
1050
1051
1052
1053
1054
1055
1056
1057
1058
1059
1060
1061
1062
1063
1064
1065
1066
1067
1068
1069
1070
1071
1072
1073
1074
1075
1076
1077
1078
1079
1080
1081
1082
1083
1084
1085
1086
1087
1088
1089
1090
1091
1092
1093
1094
1095
1096
1097
1098
1099
1100
1101
1102
1103
1104
1105
1106
1107
1108
1109
1110
1111
1112
1113
1114
1115
1116
1117
1118
1119
1120
1121
1122
1123
1124
1125
1126
1127
1128
1129
1130
1131
1132
1133
1134
1135
1136
1137
1138
1139
1140
1141
1142
1143
1144
1145
1146
1147
1148
1149
1150
1151
1152
1153
1154
1155
1156
1157
1158
1159
1160
1161
1162
1163
1164
1165
1166
1167
1168
1169
1170
1171
1172
1173
1174
1175
1176
1177
1178
1179
1180
1181
1182
1183
1184
1185
1186
1187
1188
1189
1190
1191
1192
1193
1194
1195
1196
1197
1198
1199
1200
1201
1202
1203
1204
1205
1206
1207
1208
1209
0.2177595942306955 104.9999999999373 0
0.2177595942306955 109.9999999998746 0
0.2177595942306955 114.9999999998119 0
0.2177595942306955 119.9999999997491 0
0.2177595942306955 124.9999999996864 0
0.2177595942306955 129.9999999996825 0
0.2177595942306955 134.9999999997619 0
0.2177595942306955 139.9999999998413 0
0.2177595942306955 144.9999999999206 0
0.3713371636063901 104.9999999999373 0
0.3713371636063902 109.9999999998746 0
0.3713371636063902 114.9999999998118 0
0.3713371636063902 119.9999999997491 0
0.3713371636063902 124.9999999996864 0
0.3713371636063902 129.9999999996825 0
0.3713371636063902 134.9999999997619 0
0.3713371636063902 139.9999999998412 0
0.3713371636063903 144.9999999999206 0
0.5712939635775984 104.9999999999373 0
0.5712939635775984 109.9999999998746 0
0.5712939635775985 114.9999999998118 0
0.5712939635775984 119.9999999997491 0
0.5712939635775985 124.9999999996864 0
0.5712939635775987 129.9999999996825 0
0.5712939635775985 134.9999999997619 0
0.5712939635775985 139.9999999998412 0
0.5712939635775985 144.9999999999206 0
0.8310725588415637 104.9999999999373 0
0.8310725588415638 109.9999999998746 0
0.8310725588415639 114.9999999998118 0
0.8310725588415638 119.9999999997491 0
0.8310725588415639 124.9999999996864 0
0.8310725588415638 129.9999999996825 0
0.8310725588415638 134.9999999997619 0
0.8310725588415639 139.9999999998412 0
0.8310725588415637 144.9999999999206 0
1.167621480425505 104.9999999999372 0
1.167621480425504 109.9999999998746 0
1.167621480425504 114.9999999998118 0
1.167621480425504 119.9999999997491 0
1.167621480425505 124.9999999996864 0
1.167621480425505 129.9999999996825 0
1.167621480425505 134.9999999997619 0
1.167621480425505 139.9999999998412 0
1.167621480425505 144.9999999999206 0
1.602041780622573 104.9999999999372 0
1.602041780622574 109.9999999998746 0
1.602041780622574 114.9999999998118 0
1.602041780622574 119.9999999997491 0
1.602041780622574 124.9999999996864 0
1.602041780622574 129.9999999996825 0
1.602041780622574 134.9999999997619 0
1.602041780622574 139.9999999998412 0
1.602041780622574 144.9999999999206 0
2.160164625924769 104.9999999999373 0
2.16016462592477 109.9999999998746 0
2.16016462592477 114.9999999998119 0
2.16016462592477 119.9999999997491 0
2.160164625924769 124.9999999996864 0
2.16016462592477 129.9999999996825 0
2.160164625924769 134.9999999997619 0
2.16016462592477 139.9999999998412 0
2.160164625924769 144.9999999999206 0
2.872898452051423 104.9999999999373 0
2.872898452051423 109.9999999998746 0
2.872898452051422 114.9999999998118 0
2.872898452051422 119.9999999997491 0
2.872898452051423 124.9999999996863 0
2.872898452051422 129.9999999996825 0
2.872898452051423 134.9999999997619 0
2.872898452051423 139.9999999998412 0
2.872898452051422 144.9999999999206 0
3.776089194671703 104.9999999999373 0
3.776089194671704 109.9999999998746 0
3.776089194671703 114.9999999998118 0
3.776089194671703 119.9999999997491 0
3.776089194671703 124.9999999996864 0
3.776089194671705 129.9999999996825 0
3.776089194671703 134.9999999997619 0
3.776089194671703 139.9999999998412 0
3.776089194671704 144.9999999999207 0
4.909523771044141 104.9999999999373 0
4.90952377104414 109.9999999998746 0
4.90952377104414 114.9999999998118 0
4.90952377104414 119.9999999997491 0
4.909523771044141 124.9999999996864 0
4.90952377104414 129.9999999996825 0
4.90952377104414 134.9999999997619 0
4.90952377104414 139.9999999998412 0
4.90952377104414 144.9999999999206 0
6.314616623926605 104.9999999999373 0
6.314616623926604 109.9999999998746 0
6.314616623926605 114.9999999998118 0
6.314616623926603 119.9999999997491 0
6.314616623926604 124.9999999996863 0
6.314616623926603 129.9999999996825 0
6.314616623926603 134.9999999997619 0
6.314616623926603 139.9999999998412 0
6.314616623926604 144.9999999999206 0
8.03032183808987 104.9999999999373 0
8.030321838089876 109.9999999998746 0
8.03032183808987 114.9999999998118 0
8.030321838089874 119.9999999997491 0
8.030321838089872 124.9999999996864 0
8.03032183808987 129.9999999996825 0
8.030321838089874 134.9999999997619 0
8.03032183808987 139.9999999998412 0
8.03032183808987 144.9999999999206 0
10.08701811272338 104.9999999999373 0
10.08701811272338 109.9999999998746 0
10.08701811272338 114.9999999998118 0
10.08701811272338 119.9999999997491 0
10.08701811272338 124.9999999996864 0
10.08701811272338 129.9999999996825 0
10.08701811272338 134.9999999997619 0
10.08701811272338 139.9999999998412 0
10.08701811272337 144.9999999999206 0
12.49865973156656 104.9999999999373 0
12.49865973156656 109.9999999998746 0
12.49865973156656 114.9999999998118 0
12.49865973156656 119.9999999997491 0
12.49865973156656 124.9999999996864 0
12.49865973156656 129.9999999996825 0
12.49865973156656 134.9999999997619 0
12.49865973156656 139.9999999998412 0
12.49865973156656 144.9999999999206 0
15.25439582479418 104.9999999999373 0
15.25439582479418 109.9999999998746 0
15.25439582479418 114.9999999998118 0
15.25439582479418 119.9999999997491 0
15.25439582479418 124.9999999996864 0
15.25439582479418 129.9999999996825 0
15.25439582479417 134.9999999997619 0
15.25439582479417 139.9999999998412 0
15.25439582479418 144.9999999999206 0
18.31190376551296 104.9999999999373 0
18.31190376551296 109.9999999998746 0
18.31190376551296 114.9999999998118 0
18.31190376551296 119.9999999997491 0
18.31190376551296 124.9999999996864 0
18.31190376551295 129.9999999996825 0
18.31190376551296 134.9999999997619 0
18.31190376551296 139.9999999998412 0
18.31190376551296 144.9999999999206 0
21.5953059669258 104.9999999999373 0
21.5953059669258 109.9999999998746 0
21.5953059669258 114.9999999998118 0
21.5953059669258 119.9999999997491 0
21.59530596692579 124.9999999996864 0
21.5953059669258 129.9999999996825 0
21.5953059669258 134.9999999997619 0
21.5953059669258 139.9999999998412 0
21.5953059669258 144.9999999999206 0
24.99999999984315 104.9999999999373 0
24.99999999984315 109.9999999998746 0
24.99999999984315 114.9999999998118 0
24.99999999984315 119.9999999997491 0
24.99999999984316 124.9999999996864 0
24.99999999984315 129.9999999996825 0
24.99999999984315 134.9999999997619 0
24.99999999984315 139.9999999998412 0
24.99999999984315 144.9999999999206 0
28.40469403278432 104.9999999999373 0
28.40469403278432 109.9999999998746 0
28.40469403278432 114.9999999998118 0
28.40469403278432 119.9999999997491 0
28.40469403278433 124.9999999996864 0
28.40469403278432 129.9999999996825 0
28.40469403278432 134.9999999997619 0
28.40469403278432 139.9999999998412 0
28.40469403278432 144.9999999999206 0
31.68809623423084 104.9999999999373 0
31.68809623423083 109.9999999998746 0
31.68809623423084 114.9999999998118 0
31.68809623423083 119.9999999997491 0
31.68809623423083 124.9999999996863 0
31.68809623423083 129.9999999996825 0
31.68809623423083 134.9999999997619 0
31.68809623423083 139.9999999998412 0
31.68809623423083 144.9999999999206 0
34.74560417498714 104.9999999999373 0
34.74560417498714 109.9999999998746 0
34.74560417498714 114.9999999998118 0
34.74560417498714 119.9999999997491 0
34.74560417498714 124.9999999996864 0
34.74560417498714 129.9999999996825 0
34.74560417498714 134.9999999997619 0
34.74560417498714 139.9999999998412 0
34.74560417498714 144.9999999999206 0
37.50134026825118 104.9999999999373 0
37.50134026825119 109.9999999998746 0
37.50134026825118 114.9999999998118 0
37.50134026825118 119.9999999997491 0
37.50134026825118 124.9999999996864 0
37.50134026825118 129.9999999996825 0
37.50134026825118 134.9999999997619 0
37.50134026825118 139.9999999998412 0
37.50134026825118 144.9999999999206 0
39.91298188712973 104.9999999999373 0
39.91298188712973 109.9999999998746 0
39.91298188712975 114.9999999998118 0
39.91298188712974 119.9999999997491 0
39.91298188712975 124.9999999996864 0
39.91298188712975 129.9999999996825 0
39.91298188712975 134.9999999997619 0
39.91298188712974 139.9999999998412 0
39.91298188712975 144.9999999999206 0
41.96967816179535 104.9999999999373 0
41.96967816179535 109.9999999998746 0
41.96967816179535 114.9999999998118 0
41.96967816179536 119.9999999997491 0
41.96967816179536 124.9999999996864 0
41.96967816179536 129.9999999996825 0
41.96967816179535 134.9999999997619 0
41.96967816179535 139.9999999998412 0
41.96967816179535 144.9999999999206 0
43.68538337598799 104.9999999999373 0
43.68538337598797 109.9999999998746 0
43.68538337598797 114.9999999998118 0
43.68538337598797 119.9999999997491 0
43.68538337598798 124.9999999996864 0
43.68538337598798 129.9999999996825 0
43.68538337598797 134.9999999997619 0
43.68538337598798 139.9999999998412 0
43.68538337598796 144.9999999999206 0
45.09047622889232 104.9999999999373 0
45.09047622889232 109.9999999998746 0
45.09047622889232 114.9999999998118 0
45.09047622889231 119.9999999997491 0
45.09047622889232 124.9999999996863 0
45.09047622889232 129.9999999996825 0
45.09047622889231 134.9999999997619 0
45.09047622889232 139.9999999998412 0
45.09047622889232 144.9999999999206 0
46.22391080528215 104.9999999999373 0
46.22391080528215 109.9999999998746 0
46.22391080528218 114.9999999998119 0
46.22391080528217 119.9999999997491 0
46.22391080528215 124.9999999996864 0
46.22391080528217 129.9999999996825 0
46.22391080528217 134.9999999997619 0
46.22391080528216 139.9999999998412 0
46.22391080528217 144.9999999999206 0
47.12710154791596 104.9999999999373 0
47.12710154791595 109.9999999998746 0
47.12710154791596 114.9999999998118 0
47.12710154791596 119.9999999997491 0
47.12710154791593 124.9999999996864 0
47.12710154791595 129.9999999996825 0
47.12710154791595 134.9999999997619 0
47.12710154791595 139.9999999998413 0
47.12710154791595 144.9999999999206 0
47.83983537405297 104.9999999999373 0
47.83983537405296 109.9999999998746 0
47.83983537405296 114.9999999998119 0
47.83983537405295 119.9999999997491 0
47.83983537405296 124.9999999996864 0
47.83983537405297 129.9999999996825 0
47.83983537405297 134.9999999997619 0
47.83983537405296 139.9999999998412 0
47.83983537405296 144.9999999999206 0
48.39795821936261 104.9999999999373 0
48.39795821936263 109.9999999998746 0
48.39795821936263 114.9999999998118 0
48.39795821936264 119.9999999997491 0
48.39795821936264 124.9999999996864 0
48.39795821936263 129.9999999996825 0
48.39795821936263 134.9999999997619 0
48.39795821936262 139.9999999998412 0
48.39795821936262 144.9999999999206 0
48.83237851956491 104.9999999999373 0
48.83237851956492 109.9999999998746 0
48.83237851956489 114.9999999998118 0
48.83237851956491 119.9999999997491 0
48.83237851956491 124.9999999996864 0
48.8323785195649 129.9999999996825 0
48.83237851956491 134.9999999997619 0
48.8323785195649 139.9999999998412 0
48.83237851956491 144.9999999999206 0
49.1689274411525 104.9999999999373 0
49.1689274411525 109.9999999998746 0
49.1689274411525 114.9999999998118 0
49.16892744115249 119.9999999997491 0
49.16892744115248 124.9999999996864 0
49.16892744115252 129.9999999996825 0
49.1689274411525 134.9999999997619 0
49.1689274411525 139.9999999998412 0
49.16892744115249 144.9999999999206 0
49.42870603641897 104.9999999999373 0
49.42870603641896 109.9999999998746 0
49.42870603641897 114.9999999998119 0
49.42870603641894 119.9999999997491 0
49.42870603641895 124.9999999996864 0
49.42870603641895 129.9999999996825 0
49.42870603641894 134.9999999997619 0
49.42870603641894 139.9999999998412 0
49.42870603641896 144.9999999999206 0
49.62866283639185 104.9999999999373 0
49.62866283639185 109.9999999998746 0
49.62866283639185 114.9999999998118 0
49.62866283639186 119.9999999997491 0
49.62866283639183 124.9999999996864 0
49.62866283639185 129.9999999996825 0
49.62866283639186 134.9999999997619 0
49.62866283639184 139.9999999998412 0
49.62866283639187 144.9999999999206 0
49.78224040576862 104.9999999999373 0
49.78224040576862 109.9999999998746 0
49.78224040576863 114.9999999998118 0
49.7822404057686 119.9999999997491 0
49.78224040576862 124.9999999996864 0
49.78224040576861 129.9999999996825 0
49.78224040576862 134.9999999997619 0
49.78224040576862 139.9999999998412 0
49.78224040576861 144.9999999999206 0
2 9 0 0
$EndNodes
$Elements
21 1276 1 1276
1 1 1 1
1 1 2 
1 2 1 36
2 2 17 
3 17 18 
4 18 19 
5 19 20 
6 20 21 
7 21 22 
8 22 23 
9 23 24 
10 24 25 
11 25 26 
12 26 27 
13 27 28 
14 28 29 
15 29 30 
16 30 31 
17 31 32 
18 32 33 
19 33 34 
20 34 35 
21 35 36 
22 36 37 
23 37 38 
24 38 39 
25 39 40 
26 40 41 
27 41 42 
28 42 43 
29 43 44 
30 44 45 
31 45 46 
32 46 47 
33 47 48 
34 48 49 
35 49 50 
36 50 51 
37 51 3 
1 3 1 1
38 3 4 
1 10 1 1
39 13 14 
1 11 1 36
40 14 122 
41 122 123 
42 123 124 
43 124 125 
44 125 126 
45 126 127 
46 127 128 
47 128 129 
48 129 130 
49 130 131 
50 131 132 
51 132 133 
52 133 134 
53 134 135 
54 135 136 
55 136 137 
56 137 138 
57 138 139 
58 139 140 
59 140 141 
60 141 142 
61 142 143 
62 143 144 
63 144 145 
64 145 146 
65 146 147 
66 147 148 
67 148 149 
68 149 150 
69 150 151 
70 151 152 
71 152 153 
72 153 154 
73 154 155 
74 155 156 
75 156 15 
1 12 1 1
76 15 16 
1 13 1 10
77 1 157 
78 157 158 
79 158 159 
80 159 160 
81 160 161 
82 161 162 
83 162 163 
84 163 164 
85 164 165 
86 165 5 
1 14 1 10
87 5 166 
88 166 167 
89 167 168 
90 168 169 
91 169 170 
92 170 171 
93 171 172 
94 172 173 
95 173 174 
96 174 9 
1 15 1 10
97 9 175 
98 175 176 
99 176 177 
100 177 178 
101 178 179 
102 179 180 
103 180 181 
104 181 182 
105 182 183 
106 183 13 
1 22 1 10
107 4 238 
108 238 239 
109 239 240 
110 240 241 
111 241 242 
112 242 243 
113 243 244 
114 244 245 
115 245 246 
116 246 8 
1 23 1 10
117 8 247 
118 247 248 
119 248 249 
120 249 250 
121 250 251 
122 251 252 
123 252 253 
124 253 254 
125 254 255 
126 255 12 
1 24 1 10
127 12 256 
128 256 257 
129 257 258 
130 258 259 
131 259 260 
132 260 261 
133 261 262 
134 262 263 
135 263 264 
136 264 16 
2 1 3 10
137 1 2 184 157 
138 157 184 185 158 
139 158 185 186 159 
140 159 186 187 160 
141 160 187 188 161 
142 161 188 189 162 
143 162 189 190 163 
144 163 190 191 164 
145 164 191 192 165 
146 165 192 6 5 
2 2 3 360
147 2 17 265 184 
148 184 265 266 185 
149 185 266 267 186 
150 186 267 268 187 
151 187 268 269 188 
152 188 269 270 189 
153 189 270 271 190 
154 190 271 272 191 
155 191 272 273 192 
156 192 273 52 6 
157 17 18 274 265 
158 265 274 275 266 
159 266 275 276 267 
160 267 276 277 268 
161 268 277 278 269 
162 269 278 279 270 
163 270 279 280 271 
164 271 280 281 272 
165 272 281 282 273 
166 273 282 53 52 
167 18 19 283 274 
168 274 283 284 275 
169 275 284 285 276 
170 276 285 286 277 
171 277 286 287 278 
172 278 287 288 279 
173 279 288 289 280 
174 280 289 290 281 
175 281 290 291 282 
176 282 291 54 53 
177 19 20 292 283 
178 283 292 293 284 
179 284 293 294 285 
180 285 294 295 286 
181 286 295 296 287 
182 287 296 297 288 
183 288 297 298 289 
184 289 298 299 290 
185 290 299 300 291 
186 291 300 55 54 
187 20 21 301 292 
188 292 301 302 293 
189 293 302 303 294 
190 294 303 304 295 
191 295 304 305 296 
192 296 305 306 297 
193 297 306 307 298 
194 298 307 308 299 
195 299 308 309 300 
196 300 309 56 55 
197 21 22 310 301 
198 301 310 311 302 
199 302 311 312 303 
200 303 312 313 304 
201 304 313 314 305 
202 305 314 315 306 
203 306 315 316 307 
204 307 316 317 308 
205 308 317 318 309 
206 309 318 57 56 
207 22 23 319 310 
208 310 319 320 311 
209 311 320 321 312 
210 312 321 322 313 
211 313 322 323 314 
212 314 323 324 315 
213 315 324 325 316 
214 316 325 326 317 
215 317 326 327 318 
216 318 327 58 57 
217 23 24 328 319 
218 319 328 329 320 
219 320 329 330 321 
220 321 330 331 322 
221 322 331 332 323 
222 323 332 333 324 
223 324 333 334 325 
224 325 334 335 326 
225 326 335 336 327 
226 327 336 59 58 
227 24 25 337 328 
228 328 337 338 329 
229 329 338 339 330 
230 330 339 340 331 
231 331 340 341 332 
232 332 341 342 333 
233 333 342 343 334 
234 334 343 344 335 
235 335 344 345 336 
236 336 345 60 59 
237 25 26 346 337 
238 337 346 347 338 
239 338 347 348 339 
240 339 348 349 340 
241 340 349 350 341 
242 341 350 351 342 
243 342 351 352 343 
244 343 352 353 344 
245 344 353 354 345 
246 345 354 61 60 
247 26 27 355 346 
248 346 355 356 347 
249 347 356 357 348 
250 348 357 358 349 
251 349 358 359 350 
252 350 359 360 351 
253 351 360 361 352 
254 352 361 362 353 
255 353 362 363 354 
256 354 363 62 61 
257 27 28 364 355 
258 355 364 365 356 
259 356 365 366 357 
260 357 366 367 358 
261 358 367 368 359 
262 359 368 369 360 
263 360 369 370 361 
264 361 370 371 362 
265 362 371 372 363 
266 363 372 63 62 
267 28 29 373 364 
268 364 373 374 365 
269 365 374 375 366 
270 366 375 376 367 
271 367 376 377 368 
272 368 377 378 369 
273 369 378 379 370 
274 370 379 380 371 
275 371 380 381 372 
276 372 381 64 63 
277 29 30 382 373 
278 373 382 383 374 
279 374 383 384 375 
280 375 384 385 376 
281 376 385 386 377 
282 377 386 387 378 
283 378 387 388 379 
284 379 388 389 380 
285 380 389 390 381 
286 381 390 65 64 
287 30 31 391 382 
288 382 391 392 383 
289 383 392 393 384 
290 384 393 394 385 
291 385 394 395 386 
292 386 395 396 387 
293 387 396 397 388 
294 388 397 398 389 
295 389 398 399 390 
296 390 399 66 65 
297 31 32 400 391 
298 391 400 401 392 
299 392 401 402 393 
300 393 402 403 394 
301 394 403 404 395 
302 395 404 405 396 
303 396 405 406 397 
304 397 406 407 398 
305 398 407 408 399 
306 399 408 67 66 
307 32 33 409 400 
308 400 409 410 401 
309 401 410 411 402 
310 402 411 412 403 
311 403 412 413 404 
312 404 413 414 405 
313 405 414 415 406 
314 406 415 416 407 
315 407 416 417 408 
316 408 417 68 67 
317 33 34 418 409 
318 409 418 419 410 
319 410 419 420 411 
320 411 420 421 412 
321 412 421 422 413 
322 413 422 423 414 
323 414 423 424 415 
324 415 424 425 416 
325 416 425 426 417 
326 417 426 69 68 
327 34 35 427 418 
328 418 427 428 419 
329 419 428 429 420 
330 420 429 430 421 
331 421 430 431 422 
332 422 431 432 423 
333 423 432 433 424 
334 424 433 434 425 
335 425 434 435 426 
336 426 435 70 69 
337 35 36 436 427 
338 427 436 437 428 
339 428 437 438 429 
340 429 438 439 430 
341 430 439 440 431 
342 431 440 441 432 
343 432 441 442 433 
344 433 442 443 434 
345 434 443 444 435 
346 435 444 71 70 
347 36 37 445 436 
348 436 445 446 437 
349 437 446 447 438 
350 438 447 448 439 
351 439 448 449 440 
352 440 449 450 441 
353 441 450 451 442 
354 442 451 452 443 
355 443 452 453 444 
356 444 453 72 71 
357 37 38 454 445 
358 445 454 455 446 
359 446 455 456 447 
360 447 456 457 448 
361 448 457 458 449 
362 449 458 459 450 
363 450 459 460 451 
364 451 460 461 452 
365 452 461 462 453 
366 453 462 73 72 
367 38 39 463 454 
368 454 463 464 455 
369 455 464 465 456 
370 456 465 466 457 
371 457 466 467 458 
372 458 467 468 459 
373 459 468 469 460 
374 460 469 470 461 
375 461 470 471 462 
376 462 471 74 73 
377 39 40 472 463 
378 463 472 473 464 
379 464 473 474 465 
380 465 474 475 466 
381 466 475 476 467 
382 467 476 477 468 
383 468 477 478 469 
384 469 478 479 470 
385 470 479 480 471 
386 471 480 75 74 
387 40 41 481 472 
388 472 481 482 473 
389 473 482 483 474 
390 474 483 484 475 
391 475 484 485 476 
392 476 485 486 477 
393 477 486 487 478 
394 478 487 488 479 
395 479 488 489 480 
396 480 489 76 75 
397 41 42 490 481 
398 481 490 491 482 
399 482 491 492 483 
400 483 492 493 484 
401 484 493 494 485 
402 485 494 495 486 
403 486 495 496 487 
404 487 496 497 488 
405 488 497 498 489 
406 489 498 77 76 
407 42 43 499 490 
408 490 499 500 491 
409 491 500 501 492 
410 492 501 502 493 
411 493 502 503 494 
412 494 503 504 495 
413 495 504 505 496 
414 496 505 506 497 
415 497 506 507 498 
416 498 507 78 77 
417 43 44 508 499 
418 499 508 509 500 
419 500 509 510 501 
420 501 510 511 502 
421 502 511 512 503 
422 503 512 513 504 
423 504 513 514 505 
424 505 514 515 506 
425 506 515 516 507 
426 507 516 79 78 
427 44 45 517 508 
428 508 517 518 509 
429 509 518 519 510 
430 510 519 520 511 
431 511 520 521 512 
432 512 521 522 513 
433 513 522 523 514 
434 514 523 524 515 
435 515 524 525 516 
436 516 525 80 79 
437 45 46 526 517 
438 517 526 527 518 
439 518 527 528 519 
440 519 528 529 520 
441 520 529 530 521 
442 521 530 531 522 
443 522 531 532 523 
444 523 532 533 524 
445 524 533 534 525 
446 525 534 81 80 
447 46 47 535 526 
448 526 535 536 527 
449 527 536 537 528 
450 528 537 538 529 
451 529 538 539 530 
452 530 539 540 531 
453 531 540 541 532 
454 532 541 542 533 
455 533 542 543 534 
456 534 543 82 81 
457 47 48 544 535 
458 535 544 545 536 
459 536 545 546 537 
460 537 546 547 538 
461 538 547 548 539 
462 539 548 549 540 
463 540 549 550 541 
464 541 550 551 542 
465 542 551 552 543 
466 543 552 83 82 
467 48 49 553 544 
468 544 553 554 545 
469 545 554 555 546 
470 546 555 556 547 
471 547 556 557 548 
472 548 557 558 549 
473 549 558 559 550 
474 550 559 560 551 
475 551 560 561 552 
476 552 561 84 83 
477 49 50 562 553 
478 553 562 563 554 
479 554 563 564 555 
480 555 564 565 556 
481 556 565 566 557 
482 557 566 567 558 
483 558 567 568 559 
484 559 568 569 560 
485 560 569 570 561 
486 561 570 85 84 
487 50 51 571 562 
488 562 571 572 563 
489 563 572 573 564 
490 564 573 574 565 
491 565 574 575 566 
492 566 575 576 567 
493 567 576 577 568 
494 568 577 578 569 
495 569 578 579 570 
496 570 579 86 85 
497 51 3 211 571 
498 571 211 212 572 
499 572 212 213 573 
500 573 213 214 574 
501 574 214 215 575 
502 575 215 216 576 
503 576 216 217 577 
504 577 217 218 578 
505 578 218 219 579 
506 579 219 7 86 
2 3 3 10
507 3 4 238 211 
508 211 238 239 212 
509 212 239 240 213 
510 213 240 241 214 
511 214 241 242 215 
512 215 242 243 216 
513 216 243 244 217 
514 217 244 245 218 
515 218 245 246 219 
516 219 246 8 7 
2 4 3 10
517 5 6 193 166 
518 166 193 194 167 
519 167 194 195 168 
520 168 195 196 169 
521 169 196 197 170 
522 170 197 198 171 
523 171 198 199 172 
524 172 199 200 173 
525 173 200 201 174 
526 174 201 10 9 
2 5 3 360
527 6 52 580 193 
528 193 580 581 194 
529 194 581 582 195 
530 195 582 583 196 
531 196 583 584 197 
532 197 584 585 198 
533 198 585 586 199 
534 199 586 587 200 
535 200 587 588 201 
536 201 588 87 10 
537 52 53 589 580 
538 580 589 590 581 
539 581 590 591 582 
540 582 591 592 583 
541 583 592 593 584 
542 584 593 594 585 
543 585 594 595 586 
544 586 595 596 587 
545 587 596 597 588 
546 588 597 88 87 
547 53 54 598 589 
548 589 598 599 590 
549 590 599 600 591 
550 591 600 601 592 
551 592 601 602 593 
552 593 602 603 594 
553 594 603 604 595 
554 595 604 605 596 
555 596 605 606 597 
556 597 606 89 88 
557 54 55 607 598 
558 598 607 608 599 
559 599 608 609 600 
560 600 609 610 601 
561 601 610 611 602 
562 602 611 612 603 
563 603 612 613 604 
564 604 613 614 605 
565 605 614 615 606 
566 606 615 90 89 
567 55 56 616 607 
568 607 616 617 608 
569 608 617 618 609 
570 609 618 619 610 
571 610 619 620 611 
572 611 620 621 612 
573 612 621 622 613 
574 613 622 623 614 
575 614 623 624 615 
576 615 624 91 90 
577 56 57 625 616 
578 616 625 626 617 
579 617 626 627 618 
580 618 627 628 619 
581 619 628 629 620 
582 620 629 630 621 
583 621 630 631 622 
584 622 631 632 623 
585 623 632 633 624 
586 624 633 92 91 
587 57 58 634 625 
588 625 634 635 626 
589 626 635 636 627 
590 627 636 637 628 
591 628 637 638 629 
592 629 638 639 630 
593 630 639 640 631 
594 631 640 641 632 
595 632 641 642 633 
596 633 642 93 92 
597 58 59 643 634 
598 634 643 644 635 
599 635 644 645 636 
600 636 645 646 637 
601 637 646 647 638 
602 638 647 648 639 
603 639 648 649 640 
604 640 649 650 641 
605 641 650 651 642 
606 642 651 94 93 
607 59 60 652 643 
608 643 652 653 644 
609 644 653 654 645 
610 645 654 655 646 
611 646 655 656 647 
612 647 656 657 648 
613 648 657 658 649 
614 649 658 659 650 
615 650 659 660 651 
616 651 660 95 94 
617 60 61 661 652 
618 652 661 662 653 
619 653 662 663 654 
620 654 663 664 655 
621 655 664 665 656 
622 656 665 666 657 
623 657 666 667 658 
624 658 667 668 659 
625 659 668 669 660 
626 660 669 96 95 
627 61 62 670 661 
628 661 670 671 662 
629 662 671 672 663 
630 663 672 673 664 
631 664 673 674 665 
632 665 674 675 666 
633 666 675 676 667 
634 667 676 677 668 
635 668 677 678 669 
636 669 678 97 96 
637 62 63 679 670 
638 670 679 680 671 
639 671 680 681 672 
640 672 681 682 673 
641 673 682 683 674 
642 674 683 684 675 
643 675 684 685 676 
644 676 685 686 677 
645 677 686 687 678 
646 678 687 98 97 
647 63 64 688 679 
648 679 688 689 680 
649 680 689 690 681 
650 681 690 691 682 
651 682 691 692 683 
652 683 692 693 684 
653 684 693 694 685 
654 685 694 695 686 
655 686 695 696 687 
656 687 696 99 98 
657 64 65 697 688 
658 688 697 698 689 
659 689 698 699 690 
660 690 699 700 691 
661 691 700 701 692 
662 692 701 702 693 
663 693 702 703 694 
664 694 703 704 695 
665 695 704 705 696 
666 696 705 100 99 
667 65 66 706 697 
668 697 706 707 698 
669 698 707 708 699 
670 699 708 709 700 
671 700 709 710 701 
672 701 710 711 702 
673 702 711 712 703 
674 703 712 713 704 
675 704 713 714 705 
676 705 714 101 100 
677 66 67 715 706 
678 706 715 716 707 
679 707 716 717 708 
680 708 717 718 709 
681 709 718 719 710 
682 710 719 720 711 
683 711 720 721 712 
684 712 721 722 713 
685 713 722 723 714 
686 714 723 102 101 
687 67 68 724 715 
688 715 724 725 716 
689 716 725 726 717 
690 717 726 727 718 
691 718 727 728 719 
692 719 728 729 720 
693 720 729 730 721 
694 721 730 731 722 
695 722 731 732 723 
696 723 732 103 102 
697 68 69 733 724 
698 724 733 734 725 
699 725 734 735 726 
700 726 735 736 727 
701 727 736 737 728 
702 728 737 738 729 
703 729 738 739 730 
704 730 739 740 731 
705 731 740 741 732 
706 732 741 104 103 
707 69 70 742 733 
708 733 742 743 734 
709 734 743 744 735 
710 735 744 745 736 
711 736 745 746 737 
712 737 746 747 738 
713 738 747 748 739 
714 739 748 749 740 
715 740 749 750 741 
716 741 750 105 104 
717 70 71 751 742 
718 742 751 752 743 
719 743 752 753 744 
720 744 753 754 745 
721 745 754 755 746 
722 746 755 756 747 
723 747 756 757 748 
724 748 757 758 749 
725 749 758 759 750 
726 750 759 106 105 
727 71 72 760 751 
728 751 760 761 752 
729 752 761 762 753 
730 753 762 763 754 
731 754 763 764 755 
732 755 764 765 756 
733 756 765 766 757 
734 757 766 767 758 
735 758 767 768 759 
736 759 768 107 106 
737 72 73 769 760 
738 760 769 770 761 
739 761 770 771 762 
740 762 771 772 763 
741 763 772 773 764 
742 764 773 774 765 
743 765 774 775 766 
744 766 775 776 767 
745 767 776 777 768 
746 768 777 108 107 
747 73 74 778 769 
748 769 778 779 770 
749 770 779 780 771 
750 771 780 781 772 
751 772 781 782 773 
752 773 782 783 774 
753 774 783 784 775 
754 775 784 785 776 
755 776 785 786 777 
756 777 786 109 108 
757 74 75 787 778 
758 778 787 788 779 
759 779 788 789 780 
760 780 789 790 781 
761 781 790 791 782 
762 782 791 792 783 
763 783 792 793 784 
764 784 793 794 785 
765 785 794 795 786 
766 786 795 110 109 
767 75 76 796 787 
768 787 796 797 788 
769 788 797 798 789 
770 789 798 799 790 
771 790 799 800 791 
772 791 800 801 792 
773 792 801 802 793 
774 793 802 803 794 
775 794 803 804 795 
776 795 804 111 110 
777 76 77 805 796 
778 796 805 806 797 
779 797 806 807 798 
780 798 807 808 799 
781 799 808 809 800 
782 800 809 810 801 
783 801 810 811 802 
784 802 811 812 803 
785 803 812 813 804 
786 804 813 112 111 
787 77 78 814 805 
788 805 814 815 806 
789 806 815 816 807 
790 807 816 817 808 
791 808 817 818 809 
792 809 818 819 810 
793 810 819 820 811 
794 811 820 821 812 
795 812 821 822 813 
796 813 822 113 112 
797 78 79 823 814 
798 814 823 824 815 
799 815 824 825 816 
800 816 825 826 817 
801 817 826 827 818 
802 818 827 828 819 
803 819 828 829 820 
804 820 829 830 821 
805 821 830 831 822 
806 822 831 114 113 
807 79 80 832 823 
808 823 832 833 824 
809 824 833 834 825 
810 825 834 835 826 
811 826 835 836 827 
812 827 836 837 828 
813 828 837 838 829 
814 829 838 839 830 
815 830 839 840 831 
816 831 840 115 114 
817 80 81 841 832 
818 832 841 842 833 
819 833 842 843 834 
820 834 843 844 835 
821 835 844 845 836 
822 836 845 846 837 
823 837 846 847 838 
824 838 847 848 839 
825 839 848 849 840 
826 840 849 116 115 
827 81 82 850 841 
828 841 850 851 842 
829 842 851 852 843 
830 843 852 853 844 
831 844 853 854 845 
832 845 854 855 846 
833 846 855 856 847 
834 847 856 857 848 
835 848 857 858 849 
836 849 858 117 116 
837 82 83 859 850 
838 850 859 860 851 
839 851 860 861 852 
840 852 861 862 853 
841 853 862 863 854 
842 854 863 864 855 
843 855 864 865 856 
844 856 865 866 857 
845 857 866 867 858 
846 858 867 118 117 
847 83 84 868 859 
848 859 868 869 860 
849 860 869 870 861 
850 861 870 871 862 
851 862 871 872 863 
852 863 872 873 864 
853 864 873 874 865 
854 865 874 875 866 
855 866 875 876 867 
856 867 876 119 118 
857 84 85 877 868 
858 868 877 878 869 
859 869 878 879 870 
860 870 879 880 871 
861 871 880 881 872 
862 872 881 882 873 
863 873 882 883 874 
864 874 883 884 875 
865 875 884 885 876 
866 876 885 120 119 
867 85 86 886 877 
868 877 886 887 878 
869 878 887 888 879 
870 879 888 889 880 
871 880 889 890 881 
872 881 890 891 882 
873 882 891 892 883 
874 883 892 893 884 
875 884 893 894 885 
876 885 894 121 120 
877 86 7 220 886 
878 886 220 221 887 
879 887 221 222 888 
880 888 222 223 889 
881 889 223 224 890 
882 890 224 225 891 
883 891 225 226 892 
884 892 226 227 893 
885 893 227 228 894 
886 894 228 11 121 
2 6 3 10
887 7 8 247 220 
888 220 247 248 221 
889 221 248 249 222 
890 222 249 250 223 
891 223 250 251 224 
892 224 251 252 225 
893 225 252 253 226 
894 226 253 254 227 
895 227 254 255 228 
896 228 255 12 11 
2 7 3 10
897 9 10 202 175 
898 175 202 203 176 
899 176 203 204 177 
900 177 204 205 178 
901 178 205 206 179 
902 179 206 207 180 
903 180 207 208 181 
904 181 208 209 182 
905 182 209 210 183 
906 183 210 14 13 
2 8 3 360
907 10 87 895 202 
908 202 895 896 203 
909 203 896 897 204 
910 204 897 898 205 
911 205 898 899 206 
912 206 899 900 207 
913 207 900 901 208 
914 208 901 902 209 
915 209 902 903 210 
916 210 903 122 14 
917 87 88 904 895 
918 895 904 905 896 
919 896 905 906 897 
920 897 906 907 898 
921 898 907 908 899 
922 899 908 909 900 
923 900 909 910 901 
924 901 910 911 902 
925 902 911 912 903 
926 903 912 123 122 
927 88 89 913 904 
928 904 913 914 905 
929 905 914 915 906 
930 906 915 916 907 
931 907 916 917 908 
932 908 917 918 909 
933 909 918 919 910 
934 910 919 920 911 
935 911 920 921 912 
936 912 921 124 123 
937 89 90 922 913 
938 913 922 923 914 
939 914 923 924 915 
940 915 924 925 916 
941 916 925 926 917 
942 917 926 927 918 
943 918 927 928 919 
944 919 928 929 920 
945 920 929 930 921 
946 921 930 125 124 
947 90 91 931 922 
948 922 931 932 923 
949 923 932 933 924 
950 924 933 934 925 
951 925 934 935 926 
952 926 935 936 927 
953 927 936 937 928 
954 928 937 938 929 
955 929 938 939 930 
956 930 939 126 125 
957 91 92 940 931 
958 931 940 941 932 
959 932 941 942 933 
960 933 942 943 934 
961 934 943 944 935 
962 935 944 945 936 
963 936 945 946 937 
964 937 946 947 938 
965 938 947 948 939 
966 939 948 127 126 
967 92 93 949 940 
968 940 949 950 941 
969 941 950 951 942 
970 942 951 952 943 
971 943 952 953 944 
972 944 953 954 945 
973 945 954 955 946 
974 946 955 956 947 
975 947 956 957 948 
976 948 957 128 127 
977 93 94 958 949 
978 949 958 959 950 
979 950 959 960 951 
980 951 960 961 952 
981 952 961 962 953 
982 953 962 963 954 
983 954 963 964 955 
984 955 964 965 956 
985 956 965 966 957 
986 957 966 129 128 
987 94 95 967 958 
988 958 967 968 959 
989 959 968 969 960 
990 960 969 970 961 
991 961 970 971 962 
992 962 971 972 963 
993 963 972 973 964 
994 964 973 974 965 
995 965 974 975 966 
996 966 975 130 129 
997 95 96 976 967 
998 967 976 977 968 
999 968 977 978 969 
1000 969 978 979 970 
1001 970 979 980 971 
1002 971 980 981 972 
1003 972 981 982 973 
1004 973 982 983 974 
1005 974 983 984 975 
1006 975 984 131 130 
1007 96 97 985 976 
1008 976 985 986 977 
1009 977 986 987 978 
1010 978 987 988 979 
1011 979 988 989 980 
1012 980 989 990 981 
1013 981 990 991 982 
1014 982 991 992 983 
1015 983 992 993 984 
1016 984 993 132 131 
1017 97 98 994 985 
1018 985 994 995 986 
1019 986 995 996 987 
1020 987 996 997 988 
1021 988 997 998 989 
1022 989 998 999 990 
1023 990 999 1000 991 
1024 991 1000 1001 992 
1025 992 1001 1002 993 
1026 993 1002 133 132 
1027 98 99 1003 994 
1028 994 1003 1004 995 
1029 995 1004 1005 996 
1030 996 1005 1006 997 
1031 997 1006 1007 998 
1032 998 1007 1008 999 
1033 999 1008 1009 1000 
1034 1000 1009 1010 1001 
1035 1001 1010 1011 1002 
1036 1002 1011 134 133 
1037 99 100 1012 1003 
1038 1003 1012 1013 1004 
1039 1004 1013 1014 1005 
1040 1005 1014 1015 1006 
1041 1006 1015 1016 1007 
1042 1007 1016 1017 1008 
1043 1008 1017 1018 1009 
1044 1009 1018 1019 1010 
1045 1010 1019 1020 1011 
1046 1011 1020 135 134 
1047 100 101 1021 1012 
1048 1012 1021 1022 1013 
1049 1013 1022 1023 1014 
1050 1014 1023 1024 1015 
1051 1015 1024 1025 1016 
1052 1016 1025 1026 1017 
1053 1017 1026 1027 1018 
1054 1018 1027 1028 1019 
1055 1019 1028 1029 1020 
1056 1020 1029 136 135 
1057 101 102 1030 1021 
1058 1021 1030 1031 1022 
1059 1022 1031 1032 1023 
1060 1023 1032 1033 1024 
1061 1024 1033 1034 1025 
1062 1025 1034 1035 1026 
1063 1026 1035 1036 1027 
1064 1027 1036 1037 1028 
1065 1028 1037 1038 1029 
1066 1029 1038 137 136 
1067 102 103 1039 1030 
1068 1030 1039 1040 1031 
1069 1031 1040 1041 1032 
1070 1032 1041 1042 1033 
1071 1033 1042 1043 1034 
1072 1034 1043 1044 1035 
1073 1035 1044 1045 1036 
1074 1036 1045 1046 1037 
1075 1037 1046 1047 1038 
1076 1038 1047 138 137 
1077 103 104 1048 1039 
1078 1039 1048 1049 1040 
1079 1040 1049 1050 1041 
1080 1041 1050 1051 1042 
1081 1042 1051 1052 1043 
1082 1043 1052 1053 1044 
1083 1044 1053 1054 1045 
1084 1045 1054 1055 1046 
1085 1046 1055 1056 1047 
1086 1047 1056 139 138 
1087 104 105 1057 1048 
1088 1048 1057 1058 1049 
1089 1049 1058 1059 1050 
1090 1050 1059 1060 1051 
1091 1051 1060 1061 1052 
1092 1052 1061 1062 1053 
1093 1053 1062 1063 1054 
1094 1054 1063 1064 1055 
1095 1055 1064 1065 1056 
1096 1056 1065 140 139 
1097 105 106 1066 1057 
1098 1057 1066 1067 1058 
1099 1058 1067 1068 1059 
1100 1059 1068 1069 1060 
1101 1060 1069 1070 1061 
1102 1061 1070 1071 1062 
1103 1062 1071 1072 1063 
1104 1063 1072 1073 1064 
1105 1064 1073 1074 1065 
1106 1065 1074 141 140 
1107 106 107 1075 1066 
1108 1066 1075 1076 1067 
1109 1067 1076 1077 1068 
1110 1068 1077 1078 1069 
1111 1069 1078 1079 1070 
1112 1070 1079 1080 1071 
1113 1071 1080 1081 1072 
1114 1072 1081 1082 1073 
1115 1073 1082 1083 1074 
1116 1074 1083 142 141 
1117 107 108 1084 1075 
1118 1075 1084 1085 1076 
1119 1076 1085 1086 1077 
1120 1077 1086 1087 1078 
1121 1078 1087 1088 1079 
1122 1079 1088 1089 1080 
1123 1080 1089 1090 1081 
1124 1081 1090 1091 1082 
1125 1082 1091 1092 1083 
1126 1083 1092 143 142 
1127 108 109 1093 1084 
1128 1084 1093 1094 1085 
1129 1085 1094 1095 1086 
1130 1086 1095 1096 1087 
1131 1087 1096 1097 1088 
1132 1088 1097 1098 1089 
1133 1089 1098 1099 1090 
1134 1090 1099 1100 1091 
1135 1091 1100 1101 1092 
1136 1092 1101 144 143 
1137 109 110 1102 1093 
1138 1093 1102 1103 1094 
1139 1094 1103 1104 1095 
1140 1095 1104 1105 1096 
1141 1096 1105 1106 1097 
1142 1097 1106 1107 1098 
1143 1098 1107 1108 1099 
1144 1099 1108 1109 1100 
1145 1100 1109 1110 1101 
1146 1101 1110 145 144 
1147 110 111 1111 1102 
1148 1102 1111 1112 1103 
1149 1103 1112 1113 1104 
1150 1104 1113 1114 1105 
1151 1105 1114 1115 1106 
1152 1106 1115 1116 1107 
1153 1107 1116 1117 1108 
1154 1108 1117 1118 1109 
1155 1109 1118 1119 1110 
1156 1110 1119 146 145 
1157 111 112 1120 1111 
1158 1111 1120 1121 1112 
1159 1112 1121 1122 1113 
1160 1113 1122 1123 1114 
1161 1114 1123 1124 1115 
1162 1115 1124 1125 1116 
1163 1116 1125 1126 1117 
1164 1117 1126 1127 1118 
1165 1118 1127 1128 1119 
1166 1119 1128 147 146 
1167 112 113 1129 1120 
1168 1120 1129 1130 1121 
1169 1121 1130 1131 1122 
1170 1122 1131 1132 1123 
1171 1123 1132 1133 1124 
1172 1124 1133 1134 1125 
1173 1125 1134 1135 1126 
1174 1126 1135 1136 1127 
1175 1127 1136 1137 1128 
1176 1128 1137 148 147 
1177 113 114 1138 1129 
1178 1129 1138 1139 1130 
1179 1130 1139 1140 1131 
1180 1131 1140 1141 1132 
1181 1132 1141 1142 1133 
1182 1133 1142 1143 1134 
1183 1134 1143 1144 1135 
1184 1135 1144 1145 1136 
1185 1136 1145 1146 1137 
1186 1137 1146 149 148 
1187 114 115 1147 1138 
1188 1138 1147 1148 1139 
1189 1139 1148 1149 1140 
1190 1140 1149 1150 1141 
1191 1141 1150 1151 1142 
1192 1142 1151 1152 1143 
1193 1143 1152 1153 1144 
1194 1144 1153 1154 1145 
1195 1145 1154 1155 1146 
1196 1146 1155 150 149 
1197 115 116 1156 1147 
1198 1147 1156 1157 1148 
1199 1148 1157 1158 1149 
1200 1149 1158 1159 1150 
1201 1150 1159 1160 1151 
1202 1151 1160 1161 1152 
1203 1152 1161 1162 1153 
1204 1153 1162 1163 1154 
1205 1154 1163 1164 1155 
1206 1155 1164 151 150 
1207 116 117 1165 1156 
1208 1156 1165 1166 1157 
1209 1157 1166 1167 1158 
1210 1158 1167 1168 1159 
1211 1159 1168 1169 1160 
1212 1160 1169 1170 1161 
1213 1161 1170 1171 1162 
1214 1162 1171 1172 1163 
1215 1163 1172 1173 1164 
1216 1164 1173 152 151 
1217 117 118 1174 1165 
1218 1165 1174 1175 1166 
1219 1166 1175 1176 1167 
1220 1167 1176 1177 1168 
1221 1168 1177 1178 1169 
1222 1169 1178 1179 1170 
1223 1170 1179 1180 1171 
1224 1171 1180 1181 1172 
1225 1172 1181 1182 1173 
1226 1173 1182 153 152 
1227 118 119 1183 1174 
1228 1174 1183 1184 1175 
1229 1175 1184 1185 1176 
1230 1176 1185 1186 1177 
1231 1177 1186 1187 1178 
1232 1178 1187 1188 1179 
1233 1179 1188 1189 1180 
1234 1180 1189 1190 1181 
1235 1181 1190 1191 1182 
1236 1182 1191 154 153 
1237 119 120 1192 1183 
1238 1183 1192 1193 1184 
1239 1184 1193 1194 1185 
1240 1185 1194 1195 1186 
1241 1186 1195 1196 1187 
1242 1187 1196 1197 1188 
1243 1188 1197 1198 1189 
1244 1189 1198 1199 1190 
1245 1190 1199 1200 1191 
1246 1191 1200 155 154 
1247 120 121 1201 1192 
1248 1192 1201 1202 1193 
1249 1193 1202 1203 1194 
1250 1194 1203 1204 1195 
1251 1195 1204 1205 1196 
1252 1196 1205 1206 1197 
1253 1197 1206 1207 1198 
1254 1198 1207 1208 1199 
1255 1199 1208 1209 1200 
1256 1200 1209 156 155 
1257 121 11 229 1201 
1258 1201 229 230 1202 
1259 1202 230 231 1203 
1260 1203 231 232 1204 
1261 1204 232 233 1205 
1262 1205 233 234 1206 
1263 1206 234 235 1207 
1264 1207 235 236 1208 
1265 1208 236 237 1209 
1266 1209 237 15 156 
2 9 3 10
1267 11 12 256 229 
1268 229 256 257 230 
1269 230 257 258 231 
1270 231 258 259 232 
1271 232 259 260 233 
1272 233 260 261 234 
1273 234 261 262 235 
1274 235 262 263 236 
1275 236 263 264 237 
1276 237 264 16 15 
$EndElements
