$MeshFormat
4.1 0 8
$EndMeshFormat
$PhysicalNames
8
1 3 "inlet"
1 4 "outlet"
1 5 "bottom"
1 6 "top"
1 7 "left"
1 8 "right"
2 1 "fracture"
2 2 "matrix"
$EndPhysicalNames
$Entities
16 24 9 0
1 0 0 0 0 
2 0.1 0 0 0 
3 4.9 0 0 0 
4 5 0 0 0 
5 0 50 0 0 
6 0.1 50 0 0 
7 4.9 50 0 0 
8 5 50 0 0 
9 0 100 0 0 
10 0.1 100 0 0 
11 4.9 100 0 0 
12 5 100 0 0 
13 0 150 0 0 
14 0.1 150 0 0 
15 4.9 150 0 0 
16 5 150 0 0 
1 0 0 0 0.1 0 0 1 3 2 1 -2 
2 0.1000000000000001 0 0 4.9 0 0 1 5 2 2 -3 
3 4.9 0 0 5 0 0 1 5 2 3 -4 
4 0 50 0 0.1 50 0 0 2 5 -6 
5 0.1000000000000001 50 0 4.9 50 0 0 2 6 -7 
6 4.9 50 0 5 50 0 0 2 7 -8 
7 0 100 0 0.1 100 0 0 2 9 -10 
8 0.1000000000000001 100 0 4.9 100 0 0 2 10 -11 
9 4.9 100 0 5 100 0 0 2 11 -12 
10 0 150 0 0.1 150 0 1 6 2 13 -14 
11 0.1000000000000001 150 0 4.9 150 0 1 6 2 14 -15 
12 4.9 150 0 5 150 0 1 4 2 15 -16 
13 0 0 0 0 50 0 1 7 2 1 -5 
14 0 50 0 0 100 0 1 7 2 5 -9 
15 0 100 0 0 150 0 1 7 2 9 -13 
16 0.1 0 0 0.1 50 0 0 2 2 -6 
17 0.1 50 0 0.1 100 0 0 2 6 -10 
18 0.1 100 0 0.1 150 0 0 2 10 -14 
19 4.9 0 0 4.9 50 0 0 2 3 -7 
20 4.9 50 0 4.9 100 0 0 2 7 -11 
21 4.9 100 0 4.9 150 0 0 2 11 -15 
22 5 0 0 5 50 0 1 8 2 4 -8 
23 5 50 0 5 100 0 1 8 2 8 -12 
24 5 100 0 5 150 0 1 8 2 12 -16 
1 0 0 0 0.1 50 0 1 1 4 1 16 -4 -13 
2 0.1000000000000001 0 0 4.9 50 0 1 2 4 2 19 -5 -16 
3 4.9 0 0 5 50 0 1 2 4 3 22 -6 -19 
4 0 50 0 0.1 100 0 1 1 4 4 17 -7 -14 
5 0.1000000000000001 50 0 4.9 100 0 1 2 4 5 20 -8 -17 
6 4.9 50 0 5 100 0 1 1 4 6 23 -9 -20 
7 0 100 0 0.1 150 0 1 2 4 7 18 -10 -15 
8 0.1000000000000001 100 0 4.9 150 0 1 2 4 8 21 -11 -18 
9 4.9 100 0 5 150 0 1 1 4 9 24 -12 -21 
$EndEntities
$Nodes
45 837 1 837
0 1 0 1
1
0 0 0
0 2 0 1
2
0.1 0 0
0 3 0 1
3
4.9 0 0
0 4 0 1
4
5 0 0
0 5 0 1
5
0 50 0
0 6 0 1
6
0.1 50 0
0 7 0 1
7
4.9 50 0
0 8 0 1
8
5 50 0
0 9 0 1
9
0 100 0
0 10 0 1
10
0.1 100 0
0 11 0 1
11
4.9 100 0
0 12 0 1
12
5 100 0
0 13 0 1
13
0 150 0
0 14 0 1
14
0.1 150 0
0 15 0 1
15
4.9 150 0
0 16 0 1
16
5 150 0
1 1 0 0
1 2 0 23
17
18
19
20
21
22
23
24
25
26
27
28
29
30
31
32
33
34
35
36
37
38
39
0.1443766839204601 0 0
0.2032054860804365 0 0
0.2806388625351696 0 0
0.3816094713580648 0 0
0.5116743447756442 0 0
0.6766073791630342 0 0
0.8816425258361569 0 0
1.130327820720542 0 0
1.42309932170316 0 0
1.75591963395734 0 0
2.11954558885037 0 0
2.499999999988465 0 0
2.880454411129167 0 0
3.244080366025484 0 0
3.57690067828319 0 0
3.869672179269178 0 0
4.118357474156515 0 0
4.323392620831998 0 0
4.488325655221016 0 0
4.618390528639812 0 0
4.719361137463622 0 0
4.796794513918957 0 0
4.855623316079309 0 0
1 3 0 0
1 5 0 23
40
41
42
43
44
45
46
47
48
49
50
51
52
53
54
55
56
57
58
59
60
61
62
0.1443766839204601 50 0
0.2032054860804365 50 0
0.2806388625351696 50 0
0.3816094713580648 50 0
0.5116743447756442 50 0
0.6766073791630342 50 0
0.8816425258361569 50 0
1.130327820720542 50 0
1.42309932170316 50 0
1.75591963395734 50 0
2.11954558885037 50 0
2.499999999988465 50 0
2.880454411129167 50 0
3.244080366025484 50 0
3.57690067828319 50 0
3.869672179269178 50 0
4.118357474156515 50 0
4.323392620831998 50 0
4.488325655221016 50 0
4.618390528639812 50 0
4.719361137463622 50 0
4.796794513918957 50 0
4.855623316079309 50 0
1 8 0 23
63
64
65
66
67
68
69
70
71
72
73
74
75
76
77
78
79
80
81
82
83
84
85
0.1443766839204601 100 0
0.2032054860804365 100 0
0.2806388625351696 100 0
0.3816094713580648 100 0
0.5116743447756442 100 0
0.6766073791630342 100 0
0.8816425258361569 100 0
1.130327820720542 100 0
1.42309932170316 100 0
1.75591963395734 100 0
2.11954558885037 100 0
2.499999999988465 100 0
2.880454411129167 100 0
3.244080366025484 100 0
3.57690067828319 100 0
3.869672179269178 100 0
4.118357474156515 100 0
4.323392620831998 100 0
4.488325655221016 100 0
4.618390528639812 100 0
4.719361137463622 100 0
4.796794513918957 100 0
4.855623316079309 100 0
1 10 0 0
1 11 0 23
86
87
88
89
90
91
92
93
94
95
96
97
98
99
100
101
102
103
104
105
106
107
108
0.1443766839204601 150 0
0.2032054860804365 150 0
0.2806388625351696 150 0
0.3816094713580648 150 0
0.5116743447756442 150 0
0.6766073791630342 150 0
0.8816425258361569 150 0
1.130327820720542 150 0
1.42309932170316 150 0
1.75591963395734 150 0
2.11954558885037 150 0
2.499999999988465 150 0
2.880454411129167 150 0
3.244080366025484 150 0
3.57690067828319 150 0
3.869672179269178 150 0
4.118357474156515 150 0
4.323392620831998 150 0
4.488325655221016 150 0
4.618390528639812 150 0
4.719361137463622 150 0
4.796794513918957 150 0
4.855623316079309 150 0
1 12 0 0
1 13 0 9
109
110
111
112
113
114
115
116
117
0 4.99999999998078 0
0 9.999999999957042 0
0 14.99999999993109 0
0 19.99999999992 0
0 24.99999999991182 0
0 29.99999999990365 0
0 34.99999999991795 0
0 39.9999999999453 0
0 44.99999999997265 0
1 14 0 9
118
119
120
121
122
123
124
125
126
0 54.99999999994839 0
0 59.99999999989678 0
0 64.99999999984517 0
0 69.99999999979357 0
0 74.99999999974196 0
0 79.99999999969032 0
0 84.9999999997286 0
0 89.99999999981907 0
0 94.99999999990953 0
1 15 0 9
127
128
129
130
131
132
133
134
135
0 104.9999999999373 0
0 109.9999999998746 0
0 114.9999999998118 0
0 119.9999999997491 0
0 124.9999999996864 0
0 129.9999999996825 0
0 134.9999999997619 0
0 139.9999999998412 0
0 144.9999999999206 0
1 16 0 9
136
137
138
139
140
141
142
143
144
0.1 4.99999999998078 0
0.1 9.999999999957042 0
0.1 14.99999999993109 0
0.1 19.99999999992 0
0.1 24.99999999991182 0
0.1 29.99999999990365 0
0.1 34.99999999991795 0
0.1 39.9999999999453 0
0.1 44.99999999997265 0
1 17 0 9
145
146
147
148
149
150
151
152
153
0.1 54.99999999994839 0
0.1 59.99999999989678 0
0.1 64.99999999984517 0
0.1 69.99999999979357 0
0.1 74.99999999974196 0
0.1 79.99999999969032 0
0.1 84.9999999997286 0
0.1 89.99999999981907 0
0.1 94.99999999990953 0
1 18 0 9
154
155
156
157
158
159
160
161
162
0.1 104.9999999999373 0
0.1 109.9999999998746 0
0.1 114.9999999998118 0
0.1 119.9999999997491 0
0.1 124.9999999996864 0
0.1 129.9999999996825 0
0.1 134.9999999997619 0
0.1 139.9999999998412 0
0.1 144.9999999999206 0
1 19 0 9
163
164
165
166
167
168
169
170
171
4.9 4.99999999998078 0
4.9 9.999999999957042 0
4.9 14.99999999993109 0
4.9 19.99999999992 0
4.9 24.99999999991182 0
4.9 29.99999999990365 0
4.9 34.99999999991795 0
4.9 39.9999999999453 0
4.9 44.99999999997265 0
1 20 0 9
172
173
174
175
176
177
178
179
180
4.9 54.99999999994839 0
4.9 59.99999999989678 0
4.9 64.99999999984517 0
4.9 69.99999999979357 0
4.9 74.99999999974196 0
4.9 79.99999999969032 0
4.9 84.9999999997286 0
4.9 89.99999999981907 0
4.9 94.99999999990953 0
1 21 0 9
181
182
183
184
185
186
187
188
189
4.9 104.9999999999373 0
4.9 109.9999999998746 0
4.9 114.9999999998118 0
4.9 119.9999999997491 0
4.9 124.9999999996864 0
4.9 129.9999999996825 0
4.9 134.9999999997619 0
4.9 139.9999999998412 0
4.9 144.9999999999206 0
1 22 0 9
190
191
192
193
194
195
196
197
198
5 4.99999999998078 0
5 9.999999999957042 0
5 14.99999999993109 0
5 19.99999999992 0
5 24.99999999991182 0
5 29.99999999990365 0
5 34.99999999991795 0
5 39.9999999999453 0
5 44.99999999997265 0
1 23 0 9
199
200
201
202
203
204
205
206
207
5 54.99999999994839 0
5 59.99999999989678 0
5 64.99999999984517 0
5 69.99999999979357 0
5 74.99999999974196 0
5 79.99999999969032 0
5 84.9999999997286 0
5 89.99999999981907 0
5 94.99999999990953 0
1 24 0 9
208
209
210
211
212
213
214
215
216
5 104.9999999999373 0
5 109.9999999998746 0
5 114.9999999998118 0
5 119.9999999997491 0
5 124.9999999996864 0
5 129.9999999996825 0
5 134.9999999997619 0
5 139.9999999998412 0
5 144.9999999999206 0
2 1 0 0
2 2 0 207
217
218
219
220
221
222
223
224
225
226
227
228
229
230
231
232
233
234
235
236
237
238
239
240
241
242
243
244
245
246
247
248
249
250
251
252
253
254
255
256
257
258
259
260
261
262
263
264
265
266
267
268
269
270
271
272
273
274
275
276
277
278
279
280
281
282
283
284
285
286
287
288
289
290
291
292
293
294
295
296
297
298
299
300
301
302
303
304
305
306
307
308
309
310
311
312
313
314
315
316
317
318
319
320
321
322
323
324
325
326
327
328
329
330
331
332
333
334
335
336
337
338
339
340
341
342
343
344
345
346
347
348
349
350
351
352
353
354
355
356
357
358
359
360
361
362
363
364
365
366
367
368
369
370
371
372
373
374
375
376
377
378
379
380
381
382
383
384
385
386
387
388
389
390
391
392
393
394
395
396
397
398
399
400
401
402
403
404
405
406
407
408
409
410
411
412
413
414
415
416
417
418
419
420
421
422
423
0.1443766839204601 4.999999999980781 0
0.1443766839204601 9.999999999957042 0
0.1443766839204601 14.99999999993109 0
0.1443766839204601 19.99999999992 0
0.1443766839204601 24.99999999991182 0
0.1443766839204601 29.99999999990365 0
0.1443766839204601 34.99999999991795 0
0.1443766839204601 39.9999999999453 0
0.1443766839204601 44.99999999997265 0
0.2032054860804366 4.999999999980781 0
0.2032054860804366 9.999999999957042 0
0.2032054860804366 14.99999999993109 0
0.2032054860804366 19.99999999992 0
0.2032054860804366 24.99999999991183 0
0.2032054860804366 29.99999999990364 0
0.2032054860804365 34.99999999991796 0
0.2032054860804366 39.9999999999453 0
0.2032054860804366 44.99999999997265 0
0.2806388625351696 4.99999999998078 0
0.2806388625351696 9.999999999957044 0
0.2806388625351696 14.99999999993109 0
0.2806388625351696 19.99999999992 0
0.2806388625351696 24.99999999991183 0
0.2806388625351696 29.99999999990364 0
0.2806388625351696 34.99999999991795 0
0.2806388625351696 39.99999999994531 0
0.2806388625351696 44.99999999997264 0
0.3816094713580647 4.99999999998078 0
0.3816094713580648 9.999999999957042 0
0.3816094713580647 14.9999999999311 0
0.3816094713580648 19.99999999992 0
0.3816094713580647 24.99999999991182 0
0.3816094713580648 29.99999999990364 0
0.3816094713580648 34.99999999991795 0
0.3816094713580648 39.9999999999453 0
0.3816094713580648 44.99999999997264 0
0.5116743447756443 4.99999999998078 0
0.5116743447756442 9.999999999957042 0
0.5116743447756442 14.99999999993109 0
0.5116743447756443 19.99999999992 0
0.5116743447756442 24.99999999991182 0
0.5116743447756442 29.99999999990365 0
0.5116743447756442 34.99999999991795 0
0.5116743447756442 39.9999999999453 0
0.5116743447756442 44.99999999997265 0
0.6766073791630339 4.999999999980781 0
0.676607379163034 9.999999999957042 0
0.6766073791630342 14.9999999999311 0
0.676607379163034 19.99999999992 0
0.6766073791630338 24.99999999991182 0
0.6766073791630339 29.99999999990364 0
0.6766073791630343 34.99999999991795 0
0.676607379163034 39.9999999999453 0
0.676607379163034 44.99999999997266 0
0.881642525836157 4.99999999998078 0
0.881642525836157 9.999999999957042 0
0.8816425258361569 14.99999999993109 0
0.8816425258361569 19.99999999992 0
0.881642525836157 24.99999999991183 0
0.8816425258361569 29.99999999990366 0
0.8816425258361571 34.99999999991795 0
0.8816425258361569 39.9999999999453 0
0.8816425258361571 44.99999999997265 0
1.130327820720543 4.99999999998078 0
1.130327820720542 9.999999999957042 0
1.130327820720542 14.99999999993109 0
1.130327820720542 19.99999999992 0
1.130327820720543 24.99999999991183 0
1.130327820720542 29.99999999990364 0
1.130327820720542 34.99999999991795 0
1.130327820720543 39.9999999999453 0
1.130327820720542 44.99999999997264 0
1.42309932170316 4.99999999998078 0
1.423099321703159 9.999999999957044 0
1.423099321703159 14.9999999999311 0
1.42309932170316 19.99999999992 0
1.42309932170316 24.99999999991183 0
1.42309932170316 29.99999999990364 0
1.42309932170316 34.99999999991795 0
1.42309932170316 39.9999999999453 0
1.42309932170316 44.99999999997265 0
1.75591963395734 4.99999999998078 0
1.75591963395734 9.999999999957044 0
1.75591963395734 14.99999999993109 0
1.75591963395734 19.99999999992 0
1.75591963395734 24.99999999991182 0
1.755919633957339 29.99999999990365 0
1.75591963395734 34.99999999991795 0
1.755919633957339 39.9999999999453 0
1.75591963395734 44.99999999997266 0
2.11954558885037 4.99999999998078 0
2.119545588850369 9.999999999957041 0
2.119545588850369 14.99999999993109 0
2.119545588850369 19.99999999992 0
2.11954558885037 24.99999999991182 0
2.119545588850369 29.99999999990364 0
2.119545588850369 34.99999999991796 0
2.119545588850371 39.9999999999453 0
2.11954558885037 44.99999999997266 0
2.499999999988465 4.99999999998078 0
2.499999999988465 9.999999999957044 0
2.499999999988466 14.99999999993109 0
2.499999999988466 19.99999999992 0
2.499999999988465 24.99999999991182 0
2.499999999988466 29.99999999990364 0
2.499999999988465 34.99999999991795 0
2.499999999988466 39.9999999999453 0
2.499999999988465 44.99999999997265 0
2.880454411129167 4.99999999998078 0
2.880454411129168 9.999999999957042 0
2.880454411129167 14.99999999993109 0
2.880454411129167 19.99999999992 0
2.880454411129168 24.99999999991182 0
2.880454411129167 29.99999999990365 0
2.880454411129167 34.99999999991795 0
2.880454411129167 39.9999999999453 0
2.880454411129167 44.99999999997264 0
3.244080366025484 4.99999999998078 0
3.244080366025484 9.999999999957044 0
3.244080366025484 14.99999999993109 0
3.244080366025484 19.99999999992 0
3.244080366025484 24.99999999991182 0
3.244080366025484 29.99999999990365 0
3.244080366025484 34.99999999991796 0
3.244080366025484 39.9999999999453 0
3.244080366025484 44.99999999997264 0
3.576900678283189 4.99999999998078 0
3.576900678283189 9.999999999957044 0
3.57690067828319 14.9999999999311 0
3.576900678283191 19.99999999992 0
3.57690067828319 24.99999999991183 0
3.57690067828319 29.99999999990365 0
3.57690067828319 34.99999999991795 0
3.576900678283192 39.9999999999453 0
3.57690067828319 44.99999999997264 0
3.869672179269178 4.99999999998078 0
3.869672179269178 9.999999999957042 0
3.869672179269177 14.99999999993109 0
3.869672179269179 19.99999999992 0
3.869672179269178 24.99999999991183 0
3.869672179269178 29.99999999990365 0
3.869672179269177 34.99999999991795 0
3.869672179269178 39.9999999999453 0
3.869672179269178 44.99999999997267 0
4.118357474156515 4.99999999998078 0
4.118357474156515 9.999999999957042 0
4.118357474156514 14.99999999993109 0
4.118357474156515 19.99999999992 0
4.118357474156515 24.99999999991182 0
4.118357474156515 29.99999999990365 0
4.118357474156514 34.99999999991795 0
4.118357474156515 39.9999999999453 0
4.118357474156515 44.99999999997264 0
4.323392620831999 4.99999999998078 0
4.323392620831998 9.999999999957048 0
4.323392620831999 14.99999999993109 0
4.323392620831998 19.99999999992 0
4.323392620831998 24.99999999991182 0
4.323392620831998 29.99999999990365 0
4.323392620831998 34.99999999991795 0
4.323392620831998 39.9999999999453 0
4.323392620831998 44.99999999997265 0
4.488325655221014 4.99999999998078 0
4.488325655221015 9.999999999957042 0
4.488325655221014 14.99999999993109 0
4.488325655221015 19.99999999992 0
4.488325655221014 24.99999999991182 0
4.488325655221015 29.99999999990365 0
4.488325655221017 34.99999999991796 0
4.488325655221015 39.9999999999453 0
4.488325655221014 44.99999999997264 0
4.618390528639813 4.999999999980781 0
4.618390528639811 9.999999999957044 0
4.618390528639813 14.9999999999311 0
4.618390528639813 19.99999999992 0
4.618390528639812 24.99999999991183 0
4.618390528639812 29.99999999990365 0
4.618390528639812 34.99999999991795 0
4.618390528639813 39.99999999994531 0
4.618390528639813 44.99999999997266 0
4.719361137463622 4.999999999980781 0
4.719361137463622 9.999999999957042 0
4.719361137463621 14.99999999993109 0
4.719361137463622 19.99999999992 0
4.719361137463621 24.99999999991182 0
4.719361137463622 29.99999999990365 0
4.719361137463623 34.99999999991795 0
4.719361137463622 39.9999999999453 0
4.719361137463622 44.99999999997266 0
4.796794513918957 4.999999999980781 0
4.796794513918957 9.999999999957042 0
4.796794513918956 14.99999999993109 0
4.796794513918957 19.99999999992 0
4.796794513918957 24.99999999991182 0
4.796794513918957 29.99999999990366 0
4.796794513918957 34.99999999991796 0
4.796794513918957 39.99999999994531 0
4.796794513918957 44.99999999997265 0
4.855623316079308 4.999999999980781 0
4.855623316079307 9.999999999957042 0
4.855623316079309 14.9999999999311 0
4.855623316079307 19.99999999992 0
4.855623316079307 24.99999999991182 0
4.855623316079307 29.99999999990365 0
4.855623316079307 34.99999999991797 0
4.855623316079308 39.9999999999453 0
4.855623316079307 44.99999999997265 0
2 3 0 0
2 4 0 0
2 5 0 207
424
425
426
427
428
429
430
431
432
433
434
435
436
437
438
439
440
441
442
443
444
445
446
447
448
449
450
451
452
453
454
455
456
457
458
459
460
461
462
463
464
465
466
467
468
469
470
471
472
473
474
475
476
477
478
479
480
481
482
483
484
485
486
487
488
489
490
491
492
493
494
495
496
497
498
499
500
501
502
503
504
505
506
507
508
509
510
511
512
513
514
515
516
517
518
519
520
521
522
523
524
525
526
527
528
529
530
531
532
533
534
535
536
537
538
539
540
541
542
543
544
545
546
547
548
549
550
551
552
553
554
555
556
557
558
559
560
561
562
563
564
565
566
567
568
569
570
571
572
573
574
575
576
577
578
579
580
581
582
583
584
585
586
587
588
589
590
591
592
593
594
595
596
597
598
599
600
601
602
603
604
605
606
607
608
609
610
611
612
613
614
615
616
617
618
619
620
621
622
623
624
625
626
627
628
629
630
0.1443766839204601 54.99999999994839 0
0.1443766839204601 59.99999999989678 0
0.1443766839204601 64.99999999984517 0
0.1443766839204601 69.99999999979357 0
0.1443766839204601 74.99999999974196 0
0.1443766839204601 79.99999999969032 0
0.1443766839204601 84.99999999972862 0
0.1443766839204601 89.99999999981907 0
0.1443766839204601 94.99999999990953 0
0.2032054860804365 54.99999999994839 0
0.2032054860804366 59.99999999989679 0
0.2032054860804365 64.99999999984517 0
0.2032054860804366 69.99999999979357 0
0.2032054860804365 74.99999999974196 0
0.2032054860804365 79.99999999969032 0
0.2032054860804366 84.9999999997286 0
0.2032054860804365 89.99999999981907 0
0.2032054860804365 94.99999999990953 0
0.2806388625351697 54.99999999994839 0
0.2806388625351695 59.99999999989678 0
0.2806388625351695 64.99999999984517 0
0.2806388625351696 69.99999999979357 0
0.2806388625351696 74.99999999974196 0
0.2806388625351696 79.99999999969032 0
0.2806388625351696 84.99999999972862 0
0.2806388625351696 89.99999999981907 0
0.2806388625351696 94.99999999990955 0
0.3816094713580647 54.99999999994837 0
0.3816094713580648 59.99999999989679 0
0.3816094713580648 64.99999999984517 0
0.3816094713580648 69.99999999979357 0
0.3816094713580648 74.99999999974196 0
0.3816094713580648 79.99999999969032 0
0.3816094713580647 84.9999999997286 0
0.3816094713580648 89.99999999981907 0
0.3816094713580648 94.99999999990953 0
0.5116743447756442 54.99999999994839 0
0.5116743447756442 59.99999999989678 0
0.5116743447756442 64.99999999984517 0
0.5116743447756443 69.99999999979357 0
0.5116743447756442 74.99999999974196 0
0.5116743447756442 79.99999999969032 0
0.5116743447756443 84.9999999997286 0
0.5116743447756442 89.99999999981905 0
0.5116743447756442 94.99999999990953 0
0.6766073791630343 54.99999999994838 0
0.6766073791630343 59.99999999989678 0
0.6766073791630342 64.99999999984516 0
0.6766073791630342 69.99999999979357 0
0.676607379163034 74.99999999974196 0
0.676607379163034 79.99999999969032 0
0.6766073791630343 84.99999999972859 0
0.6766073791630339 89.99999999981907 0
0.676607379163034 94.99999999990953 0
0.8816425258361569 54.99999999994839 0
0.8816425258361571 59.99999999989679 0
0.881642525836157 64.99999999984517 0
0.881642525836157 69.99999999979357 0
0.881642525836157 74.99999999974196 0
0.881642525836157 79.99999999969032 0
0.881642525836157 84.9999999997286 0
0.881642525836157 89.99999999981907 0
0.8816425258361569 94.99999999990952 0
1.130327820720542 54.99999999994838 0
1.130327820720542 59.99999999989678 0
1.130327820720542 64.99999999984517 0
1.130327820720543 69.99999999979357 0
1.130327820720542 74.99999999974196 0
1.130327820720542 79.99999999969032 0
1.130327820720542 84.9999999997286 0
1.130327820720542 89.99999999981907 0
1.130327820720542 94.99999999990952 0
1.42309932170316 54.99999999994839 0
1.42309932170316 59.99999999989679 0
1.42309932170316 64.99999999984517 0
1.423099321703159 69.99999999979357 0
1.42309932170316 74.99999999974196 0
1.42309932170316 79.99999999969032 0
1.42309932170316 84.9999999997286 0
1.42309932170316 89.99999999981907 0
1.42309932170316 94.99999999990953 0
1.75591963395734 54.99999999994838 0
1.75591963395734 59.99999999989679 0
1.75591963395734 64.99999999984517 0
1.755919633957339 69.99999999979357 0
1.755919633957339 74.99999999974196 0
1.755919633957339 79.99999999969032 0
1.75591963395734 84.9999999997286 0
1.75591963395734 89.99999999981907 0
1.75591963395734 94.99999999990953 0
2.11954558885037 54.99999999994839 0
2.119545588850371 59.99999999989679 0
2.11954558885037 64.99999999984514 0
2.119545588850369 69.99999999979357 0
2.119545588850369 74.99999999974196 0
2.11954558885037 79.99999999969032 0
2.119545588850369 84.9999999997286 0
2.11954558885037 89.99999999981907 0
2.119545588850371 94.99999999990953 0
2.499999999988466 54.99999999994839 0
2.499999999988466 59.99999999989678 0
2.499999999988466 64.99999999984517 0
2.499999999988465 69.99999999979357 0
2.499999999988465 74.99999999974196 0
2.499999999988465 79.99999999969032 0
2.499999999988465 84.9999999997286 0
2.499999999988465 89.99999999981907 0
2.499999999988465 94.99999999990953 0
2.880454411129167 54.99999999994839 0
2.880454411129167 59.99999999989678 0
2.880454411129167 64.99999999984517 0
2.880454411129167 69.99999999979357 0
2.880454411129167 74.99999999974196 0
2.880454411129167 79.99999999969032 0
2.880454411129167 84.9999999997286 0
2.880454411129167 89.99999999981907 0
2.880454411129168 94.99999999990953 0
3.244080366025484 54.99999999994839 0
3.244080366025484 59.99999999989678 0
3.244080366025484 64.99999999984517 0
3.244080366025484 69.99999999979357 0
3.244080366025484 74.99999999974196 0
3.244080366025484 79.99999999969032 0
3.244080366025484 84.9999999997286 0
3.244080366025484 89.99999999981907 0
3.244080366025484 94.99999999990953 0
3.57690067828319 54.99999999994839 0
3.57690067828319 59.99999999989678 0
3.57690067828319 64.99999999984517 0
3.576900678283189 69.99999999979357 0
3.576900678283189 74.99999999974196 0
3.576900678283191 79.99999999969032 0
3.57690067828319 84.9999999997286 0
3.57690067828319 89.99999999981907 0
3.576900678283189 94.99999999990953 0
3.869672179269178 54.99999999994839 0
3.869672179269178 59.99999999989678 0
3.869672179269178 64.99999999984517 0
3.869672179269178 69.99999999979357 0
3.869672179269178 74.99999999974196 0
3.869672179269178 79.99999999969032 0
3.869672179269179 84.9999999997286 0
3.869672179269179 89.99999999981907 0
3.869672179269179 94.99999999990952 0
4.118357474156515 54.99999999994839 0
4.118357474156515 59.99999999989678 0
4.118357474156515 64.99999999984517 0
4.118357474156515 69.99999999979357 0
4.118357474156515 74.99999999974196 0
4.118357474156515 79.9999999996903 0
4.118357474156515 84.99999999972862 0
4.118357474156514 89.99999999981905 0
4.118357474156515 94.99999999990953 0
4.323392620831999 54.99999999994839 0
4.323392620831998 59.99999999989677 0
4.323392620831998 64.99999999984517 0
4.323392620831998 69.99999999979357 0
4.323392620831999 74.99999999974196 0
4.323392620831998 79.99999999969032 0
4.323392620831998 84.99999999972859 0
4.323392620831998 89.99999999981905 0
4.323392620831999 94.99999999990953 0
4.488325655221016 54.99999999994838 0
4.488325655221014 59.99999999989677 0
4.488325655221017 64.99999999984517 0
4.488325655221015 69.99999999979357 0
4.488325655221014 74.99999999974196 0
4.488325655221015 79.99999999969032 0
4.488325655221014 84.9999999997286 0
4.488325655221014 89.99999999981905 0
4.488325655221015 94.99999999990953 0
4.618390528639812 54.99999999994839 0
4.618390528639812 59.99999999989679 0
4.618390528639812 64.99999999984517 0
4.618390528639812 69.99999999979357 0
4.618390528639811 74.99999999974196 0
4.618390528639812 79.99999999969032 0
4.618390528639812 84.9999999997286 0
4.618390528639812 89.99999999981905 0
4.618390528639812 94.99999999990953 0
4.719361137463621 54.99999999994838 0
4.719361137463622 59.99999999989679 0
4.719361137463622 64.99999999984517 0
4.719361137463622 69.99999999979356 0
4.719361137463621 74.99999999974196 0
4.719361137463622 79.99999999969032 0
4.719361137463622 84.99999999972859 0
4.719361137463621 89.99999999981907 0
4.719361137463623 94.99999999990953 0
4.796794513918957 54.99999999994839 0
4.796794513918957 59.99999999989678 0
4.796794513918957 64.99999999984517 0
4.796794513918956 69.99999999979357 0
4.796794513918957 74.99999999974196 0
4.796794513918956 79.99999999969032 0
4.796794513918957 84.9999999997286 0
4.796794513918957 89.99999999981907 0
4.796794513918957 94.99999999990953 0
4.855623316079309 54.99999999994839 0
4.85562331607931 59.99999999989679 0
4.855623316079308 64.99999999984516 0
4.855623316079309 69.99999999979357 0
4.855623316079307 74.99999999974196 0
4.855623316079307 79.9999999996903 0
4.855623316079307 84.99999999972859 0
4.855623316079307 89.99999999981905 0
4.855623316079307 94.99999999990953 0
2 6 0 0
2 7 0 0
2 8 0 207
631
632
633
634
635
636
637
638
639
640
641
642
643
644
645
646
647
648
649
650
651
652
653
654
655
656
657
658
659
660
661
662
663
664
665
666
667
668
669
670
671
672
673
674
675
676
677
678
679
680
681
682
683
684
685
686
687
688
689
690
691
692
693
694
695
696
697
698
699
700
701
702
703
704
705
706
707
708
709
710
711
712
713
714
715
716
717
718
719
720
721
722
723
724
725
726
727
728
729
730
731
732
733
734
735
736
737
738
739
740
741
742
743
744
745
746
747
748
749
750
751
752
753
754
755
756
757
758
759
760
761
762
763
764
765
766
767
768
769
770
771
772
773
774
775
776
777
778
779
780
781
782
783
784
785
786
787
788
789
790
791
792
793
794
795
796
797
798
799
800
801
802
803
804
805
806
807
808
809
810
811
812
813
814
815
816
817
818
819
820
821
822
823
824
825
826
827
828
829
830
831
832
833
834
835
836
837
0.1443766839204602 104.9999999999373 0
0.14437668392046 109.9999999998745 0
0.1443766839204601 114.9999999998119 0
0.1443766839204601 119.9999999997491 0
0.1443766839204601 124.9999999996864 0
0.1443766839204601 129.9999999996825 0
0.1443766839204601 134.9999999997619 0
0.1443766839204601 139.9999999998412 0
0.1443766839204601 144.9999999999206 0
0.2032054860804366 104.9999999999373 0
0.2032054860804366 109.9999999998746 0
0.2032054860804365 114.9999999998119 0
0.2032054860804365 119.9999999997491 0
0.2032054860804366 124.9999999996864 0
0.2032054860804366 129.9999999996825 0
0.2032054860804365 134.9999999997619 0
0.2032054860804365 139.9999999998412 0
0.2032054860804365 144.9999999999206 0
0.2806388625351695 104.9999999999373 0
0.2806388625351696 109.9999999998746 0
0.2806388625351696 114.9999999998118 0
0.2806388625351696 119.9999999997491 0
0.2806388625351696 124.9999999996864 0
0.2806388625351696 129.9999999996825 0
0.2806388625351696 134.9999999997619 0
0.2806388625351696 139.9999999998412 0
0.2806388625351696 144.9999999999206 0
0.3816094713580647 104.9999999999373 0
0.3816094713580647 109.9999999998746 0
0.3816094713580648 114.9999999998118 0
0.3816094713580647 119.9999999997491 0
0.3816094713580648 124.9999999996864 0
0.3816094713580648 129.9999999996825 0
0.3816094713580648 134.9999999997619 0
0.3816094713580648 139.9999999998412 0
0.3816094713580647 144.9999999999206 0
0.5116743447756442 104.9999999999373 0
0.5116743447756443 109.9999999998746 0
0.5116743447756442 114.9999999998118 0
0.5116743447756442 119.9999999997491 0
0.5116743447756442 124.9999999996864 0
0.5116743447756442 129.9999999996825 0
0.5116743447756442 134.9999999997619 0
0.5116743447756442 139.9999999998412 0
0.5116743447756442 144.9999999999207 0
0.6766073791630343 104.9999999999373 0
0.676607379163034 109.9999999998746 0
0.6766073791630339 114.9999999998118 0
0.6766073791630342 119.9999999997491 0
0.676607379163034 124.9999999996864 0
0.6766073791630342 129.9999999996825 0
0.676607379163034 134.9999999997619 0
0.676607379163034 139.9999999998412 0
0.6766073791630339 144.9999999999206 0
0.8816425258361569 104.9999999999372 0
0.8816425258361569 109.9999999998746 0
0.881642525836157 114.9999999998118 0
0.8816425258361569 119.9999999997491 0
0.881642525836157 124.9999999996864 0
0.881642525836157 129.9999999996825 0
0.881642525836157 134.9999999997619 0
0.881642525836157 139.9999999998412 0
0.8816425258361569 144.9999999999206 0
1.130327820720543 104.9999999999373 0
1.130327820720542 109.9999999998746 0
1.130327820720543 114.9999999998118 0
1.130327820720542 119.9999999997491 0
1.130327820720542 124.9999999996864 0
1.130327820720542 129.9999999996825 0
1.130327820720543 134.9999999997619 0
1.130327820720543 139.9999999998412 0
1.130327820720543 144.9999999999206 0
1.42309932170316 104.9999999999373 0
1.42309932170316 109.9999999998746 0
1.42309932170316 114.9999999998118 0
1.42309932170316 119.9999999997491 0
1.423099321703159 124.9999999996864 0
1.423099321703159 129.9999999996825 0
1.42309932170316 134.9999999997619 0
1.42309932170316 139.9999999998412 0
1.42309932170316 144.9999999999206 0
1.75591963395734 104.9999999999373 0
1.75591963395734 109.9999999998746 0
1.75591963395734 114.9999999998118 0
1.75591963395734 119.9999999997491 0
1.755919633957339 124.9999999996864 0
1.75591963395734 129.9999999996825 0
1.75591963395734 134.9999999997619 0
1.75591963395734 139.9999999998412 0
1.75591963395734 144.9999999999206 0
2.11954558885037 104.9999999999373 0
2.119545588850369 109.9999999998746 0
2.119545588850371 114.9999999998119 0
2.119545588850369 119.9999999997491 0
2.119545588850371 124.9999999996864 0
2.11954558885037 129.9999999996825 0
2.11954558885037 134.9999999997619 0
2.119545588850369 139.9999999998412 0
2.119545588850371 144.9999999999206 0
2.499999999988466 104.9999999999373 0
2.499999999988466 109.9999999998746 0
2.499999999988466 114.9999999998118 0
2.499999999988466 119.9999999997491 0
2.499999999988465 124.9999999996864 0
2.499999999988465 129.9999999996825 0
2.499999999988465 134.9999999997619 0
2.499999999988466 139.9999999998412 0
2.499999999988465 144.9999999999206 0
2.880454411129167 104.9999999999373 0
2.880454411129167 109.9999999998746 0
2.880454411129167 114.9999999998118 0
2.880454411129167 119.9999999997491 0
2.880454411129167 124.9999999996864 0
2.880454411129167 129.9999999996825 0
2.880454411129168 134.9999999997619 0
2.880454411129167 139.9999999998412 0
2.880454411129167 144.9999999999206 0
3.244080366025485 104.9999999999373 0
3.244080366025483 109.9999999998746 0
3.244080366025484 114.9999999998119 0
3.244080366025484 119.9999999997491 0
3.244080366025484 124.9999999996863 0
3.244080366025484 129.9999999996825 0
3.244080366025484 134.9999999997619 0
3.244080366025484 139.9999999998412 0
3.244080366025484 144.9999999999206 0
3.576900678283191 104.9999999999373 0
3.576900678283189 109.9999999998746 0
3.57690067828319 114.9999999998118 0
3.57690067828319 119.9999999997491 0
3.576900678283191 124.9999999996864 0
3.576900678283191 129.9999999996825 0
3.576900678283189 134.9999999997619 0
3.576900678283192 139.9999999998412 0
3.57690067828319 144.9999999999206 0
3.869672179269179 104.9999999999373 0
3.869672179269178 109.9999999998746 0
3.869672179269177 114.9999999998118 0
3.869672179269179 119.9999999997491 0
3.869672179269178 124.9999999996864 0
3.869672179269178 129.9999999996825 0
3.869672179269178 134.9999999997619 0
3.869672179269178 139.9999999998412 0
3.869672179269179 144.9999999999206 0
4.118357474156515 104.9999999999373 0
4.118357474156515 109.9999999998746 0
4.118357474156515 114.9999999998118 0
4.118357474156515 119.9999999997491 0
4.118357474156515 124.9999999996864 0
4.118357474156515 129.9999999996825 0
4.118357474156515 134.9999999997619 0
4.118357474156515 139.9999999998412 0
4.118357474156515 144.9999999999206 0
4.323392620831999 104.9999999999373 0
4.323392620831998 109.9999999998746 0
4.323392620831998 114.9999999998118 0
4.323392620831998 119.9999999997491 0
4.323392620831999 124.9999999996864 0
4.323392620831999 129.9999999996825 0
4.323392620831999 134.9999999997619 0
4.323392620831998 139.9999999998412 0
4.323392620831999 144.9999999999206 0
4.488325655221014 104.9999999999373 0
4.488325655221014 109.9999999998746 0
4.488325655221013 114.9999999998119 0
4.488325655221013 119.9999999997491 0
4.488325655221015 124.9999999996863 0
4.488325655221014 129.9999999996825 0
4.488325655221014 134.9999999997619 0
4.488325655221014 139.9999999998412 0
4.488325655221013 144.9999999999206 0
4.618390528639813 104.9999999999373 0
4.618390528639812 109.9999999998746 0
4.618390528639813 114.9999999998118 0
4.618390528639812 119.9999999997491 0
4.618390528639811 124.9999999996864 0
4.618390528639812 129.9999999996825 0
4.618390528639812 134.9999999997619 0
4.618390528639812 139.9999999998412 0
4.618390528639813 144.9999999999206 0
4.71936113746362 104.9999999999373 0
4.719361137463622 109.9999999998746 0
4.719361137463622 114.9999999998118 0
4.719361137463622 119.9999999997491 0
4.719361137463622 124.9999999996864 0
4.719361137463622 129.9999999996825 0
4.719361137463622 134.9999999997619 0
4.719361137463622 139.9999999998412 0
4.719361137463622 144.9999999999206 0
4.796794513918956 104.9999999999373 0
4.796794513918955 109.9999999998746 0
4.796794513918956 114.9999999998118 0
4.796794513918956 119.9999999997491 0
4.796794513918956 124.9999999996864 0
4.796794513918957 129.9999999996825 0
4.796794513918957 134.9999999997619 0
4.796794513918956 139.9999999998412 0
4.796794513918957 144.9999999999206 0
4.855623316079307 104.9999999999373 0
4.855623316079309 109.9999999998746 0
4.855623316079309 114.9999999998118 0
4.855623316079308 119.9999999997491 0
4.855623316079308 124.9999999996864 0
4.855623316079309 129.9999999996825 0
4.855623316079309 134.9999999997619 0
4.85562331607931 139.9999999998412 0
4.855623316079307 144.9999999999206 0
2 9 0 0
$EndNodes
$Elements
21 892 1 892
1 1 1 1
1 1 2 
1 2 1 24
2 2 17 
3 17 18 
4 18 19 
5 19 20 
6 20 21 
7 21 22 
8 22 23 
9 23 24 
10 24 25 
11 25 26 
12 26 27 
13 27 28 
14 28 29 
15 29 30 
16 30 31 
17 31 32 
18 32 33 
19 33 34 
20 34 35 
21 35 36 
22 36 37 
23 37 38 
24 38 39 
25 39 3 
1 3 1 1
26 3 4 
1 10 1 1
27 13 14 
1 11 1 24
28 14 86 
29 86 87 
30 87 88 
31 88 89 
32 89 90 
33 90 91 
34 91 92 
35 92 93 
36 93 94 
37 94 95 
38 95 96 
39 96 97 
40 97 98 
41 98 99 
42 99 100 
43 100 101 
44 101 102 
45 102 103 
46 103 104 
47 104 105 
48 105 106 
49 106 107 
50 107 108 
51 108 15 
1 12 1 1
52 15 16 
1 13 1 10
53 1 109 
54 109 110 
55 110 111 
56 111 112 
57 112 113 
58 113 114 
59 114 115 
60 115 116 
61 116 117 
62 117 5 
1 14 1 10
63 5 118 
64 118 119 
65 119 120 
66 120 121 
67 121 122 
68 122 123 
69 123 124 
70 124 125 
71 125 126 
72 126 9 
1 15 1 10
73 9 127 
74 127 128 
75 128 129 
76 129 130 
77 130 131 
78 131 132 
79 132 133 
80 133 134 
81 134 135 
82 135 13 
1 22 1 10
83 4 190 
84 190 191 
85 191 192 
86 192 193 
87 193 194 
88 194 195 
89 195 196 
90 196 197 
91 197 198 
92 198 8 
1 23 1 10
93 8 199 
94 199 200 
95 200 201 
96 201 202 
97 202 203 
98 203 204 
99 204 205 
100 205 206 
101 206 207 
102 207 12 
1 24 1 10
103 12 208 
104 208 209 
105 209 210 
106 210 211 
107 211 212 
108 212 213 
109 213 214 
110 214 215 
111 215 216 
112 216 16 
2 1 3 10
113 1 2 136 109 
114 109 136 137 110 
115 110 137 138 111 
116 111 138 139 112 
117 112 139 140 113 
118 113 140 141 114 
119 114 141 142 115 
120 115 142 143 116 
121 116 143 144 117 
122 117 144 6 5 
2 2 3 240
123 2 17 217 136 
124 136 217 218 137 
125 137 218 219 138 
126 138 219 220 139 
127 139 220 221 140 
128 140 221 222 141 
129 141 222 223 142 
130 142 223 224 143 
131 143 224 225 144 
132 144 225 40 6 
133 17 18 226 217 
134 217 226 227 218 
135 218 227 228 219 
136 219 228 229 220 
137 220 229 230 221 
138 221 230 231 222 
139 222 231 232 223 
140 223 232 233 224 
141 224 233 234 225 
142 225 234 41 40 
143 18 19 235 226 
144 226 235 236 227 
145 227 236 237 228 
146 228 237 238 229 
147 229 238 239 230 
148 230 239 240 231 
149 231 240 241 232 
150 232 241 242 233 
151 233 242 243 234 
152 234 243 42 41 
153 19 20 244 235 
154 235 244 245 236 
155 236 245 246 237 
156 237 246 247 238 
157 238 247 248 239 
158 239 248 249 240 
159 240 249 250 241 
160 241 250 251 242 
161 242 251 252 243 
162 243 252 43 42 
163 20 21 253 244 
164 244 253 254 245 
165 245 254 255 246 
166 246 255 256 247 
167 247 256 257 248 
168 248 257 258 249 
169 249 258 259 250 
170 250 259 260 251 
171 251 260 261 252 
172 252 261 44 43 
173 21 22 262 253 
174 253 262 263 254 
175 254 263 264 255 
176 255 264 265 256 
177 256 265 266 257 
178 257 266 267 258 
179 258 267 268 259 
180 259 268 269 260 
181 260 269 270 261 
182 261 270 45 44 
183 22 23 271 262 
184 262 271 272 263 
185 263 272 273 264 
186 264 273 274 265 
187 265 274 275 266 
188 266 275 276 267 
189 267 276 277 268 
190 268 277 278 269 
191 269 278 279 270 
192 270 279 46 45 
193 23 24 280 271 
194 271 280 281 272 
195 272 281 282 273 
196 273 282 283 274 
197 274 283 284 275 
198 275 284 285 276 
199 276 285 286 277 
200 277 286 287 278 
201 278 287 288 279 
202 279 288 47 46 
203 24 25 289 280 
204 280 289 290 281 
205 281 290 291 282 
206 282 291 292 283 
207 283 292 293 284 
208 284 293 294 285 
209 285 294 295 286 
210 286 295 296 287 
211 287 296 297 288 
212 288 297 48 47 
213 25 26 298 289 
214 289 298 299 290 
215 290 299 300 291 
216 291 300 301 292 
217 292 301 302 293 
218 293 302 303 294 
219 294 303 304 295 
220 295 304 305 296 
221 296 305 306 297 
222 297 306 49 48 
223 26 27 307 298 
224 298 307 308 299 
225 299 308 309 300 
226 300 309 310 301 
227 301 310 311 302 
228 302 311 312 303 
229 303 312 313 304 
230 304 313 314 305 
231 305 314 315 306 
232 306 315 50 49 
233 27 28 316 307 
234 307 316 317 308 
235 308 317 318 309 
236 309 318 319 310 
237 310 319 320 311 
238 311 320 321 312 
239 312 321 322 313 
240 313 322 323 314 
241 314 323 324 315 
242 315 324 51 50 
243 28 29 325 316 
244 316 325 326 317 
245 317 326 327 318 
246 318 327 328 319 
247 319 328 329 320 
248 320 329 330 321 
249 321 330 331 322 
250 322 331 332 323 
251 323 332 333 324 
252 324 333 52 51 
253 29 30 334 325 
254 325 334 335 326 
255 326 335 336 327 
256 327 336 337 328 
257 328 337 338 329 
258 329 338 339 330 
259 330 339 340 331 
260 331 340 341 332 
261 332 341 342 333 
262 333 342 53 52 
263 30 31 343 334 
264 334 343 344 335 
265 335 344 345 336 
266 336 345 346 337 
267 337 346 347 338 
268 338 347 348 339 
269 339 348 349 340 
270 340 349 350 341 
271 341 350 351 342 
272 342 351 54 53 
273 31 32 352 343 
274 343 352 353 344 
275 344 353 354 345 
276 345 354 355 346 
277 346 355 356 347 
278 347 356 357 348 
279 348 357 358 349 
280 349 358 359 350 
281 350 359 360 351 
282 351 360 55 54 
283 32 33 361 352 
284 352 361 362 353 
285 353 362 363 354 
286 354 363 364 355 
287 355 364 365 356 
288 356 365 366 357 
289 357 366 367 358 
290 358 367 368 359 
291 359 368 369 360 
292 360 369 56 55 
293 33 34 370 361 
294 361 370 371 362 
295 362 371 372 363 
296 363 372 373 364 
297 364 373 374 365 
298 365 374 375 366 
299 366 375 376 367 
300 367 376 377 368 
301 368 377 378 369 
302 369 378 57 56 
303 34 35 379 370 
304 370 379 380 371 
305 371 380 381 372 
306 372 381 382 373 
307 373 382 383 374 
308 374 383 384 375 
309 375 384 385 376 
310 376 385 386 377 
311 377 386 387 378 
312 378 387 58 57 
313 35 36 388 379 
314 379 388 389 380 
315 380 389 390 381 
316 381 390 391 382 
317 382 391 392 383 
318 383 392 393 384 
319 384 393 394 385 
320 385 394 395 386 
321 386 395 396 387 
322 387 396 59 58 
323 36 37 397 388 
324 388 397 398 389 
325 389 398 399 390 
326 390 399 400 391 
327 391 400 401 392 
328 392 401 402 393 
329 393 402 403 394 
330 394 403 404 395 
331 395 404 405 396 
332 396 405 60 59 
333 37 38 406 397 
334 397 406 407 398 
335 398 407 408 399 
336 399 408 409 400 
337 400 409 410 401 
338 401 410 411 402 
339 402 411 412 403 
340 403 412 413 404 
341 404 413 414 405 
342 405 414 61 60 
343 38 39 415 406 
344 406 415 416 407 
345 407 416 417 408 
346 408 417 418 409 
347 409 418 419 410 
348 410 419 420 411 
349 411 420 421 412 
350 412 421 422 413 
351 413 422 423 414 
352 414 423 62 61 
353 39 3 163 415 
354 415 163 164 416 
355 416 164 165 417 
356 417 165 166 418 
357 418 166 167 419 
358 419 167 168 420 
359 420 168 169 421 
360 421 169 170 422 
361 422 170 171 423 
362 423 171 7 62 
2 3 3 10
363 3 4 190 163 
364 163 190 191 164 
365 164 191 192 165 
366 165 192 193 166 
367 166 193 194 167 
368 167 194 195 168 
369 168 195 196 169 
370 169 196 197 170 
371 170 197 198 171 
372 171 198 8 7 
2 4 3 10
373 5 6 145 118 
374 118 145 146 119 
375 119 146 147 120 
376 120 147 148 121 
377 121 148 149 122 
378 122 149 150 123 
379 123 150 151 124 
380 124 151 152 125 
381 125 152 153 126 
382 126 153 10 9 
2 5 3 240
383 6 40 424 145 
384 145 424 425 146 
385 146 425 426 147 
386 147 426 427 148 
387 148 427 428 149 
388 149 428 429 150 
389 150 429 430 151 
390 151 430 431 152 
391 152 431 432 153 
392 153 432 63 10 
393 40 41 433 424 
394 424 433 434 425 
395 425 434 435 426 
396 426 435 436 427 
397 427 436 437 428 
398 428 437 438 429 
399 429 438 439 430 
400 430 439 440 431 
401 431 440 441 432 
402 432 441 64 63 
403 41 42 442 433 
404 433 442 443 434 
405 434 443 444 435 
406 435 444 445 436 
407 436 445 446 437 
408 437 446 447 438 
409 438 447 448 439 
410 439 448 449 440 
411 440 449 450 441 
412 441 450 65 64 
413 42 43 451 442 
414 442 451 452 443 
415 443 452 453 444 
416 444 453 454 445 
417 445 454 455 446 
418 446 455 456 447 
419 447 456 457 448 
420 448 457 458 449 
421 449 458 459 450 
422 450 459 66 65 
423 43 44 460 451 
424 451 460 461 452 
425 452 461 462 453 
426 453 462 463 454 
427 454 463 464 455 
428 455 464 465 456 
429 456 465 466 457 
430 457 466 467 458 
431 458 467 468 459 
432 459 468 67 66 
433 44 45 469 460 
434 460 469 470 461 
435 461 470 471 462 
436 462 471 472 463 
437 463 472 473 464 
438 464 473 474 465 
439 465 474 475 466 
440 466 475 476 467 
441 467 476 477 468 
442 468 477 68 67 
443 45 46 478 469 
444 469 478 479 470 
445 470 479 480 471 
446 471 480 481 472 
447 472 481 482 473 
448 473 482 483 474 
449 474 483 484 475 
450 475 484 485 476 
451 476 485 486 477 
452 477 486 69 68 
453 46 47 487 478 
454 478 487 488 479 
455 479 488 489 480 
456 480 489 490 481 
457 481 490 491 482 
458 482 491 492 483 
459 483 492 493 484 
460 484 493 494 485 
461 485 494 495 486 
462 486 495 70 69 
463 47 48 496 487 
464 487 496 497 488 
465 488 497 498 489 
466 489 498 499 490 
467 490 499 500 491 
468 491 500 501 492 
469 492 501 502 493 
470 493 502 503 494 
471 494 503 504 495 
472 495 504 71 70 
473 48 49 505 496 
474 496 505 506 497 
475 497 506 507 498 
476 498 507 508 499 
477 499 508 509 500 
478 500 509 510 501 
479 501 510 511 502 
480 502 511 512 503 
481 503 512 513 504 
482 504 513 72 71 
483 49 50 514 505 
484 505 514 515 506 
485 506 515 516 507 
486 507 516 517 508 
487 508 517 518 509 
488 509 518 519 510 
489 510 519 520 511 
490 511 520 521 512 
491 512 521 522 513 
492 513 522 73 72 
493 50 51 523 514 
494 514 523 524 515 
495 515 524 525 516 
496 516 525 526 517 
497 517 526 527 518 
498 518 527 528 519 
499 519 528 529 520 
500 520 529 530 521 
501 521 530 531 522 
502 522 531 74 73 
503 51 52 532 523 
504 523 532 533 524 
505 524 533 534 525 
506 525 534 535 526 
507 526 535 536 527 
508 527 536 537 528 
509 528 537 538 529 
510 529 538 539 530 
511 530 539 540 531 
512 531 540 75 74 
513 52 53 541 532 
514 532 541 542 533 
515 533 542 543 534 
516 534 543 544 535 
517 535 544 545 536 
518 536 545 546 537 
519 537 546 547 538 
520 538 547 548 539 
521 539 548 549 540 
522 540 549 76 75 
523 53 54 550 541 
524 541 550 551 542 
525 542 551 552 543 
526 543 552 553 544 
527 544 553 554 545 
528 545 554 555 546 
529 546 555 556 547 
530 547 556 557 548 
531 548 557 558 549 
532 549 558 77 76 
533 54 55 559 550 
534 550 559 560 551 
535 551 560 561 552 
536 552 561 562 553 
537 553 562 563 554 
538 554 563 564 555 
539 555 564 565 556 
540 556 565 566 557 
541 557 566 567 558 
542 558 567 78 77 
543 55 56 568 559 
544 559 568 569 560 
545 560 569 570 561 
546 561 570 571 562 
547 562 571 572 563 
548 563 572 573 564 
549 564 573 574 565 
550 565 574 575 566 
551 566 575 576 567 
552 567 576 79 78 
553 56 57 577 568 
554 568 577 578 569 
555 569 578 579 570 
556 570 579 580 571 
557 571 580 581 572 
558 572 581 582 573 
559 573 582 583 574 
560 574 583 584 575 
561 575 584 585 576 
562 576 585 80 79 
563 57 58 586 577 
564 577 586 587 578 
565 578 587 588 579 
566 579 588 589 580 
567 580 589 590 581 
568 581 590 591 582 
569 582 591 592 583 
570 583 592 593 584 
571 584 593 594 585 
572 585 594 81 80 
573 58 59 595 586 
574 586 595 596 587 
575 587 596 597 588 
576 588 597 598 589 
577 589 598 599 590 
578 590 599 600 591 
579 591 600 601 592 
580 592 601 602 593 
581 593 602 603 594 
582 594 603 82 81 
583 59 60 604 595 
584 595 604 605 596 
585 596 605 606 597 
586 597 606 607 598 
587 598 607 608 599 
588 599 608 609 600 
589 600 609 610 601 
590 601 610 611 602 
591 602 611 612 603 
592 603 612 83 82 
593 60 61 613 604 
594 604 613 614 605 
595 605 614 615 606 
596 606 615 616 607 
597 607 616 617 608 
598 608 617 618 609 
599 609 618 619 610 
600 610 619 620 611 
601 611 620 621 612 
602 612 621 84 83 
603 61 62 622 613 
604 613 622 623 614 
605 614 623 624 615 
606 615 624 625 616 
607 616 625 626 617 
608 617 626 627 618 
609 618 627 628 619 
610 619 628 629 620 
611 620 629 630 621 
612 621 630 85 84 
613 62 7 172 622 
614 622 172 173 623 
615 623 173 174 624 
616 624 174 175 625 
617 625 175 176 626 
618 626 176 177 627 
619 627 177 178 628 
620 628 178 179 629 
621 629 179 180 630 
622 630 180 11 85 
2 6 3 10
623 7 8 199 172 
624 172 199 200 173 
625 173 200 201 174 
626 174 201 202 175 
627 175 202 203 176 
628 176 203 204 177 
629 177 204 205 178 
630 178 205 206 179 
631 179 206 207 180 
632 180 207 12 11 
2 7 3 10
633 9 10 154 127 
634 127 154 155 128 
635 128 155 156 129 
636 129 156 157 130 
637 130 157 158 131 
638 131 158 159 132 
639 132 159 160 133 
640 133 160 161 134 
641 134 161 162 135 
642 135 162 14 13 
2 8 3 240
643 10 63 631 154 
644 154 631 632 155 
645 155 632 633 156 
646 156 633 634 157 
647 157 634 635 158 
648 158 635 636 159 
649 159 636 637 160 
650 160 637 638 161 
651 161 638 639 162 
652 162 639 86 14 
653 63 64 640 631 
654 631 640 641 632 
655 632 641 642 633 
656 633 642 643 634 
657 634 643 644 635 
658 635 644 645 636 
659 636 645 646 637 
660 637 646 647 638 
661 638 647 648 639 
662 639 648 87 86 
663 64 65 649 640 
664 640 649 650 641 
665 641 650 651 642 
666 642 651 652 643 
667 643 652 653 644 
668 644 653 654 645 
669 645 654 655 646 
670 646 655 656 647 
671 647 656 657 648 
672 648 657 88 87 
673 65 66 658 649 
674 649 658 659 650 
675 650 659 660 651 
676 651 660 661 652 
677 652 661 662 653 
678 653 662 663 654 
679 654 663 664 655 
680 655 664 665 656 
681 656 665 666 657 
682 657 666 89 88 
683 66 67 667 658 
684 658 667 668 659 
685 659 668 669 660 
686 660 669 670 661 
687 661 670 671 662 
688 662 671 672 663 
689 663 672 673 664 
690 664 673 674 665 
691 665 674 675 666 
692 666 675 90 89 
693 67 68 676 667 
694 667 676 677 668 
695 668 677 678 669 
696 669 678 679 670 
697 670 679 680 671 
698 671 680 681 672 
699 672 681 682 673 
700 673 682 683 674 
701 674 683 684 675 
702 675 684 91 90 
703 68 69 685 676 
704 676 685 686 677 
705 677 686 687 678 
706 678 687 688 679 
707 679 688 689 680 
708 680 689 690 681 
709 681 690 691 682 
710 682 691 692 683 
711 683 692 693 684 
712 684 693 92 91 
713 69 70 694 685 
714 685 694 695 686 
715 686 695 696 687 
716 687 696 697 688 
717 688 697 698 689 
718 689 698 699 690 
719 690 699 700 691 
720 691 700 701 692 
721 692 701 702 693 
722 693 702 93 92 
723 70 71 703 694 
724 694 703 704 695 
725 695 704 705 696 
726 696 705 706 697 
727 697 706 707 698 
728 698 707 708 699 
729 699 708 709 700 
730 700 709 710 701 
731 701 710 711 702 
732 702 711 94 93 
733 71 72 712 703 
734 703 712 713 704 
735 704 713 714 705 
736 705 714 715 706 
737 706 715 716 707 
738 707 716 717 708 
739 708 717 718 709 
740 709 718 719 710 
741 710 719 720 711 
742 711 720 95 94 
743 72 73 721 712 
744 712 721 722 713 
745 713 722 723 714 
746 714 723 724 715 
747 715 724 725 716 
748 716 725 726 717 
749 717 726 727 718 
750 718 727 728 719 
751 719 728 729 720 
752 720 729 96 95 
753 73 74 730 721 
754 721 730 731 722 
755 722 731 732 723 
756 723 732 733 724 
757 724 733 734 725 
758 725 734 735 726 
759 726 735 736 727 
760 727 736 737 728 
761 728 737 738 729 
762 729 738 97 96 
763 74 75 739 730 
764 730 739 740 731 
765 731 740 741 732 
766 732 741 742 733 
767 733 742 743 734 
768 734 743 744 735 
769 735 744 745 736 
770 736 745 746 737 
771 737 746 747 738 
772 738 747 98 97 
773 75 76 748 739 
774 739 748 749 740 
775 740 749 750 741 
776 741 750 751 742 
777 742 751 752 743 
778 743 752 753 744 
779 744 753 754 745 
780 745 754 755 746 
781 746 755 756 747 
782 747 756 99 98 
783 76 77 757 748 
784 748 757 758 749 
785 749 758 759 750 
786 750 759 760 751 
787 751 760 761 752 
788 752 761 762 753 
789 753 762 763 754 
790 754 763 764 755 
791 755 764 765 756 
792 756 765 100 99 
793 77 78 766 757 
794 757 766 767 758 
795 758 767 768 759 
796 759 768 769 760 
797 760 769 770 761 
798 761 770 771 762 
799 762 771 772 763 
800 763 772 773 764 
801 764 773 774 765 
802 765 774 101 100 
803 78 79 775 766 
804 766 775 776 767 
805 767 776 777 768 
806 768 777 778 769 
807 769 778 779 770 
808 770 779 780 771 
809 771 780 781 772 
810 772 781 782 773 
811 773 782 783 774 
812 774 783 102 101 
813 79 80 784 775 
814 775 784 785 776 
815 776 785 786 777 
816 777 786 787 778 
817 778 787 788 779 
818 779 788 789 780 
819 780 789 790 781 
820 781 790 791 782 
821 782 791 792 783 
822 783 792 103 102 
823 80 81 793 784 
824 784 793 794 785 
825 785 794 795 786 
826 786 795 796 787 
827 787 796 797 788 
828 788 797 798 789 
829 789 798 799 790 
830 790 799 800 791 
831 791 800 801 792 
832 792 801 104 103 
833 81 82 802 793 
834 793 802 803 794 
835 794 803 804 795 
836 795 804 805 796 
837 796 805 806 797 
838 797 806 807 798 
839 798 807 808 799 
840 799 808 809 800 
841 800 809 810 801 
842 801 810 105 104 
843 82 83 811 802 
844 802 811 812 803 
845 803 812 813 804 
846 804 813 814 805 
847 805 814 815 806 
848 806 815 816 807 
849 807 816 817 808 
850 808 817 818 809 
851 809 818 819 810 
852 810 819 106 105 
853 83 84 820 811 
854 811 820 821 812 
855 812 821 822 813 
856 813 822 823 814 
857 814 823 824 815 
858 815 824 825 816 
859 816 825 826 817 
860 817 826 827 818 
861 818 827 828 819 
862 819 828 107 106 
863 84 85 829 820 
864 820 829 830 821 
865 821 830 831 822 
866 822 831 832 823 
867 823 832 833 824 
868 824 833 834 825 
869 825 834 835 826 
870 826 835 836 827 
871 827 836 837 828 
872 828 837 108 107 
873 85 11 181 829 
874 829 181 182 830 
875 830 182 183 831 
876 831 183 184 832 
877 832 184 185 833 
878 833 185 186 834 
879 834 186 187 835 
880 835 187 188 836 
881 836 188 189 837 
882 837 189 15 108 
2 9 3 10
883 11 12 208 181 
884 181 208 209 182 
885 182 209 210 183 
886 183 210 211 184 
887 184 211 212 185 
888 185 212 213 186 
889 186 213 214 187 
890 187 214 215 188 
891 188 215 216 189 
892 189 216 16 15 
$EndElements
