$MeshFormat
4.1 0 8
$EndMeshFormat
$PhysicalNames
8
1 3 "inlet"
1 4 "outlet"
1 5 "bottom"
1 6 "top"
1 7 "left"
1 8 "right"
2 1 "fracture"
2 2 "matrix"
$EndPhysicalNames
$Entities
16 24 9 0
1 0 0 0 0 
2 0.1 0 0 0 
3 24.9 0 0 0 
4 25 0 0 0 
5 0 50 0 0 
6 0.1 50 0 0 
7 24.9 50 0 0 
8 25 50 0 0 
9 0 100 0 0 
10 0.1 100 0 0 
11 24.9 100 0 0 
12 25 100 0 0 
13 0 150 0 0 
14 0.1 150 0 0 
15 24.9 150 0 0 
16 25 150 0 0 
1 0 0 0 0.1 0 0 1 3 2 1 -2 
2 0.09999999999999964 0 0 24.9 0 0 1 5 2 2 -3 
3 24.9 0 0 25 0 0 1 5 2 3 -4 
4 0 50 0 0.1 50 0 0 2 5 -6 
5 0.09999999999999964 50 0 24.9 50 0 0 2 6 -7 
6 24.9 50 0 25 50 0 0 2 7 -8 
7 0 100 0 0.1 100 0 0 2 9 -10 
8 0.09999999999999964 100 0 24.9 100 0 0 2 10 -11 
9 24.9 100 0 25 100 0 0 2 11 -12 
10 0 150 0 0.1 150 0 1 6 2 13 -14 
11 0.09999999999999964 150 0 24.9 150 0 1 6 2 14 -15 
12 24.9 150 0 25 150 0 1 4 2 15 -16 
13 0 0 0 0 50 0 1 7 2 1 -5 
14 0 50 0 0 100 0 1 7 2 5 -9 
15 0 100 0 0 150 0 1 7 2 9 -13 
16 0.1 0 0 0.1 50 0 0 2 2 -6 
17 0.1 50 0 0.1 100 0 0 2 6 -10 
18 0.1 100 0 0.1 150 0 0 2 10 -14 
19 24.9 0 0 24.9 50 0 0 2 3 -7 
20 24.9 50 0 24.9 100 0 0 2 7 -11 
21 24.9 100 0 24.9 150 0 0 2 11 -15 
22 25 0 0 25 50 0 1 8 2 4 -8 
23 25 50 0 25 100 0 1 8 2 8 -12 
24 25 100 0 25 150 0 1 8 2 12 -16 
1 0 0 0 0.1 50 0 1 1 4 1 16 -4 -13 
2 0.09999999999999964 0 0 24.9 50 0 1 2 4 2 19 -5 -16 
3 24.9 0 0 25 50 0 1 2 4 3 22 -6 -19 
4 0 50 0 0.1 100 0 1 1 4 4 17 -7 -14 
5 0.09999999999999964 50 0 24.9 100 0 1 2 4 5 20 -8 -17 
6 24.9 50 0 25 100 0 1 1 4 6 23 -9 -20 
7 0 100 0 0.1 150 0 1 2 4 7 18 -10 -15 
8 0.09999999999999964 100 0 24.9 150 0 1 2 4 8 21 -11 -18 
9 24.9 100 0 25 150 0 1 1 4 9 24 -12 -21 
$EndEntities
$Nodes
45 1147 1 1147
0 1 0 1
1
0 0 0
0 2 0 1
2
0.1 0 0
0 3 0 1
3
24.9 0 0
0 4 0 1
4
25 0 0
0 5 0 1
5
0 50 0
0 6 0 1
6
0.1 50 0
0 7 0 1
7
24.9 50 0
0 8 0 1
8
25 50 0
0 9 0 1
9
0 100 0
0 10 0 1
10
0.1 100 0
0 11 0 1
11
24.9 100 0
0 12 0 1
12
25 100 0
0 13 0 1
13
0 150 0
0 14 0 1
14
0.1 150 0
0 15 0 1
15
24.9 150 0
0 16 0 1
16
25 150 0
1 1 0 0
1 2 0 33
17
18
19
20
21
22
23
24
25
26
27
28
29
30
31
32
33
34
35
36
37
38
39
40
41
42
43
44
45
46
47
48
49
0.2061861961603377 0 0
0.3405878702279784 0 0
0.5102606569090705 0 0
0.7237592509367378 0 0
0.9912974443996049 0 0
1.32482517862703 0 0
1.737950548901335 0 0
2.245608084831629 0 0
2.863354888502561 0 0
3.606177588164466 0 0
4.486732300052376 0 0
5.513054033188921 0 0
6.685959083006109 0 0
7.996610040023856 0 0
9.42492770431207 0 0
10.93957661357317 0 0
12.49999999993642 0 0
14.0604233863101 0 0
15.57507229558448 0 0
17.00338995988787 0 0
18.31404091692076 0 0
19.48694596675131 0 0
20.51326769990143 0 0
21.3938224118011 0 0
22.13664511147217 0 0
22.75439191515004 0 0
23.26204945108574 0 0
23.67517482136439 0 0
24.00870255559505 0 0
24.27624074905998 0 0
24.48973934308896 0 0
24.65941212977097 0 0
24.79381380383925 0 0
1 3 0 0
1 5 0 33
50
51
52
53
54
55
56
57
58
59
60
61
62
63
64
65
66
67
68
69
70
71
72
73
74
75
76
77
78
79
80
81
82
0.2061861961603377 50 0
0.3405878702279784 50 0
0.5102606569090705 50 0
0.7237592509367378 50 0
0.9912974443996049 50 0
1.32482517862703 50 0
1.737950548901335 50 0
2.245608084831629 50 0
2.863354888502561 50 0
3.606177588164466 50 0
4.486732300052376 50 0
5.513054033188921 50 0
6.685959083006109 50 0
7.996610040023856 50 0
9.42492770431207 50 0
10.93957661357317 50 0
12.49999999993642 50 0
14.0604233863101 50 0
15.57507229558448 50 0
17.00338995988787 50 0
18.31404091692076 50 0
19.48694596675131 50 0
20.51326769990143 50 0
21.3938224118011 50 0
22.13664511147217 50 0
22.75439191515004 50 0
23.26204945108574 50 0
23.67517482136439 50 0
24.00870255559505 50 0
24.27624074905998 50 0
24.48973934308896 50 0
24.65941212977097 50 0
24.79381380383925 50 0
1 8 0 33
83
84
85
86
87
88
89
90
91
92
93
94
95
96
97
98
99
100
101
102
103
104
105
106
107
108
109
110
111
112
113
114
115
0.2061861961603377 100 0
0.3405878702279784 100 0
0.5102606569090705 100 0
0.7237592509367378 100 0
0.9912974443996049 100 0
1.32482517862703 100 0
1.737950548901335 100 0
2.245608084831629 100 0
2.863354888502561 100 0
3.606177588164466 100 0
4.486732300052376 100 0
5.513054033188921 100 0
6.685959083006109 100 0
7.996610040023856 100 0
9.42492770431207 100 0
10.93957661357317 100 0
12.49999999993642 100 0
14.0604233863101 100 0
15.57507229558448 100 0
17.00338995988787 100 0
18.31404091692076 100 0
19.48694596675131 100 0
20.51326769990143 100 0
21.3938224118011 100 0
22.13664511147217 100 0
22.75439191515004 100 0
23.26204945108574 100 0
23.67517482136439 100 0
24.00870255559505 100 0
24.27624074905998 100 0
24.48973934308896 100 0
24.65941212977097 100 0
24.79381380383925 100 0
1 10 0 0
1 11 0 33
116
117
118
119
120
121
122
123
124
125
126
127
128
129
130
131
132
133
134
135
136
137
138
139
140
141
142
143
144
145
146
147
148
0.2061861961603377 150 0
0.3405878702279784 150 0
0.5102606569090705 150 0
0.7237592509367378 150 0
0.9912974443996049 150 0
1.32482517862703 150 0
1.737950548901335 150 0
2.245608084831629 150 0
2.863354888502561 150 0
3.606177588164466 150 0
4.486732300052376 150 0
5.513054033188921 150 0
6.685959083006109 150 0
7.996610040023856 150 0
9.42492770431207 150 0
10.93957661357317 150 0
12.49999999993642 150 0
14.0604233863101 150 0
15.57507229558448 150 0
17.00338995988787 150 0
18.31404091692076 150 0
19.48694596675131 150 0
20.51326769990143 150 0
21.3938224118011 150 0
22.13664511147217 150 0
22.75439191515004 150 0
23.26204945108574 150 0
23.67517482136439 150 0
24.00870255559505 150 0
24.27624074905998 150 0
24.48973934308896 150 0
24.65941212977097 150 0
24.79381380383925 150 0
1 12 0 0
1 13 0 9
149
150
151
152
153
154
155
156
157
0 4.99999999998078 0
0 9.999999999957042 0
0 14.99999999993109 0
0 19.99999999992 0
0 24.99999999991182 0
0 29.99999999990365 0
0 34.99999999991795 0
0 39.9999999999453 0
0 44.99999999997265 0
1 14 0 9
158
159
160
161
162
163
164
165
166
0 54.99999999994839 0
0 59.99999999989678 0
0 64.99999999984517 0
0 69.99999999979357 0
0 74.99999999974196 0
0 79.99999999969032 0
0 84.9999999997286 0
0 89.99999999981907 0
0 94.99999999990953 0
1 15 0 9
167
168
169
170
171
172
173
174
175
0 104.9999999999373 0
0 109.9999999998746 0
0 114.9999999998118 0
0 119.9999999997491 0
0 124.9999999996864 0
0 129.9999999996825 0
0 134.9999999997619 0
0 139.9999999998412 0
0 144.9999999999206 0
1 16 0 9
176
177
178
179
180
181
182
183
184
0.1 4.99999999998078 0
0.1 9.999999999957042 0
0.1 14.99999999993109 0
0.1 19.99999999992 0
0.1 24.99999999991182 0
0.1 29.99999999990365 0
0.1 34.99999999991795 0
0.1 39.9999999999453 0
0.1 44.99999999997265 0
1 17 0 9
185
186
187
188
189
190
191
192
193
0.1 54.99999999994839 0
0.1 59.99999999989678 0
0.1 64.99999999984517 0
0.1 69.99999999979357 0
0.1 74.99999999974196 0
0.1 79.99999999969032 0
0.1 84.9999999997286 0
0.1 89.99999999981907 0
0.1 94.99999999990953 0
1 18 0 9
194
195
196
197
198
199
200
201
202
0.1 104.9999999999373 0
0.1 109.9999999998746 0
0.1 114.9999999998118 0
0.1 119.9999999997491 0
0.1 124.9999999996864 0
0.1 129.9999999996825 0
0.1 134.9999999997619 0
0.1 139.9999999998412 0
0.1 144.9999999999206 0
1 19 0 9
203
204
205
206
207
208
209
210
211
24.9 4.99999999998078 0
24.9 9.999999999957042 0
24.9 14.99999999993109 0
24.9 19.99999999992 0
24.9 24.99999999991182 0
24.9 29.99999999990365 0
24.9 34.99999999991795 0
24.9 39.9999999999453 0
24.9 44.99999999997265 0
1 20 0 9
212
213
214
215
216
217
218
219
220
24.9 54.99999999994839 0
24.9 59.99999999989678 0
24.9 64.99999999984517 0
24.9 69.99999999979357 0
24.9 74.99999999974196 0
24.9 79.99999999969032 0
24.9 84.9999999997286 0
24.9 89.99999999981907 0
24.9 94.99999999990953 0
1 21 0 9
221
222
223
224
225
226
227
228
229
24.9 104.9999999999373 0
24.9 109.9999999998746 0
24.9 114.9999999998118 0
24.9 119.9999999997491 0
24.9 124.9999999996864 0
24.9 129.9999999996825 0
24.9 134.9999999997619 0
24.9 139.9999999998412 0
24.9 144.9999999999206 0
1 22 0 9
230
231
232
233
234
235
236
237
238
25 4.99999999998078 0
25 9.999999999957042 0
25 14.99999999993109 0
25 19.99999999992 0
25 24.99999999991182 0
25 29.99999999990365 0
25 34.99999999991795 0
25 39.9999999999453 0
25 44.99999999997265 0
1 23 0 9
239
240
241
242
243
244
245
246
247
25 54.99999999994839 0
25 59.99999999989678 0
25 64.99999999984517 0
25 69.99999999979357 0
25 74.99999999974196 0
25 79.99999999969032 0
25 84.9999999997286 0
25 89.99999999981907 0
25 94.99999999990953 0
1 24 0 9
248
249
250
251
252
253
254
255
256
25 104.9999999999373 0
25 109.9999999998746 0
25 114.9999999998118 0
25 119.9999999997491 0
25 124.9999999996864 0
25 129.9999999996825 0
25 134.9999999997619 0
25 139.9999999998412 0
25 144.9999999999206 0
2 1 0 0
2 2 0 297
257
258
259
260
261
262
263
264
265
266
267
268
269
270
271
272
273
274
275
276
277
278
279
280
281
282
283
284
285
286
287
288
289
290
291
292
293
294
295
296
297
298
299
300
301
302
303
304
305
306
307
308
309
310
311
312
313
314
315
316
317
318
319
320
321
322
323
324
325
326
327
328
329
330
331
332
333
334
335
336
337
338
339
340
341
342
343
344
345
346
347
348
349
350
351
352
353
354
355
356
357
358
359
360
361
362
363
364
365
366
367
368
369
370
371
372
373
374
375
376
377
378
379
380
381
382
383
384
385
386
387
388
389
390
391
392
393
394
395
396
397
398
399
400
401
402
403
404
405
406
407
408
409
410
411
412
413
414
415
416
417
418
419
420
421
422
423
424
425
426
427
428
429
430
431
432
433
434
435
436
437
438
439
440
441
442
443
444
445
446
447
448
449
450
451
452
453
454
455
456
457
458
459
460
461
462
463
464
465
466
467
468
469
470
471
472
473
474
475
476
477
478
479
480
481
482
483
484
485
486
487
488
489
490
491
492
493
494
495
496
497
498
499
500
501
502
503
504
505
506
507
508
509
510
511
512
513
514
515
516
517
518
519
520
521
522
523
524
525
526
527
528
529
530
531
532
533
534
535
536
537
538
539
540
541
542
543
544
545
546
547
548
549
550
551
552
553
0.2061861961603377 4.99999999998078 0
0.2061861961603378 9.999999999957042 0
0.2061861961603377 14.99999999993109 0
0.2061861961603377 19.99999999992 0
0.2061861961603377 24.99999999991182 0
0.2061861961603377 29.99999999990365 0
0.2061861961603377 34.99999999991795 0
0.2061861961603377 39.9999999999453 0
0.2061861961603377 44.99999999997265 0
0.3405878702279785 4.99999999998078 0
0.3405878702279785 9.999999999957044 0
0.3405878702279784 14.9999999999311 0
0.3405878702279783 19.99999999992 0
0.3405878702279784 24.99999999991182 0
0.3405878702279784 29.99999999990365 0
0.3405878702279784 34.99999999991795 0
0.3405878702279784 39.99999999994531 0
0.3405878702279784 44.99999999997265 0
0.5102606569090704 4.99999999998078 0
0.5102606569090705 9.999999999957042 0
0.5102606569090704 14.9999999999311 0
0.5102606569090705 19.99999999992 0
0.5102606569090704 24.99999999991182 0
0.5102606569090705 29.99999999990365 0
0.5102606569090705 34.99999999991795 0
0.5102606569090705 39.9999999999453 0
0.5102606569090705 44.99999999997267 0
0.7237592509367379 4.999999999980781 0
0.7237592509367379 9.999999999957044 0
0.723759250936738 14.99999999993109 0
0.723759250936738 19.99999999992 0
0.7237592509367378 24.99999999991183 0
0.723759250936738 29.99999999990364 0
0.7237592509367379 34.99999999991795 0
0.723759250936738 39.9999999999453 0
0.723759250936738 44.99999999997265 0
0.9912974443996048 4.999999999980781 0
0.9912974443996052 9.999999999957042 0
0.9912974443996049 14.9999999999311 0
0.991297444399605 19.99999999992 0
0.9912974443996049 24.99999999991182 0
0.991297444399605 29.99999999990364 0
0.991297444399605 34.99999999991795 0
0.9912974443996047 39.9999999999453 0
0.991297444399605 44.99999999997265 0
1.324825178627029 4.99999999998078 0
1.32482517862703 9.999999999957042 0
1.32482517862703 14.9999999999311 0
1.32482517862703 19.99999999992 0
1.32482517862703 24.99999999991183 0
1.32482517862703 29.99999999990365 0
1.324825178627029 34.99999999991796 0
1.32482517862703 39.9999999999453 0
1.32482517862703 44.99999999997266 0
1.737950548901335 4.999999999980781 0
1.737950548901335 9.999999999957044 0
1.737950548901336 14.99999999993109 0
1.737950548901335 19.99999999992 0
1.737950548901336 24.99999999991182 0
1.737950548901335 29.99999999990364 0
1.737950548901335 34.99999999991795 0
1.737950548901336 39.9999999999453 0
1.737950548901335 44.99999999997265 0
2.245608084831629 4.999999999980781 0
2.245608084831629 9.999999999957041 0
2.245608084831629 14.99999999993109 0
2.245608084831628 19.99999999992 0
2.245608084831629 24.99999999991182 0
2.245608084831628 29.99999999990364 0
2.245608084831629 34.99999999991796 0
2.245608084831628 39.9999999999453 0
2.245608084831629 44.99999999997264 0
2.863354888502561 4.99999999998078 0
2.863354888502561 9.999999999957042 0
2.863354888502562 14.9999999999311 0
2.863354888502561 19.99999999992 0
2.863354888502562 24.99999999991182 0
2.863354888502561 29.99999999990365 0
2.863354888502562 34.99999999991795 0
2.863354888502562 39.9999999999453 0
2.863354888502562 44.99999999997264 0
3.606177588164465 4.999999999980781 0
3.606177588164465 9.999999999957042 0
3.606177588164466 14.99999999993109 0
3.606177588164465 19.99999999992 0
3.606177588164466 24.99999999991182 0
3.606177588164465 29.99999999990365 0
3.606177588164466 34.99999999991795 0
3.606177588164465 39.99999999994531 0
3.606177588164465 44.99999999997264 0
4.486732300052377 4.99999999998078 0
4.486732300052377 9.999999999957041 0
4.486732300052377 14.99999999993109 0
4.486732300052377 19.99999999992 0
4.486732300052376 24.99999999991182 0
4.486732300052376 29.99999999990365 0
4.486732300052376 34.99999999991795 0
4.486732300052377 39.99999999994531 0
4.486732300052377 44.99999999997266 0
5.513054033188923 4.99999999998078 0
5.513054033188923 9.999999999957042 0
5.513054033188922 14.99999999993109 0
5.513054033188923 19.99999999992 0
5.513054033188922 24.99999999991182 0
5.513054033188921 29.99999999990365 0
5.513054033188921 34.99999999991795 0
5.513054033188922 39.9999999999453 0
5.513054033188922 44.99999999997265 0
6.68595908300611 4.99999999998078 0
6.68595908300611 9.999999999957044 0
6.685959083006107 14.9999999999311 0
6.685959083006108 19.99999999992 0
6.685959083006109 24.99999999991182 0
6.685959083006108 29.99999999990365 0
6.68595908300611 34.99999999991797 0
6.685959083006109 39.9999999999453 0
6.685959083006109 44.99999999997267 0
7.996610040023857 4.99999999998078 0
7.996610040023857 9.999999999957046 0
7.996610040023857 14.99999999993109 0
7.996610040023855 19.99999999992 0
7.996610040023858 24.99999999991182 0
7.996610040023854 29.99999999990365 0
7.996610040023856 34.99999999991795 0
7.996610040023854 39.9999999999453 0
7.996610040023853 44.99999999997265 0
9.42492770431207 4.99999999998078 0
9.42492770431207 9.999999999957046 0
9.42492770431207 14.99999999993109 0
9.424927704312072 19.99999999992 0
9.42492770431207 24.99999999991182 0
9.424927704312072 29.99999999990364 0
9.42492770431207 34.99999999991795 0
9.424927704312072 39.9999999999453 0
9.424927704312072 44.99999999997266 0
10.93957661357317 4.99999999998078 0
10.93957661357317 9.999999999957042 0
10.93957661357317 14.99999999993109 0
10.93957661357317 19.99999999992 0
10.93957661357317 24.99999999991182 0
10.93957661357317 29.99999999990364 0
10.93957661357317 34.99999999991796 0
10.93957661357317 39.9999999999453 0
10.93957661357317 44.99999999997265 0
12.49999999993643 4.999999999980781 0
12.49999999993643 9.999999999957041 0
12.49999999993642 14.99999999993109 0
12.49999999993643 19.99999999992 0
12.49999999993643 24.99999999991182 0
12.49999999993642 29.99999999990364 0
12.49999999993643 34.99999999991796 0
12.49999999993643 39.9999999999453 0
12.49999999993642 44.99999999997264 0
14.0604233863101 4.99999999998078 0
14.0604233863101 9.999999999957044 0
14.0604233863101 14.99999999993109 0
14.0604233863101 19.99999999992 0
14.0604233863101 24.99999999991182 0
14.0604233863101 29.99999999990365 0
14.0604233863101 34.99999999991796 0
14.0604233863101 39.9999999999453 0
14.0604233863101 44.99999999997266 0
15.57507229558447 4.99999999998078 0
15.57507229558447 9.999999999957044 0
15.57507229558448 14.9999999999311 0
15.57507229558447 19.99999999992 0
15.57507229558448 24.99999999991182 0
15.57507229558448 29.99999999990364 0
15.57507229558448 34.99999999991795 0
15.57507229558447 39.9999999999453 0
15.57507229558447 44.99999999997265 0
17.00338995988787 4.999999999980781 0
17.00338995988787 9.999999999957042 0
17.00338995988787 14.99999999993109 0
17.00338995988787 19.99999999992 0
17.00338995988788 24.99999999991182 0
17.00338995988787 29.99999999990364 0
17.00338995988788 34.99999999991796 0
17.00338995988788 39.9999999999453 0
17.00338995988788 44.99999999997265 0
18.31404091692076 4.99999999998078 0
18.31404091692076 9.999999999957042 0
18.31404091692076 14.99999999993109 0
18.31404091692076 19.99999999992 0
18.31404091692076 24.99999999991182 0
18.31404091692076 29.99999999990364 0
18.31404091692076 34.99999999991795 0
18.31404091692076 39.9999999999453 0
18.31404091692076 44.99999999997265 0
19.48694596675131 4.99999999998078 0
19.48694596675131 9.999999999957044 0
19.48694596675131 14.99999999993109 0
19.48694596675131 19.99999999992 0
19.4869459667513 24.99999999991182 0
19.4869459667513 29.99999999990365 0
19.48694596675131 34.99999999991795 0
19.48694596675131 39.9999999999453 0
19.48694596675131 44.99999999997265 0
20.51326769990143 4.99999999998078 0
20.51326769990142 9.999999999957042 0
20.51326769990143 14.99999999993109 0
20.51326769990142 19.99999999992 0
20.51326769990143 24.99999999991182 0
20.51326769990143 29.99999999990364 0
20.51326769990143 34.99999999991795 0
20.51326769990143 39.9999999999453 0
20.51326769990143 44.99999999997265 0
21.39382241180109 4.99999999998078 0
21.3938224118011 9.999999999957041 0
21.3938224118011 14.99999999993109 0
21.3938224118011 19.99999999992 0
21.39382241180109 24.99999999991182 0
21.39382241180109 29.99999999990365 0
21.3938224118011 34.99999999991795 0
21.39382241180109 39.9999999999453 0
21.3938224118011 44.99999999997264 0
22.13664511147218 4.999999999980781 0
22.13664511147217 9.999999999957042 0
22.13664511147218 14.99999999993109 0
22.13664511147218 19.99999999992 0
22.13664511147218 24.99999999991182 0
22.13664511147217 29.99999999990364 0
22.13664511147217 34.99999999991795 0
22.13664511147217 39.9999999999453 0
22.13664511147217 44.99999999997265 0
22.75439191515004 4.999999999980781 0
22.75439191515004 9.999999999957042 0
22.75439191515004 14.99999999993109 0
22.75439191515004 19.99999999992 0
22.75439191515004 24.99999999991182 0
22.75439191515004 29.99999999990364 0
22.75439191515004 34.99999999991795 0
22.75439191515005 39.99999999994531 0
22.75439191515004 44.99999999997265 0
23.26204945108574 4.99999999998078 0
23.26204945108574 9.999999999957042 0
23.26204945108574 14.99999999993109 0
23.26204945108574 19.99999999992 0
23.26204945108574 24.99999999991182 0
23.26204945108574 29.99999999990364 0
23.26204945108574 34.99999999991795 0
23.26204945108574 39.9999999999453 0
23.26204945108574 44.99999999997265 0
23.67517482136439 4.99999999998078 0
23.67517482136439 9.999999999957042 0
23.67517482136439 14.99999999993109 0
23.67517482136439 19.99999999992 0
23.67517482136439 24.99999999991182 0
23.67517482136439 29.99999999990365 0
23.67517482136439 34.99999999991797 0
23.6751748213644 39.9999999999453 0
23.67517482136439 44.99999999997265 0
24.00870255559505 4.999999999980781 0
24.00870255559504 9.999999999957042 0
24.00870255559505 14.9999999999311 0
24.00870255559505 19.99999999992 0
24.00870255559505 24.99999999991182 0
24.00870255559505 29.99999999990365 0
24.00870255559505 34.99999999991795 0
24.00870255559505 39.9999999999453 0
24.00870255559505 44.99999999997266 0
24.27624074905997 4.99999999998078 0
24.27624074905998 9.999999999957042 0
24.27624074905998 14.99999999993109 0
24.27624074905998 19.99999999992 0
24.27624074905998 24.99999999991182 0
24.27624074905998 29.99999999990365 0
24.27624074905998 34.99999999991795 0
24.27624074905998 39.9999999999453 0
24.27624074905998 44.99999999997265 0
24.48973934308896 4.99999999998078 0
24.48973934308896 9.999999999957042 0
24.48973934308896 14.9999999999311 0
24.48973934308896 19.99999999992 0
24.48973934308896 24.99999999991182 0
24.48973934308895 29.99999999990365 0
24.48973934308896 34.99999999991795 0
24.48973934308896 39.9999999999453 0
24.48973934308896 44.99999999997265 0
24.65941212977097 4.99999999998078 0
24.65941212977097 9.999999999957042 0
24.65941212977097 14.99999999993109 0
24.65941212977097 19.99999999992 0
24.65941212977097 24.99999999991182 0
24.65941212977097 29.99999999990365 0
24.65941212977097 34.99999999991795 0
24.65941212977097 39.9999999999453 0
24.65941212977097 44.99999999997265 0
24.79381380383924 4.99999999998078 0
24.79381380383924 9.999999999957042 0
24.79381380383925 14.9999999999311 0
24.79381380383924 19.99999999992 0
24.79381380383924 24.99999999991183 0
24.79381380383925 29.99999999990365 0
24.79381380383924 34.99999999991795 0
24.79381380383925 39.99999999994531 0
24.79381380383924 44.99999999997265 0
2 3 0 0
2 4 0 0
2 5 0 297
554
555
556
557
558
559
560
561
562
563
564
565
566
567
568
569
570
571
572
573
574
575
576
577
578
579
580
581
582
583
584
585
586
587
588
589
590
591
592
593
594
595
596
597
598
599
600
601
602
603
604
605
606
607
608
609
610
611
612
613
614
615
616
617
618
619
620
621
622
623
624
625
626
627
628
629
630
631
632
633
634
635
636
637
638
639
640
641
642
643
644
645
646
647
648
649
650
651
652
653
654
655
656
657
658
659
660
661
662
663
664
665
666
667
668
669
670
671
672
673
674
675
676
677
678
679
680
681
682
683
684
685
686
687
688
689
690
691
692
693
694
695
696
697
698
699
700
701
702
703
704
705
706
707
708
709
710
711
712
713
714
715
716
717
718
719
720
721
722
723
724
725
726
727
728
729
730
731
732
733
734
735
736
737
738
739
740
741
742
743
744
745
746
747
748
749
750
751
752
753
754
755
756
757
758
759
760
761
762
763
764
765
766
767
768
769
770
771
772
773
774
775
776
777
778
779
780
781
782
783
784
785
786
787
788
789
790
791
792
793
794
795
796
797
798
799
800
801
802
803
804
805
806
807
808
809
810
811
812
813
814
815
816
817
818
819
820
821
822
823
824
825
826
827
828
829
830
831
832
833
834
835
836
837
838
839
840
841
842
843
844
845
846
847
848
849
850
0.2061861961603378 54.99999999994839 0
0.2061861961603378 59.99999999989678 0
0.2061861961603378 64.99999999984517 0
0.2061861961603377 69.99999999979357 0
0.2061861961603378 74.99999999974196 0
0.2061861961603378 79.99999999969032 0
0.2061861961603377 84.9999999997286 0
0.2061861961603377 89.99999999981907 0
0.2061861961603377 94.99999999990955 0
0.3405878702279784 54.99999999994839 0
0.3405878702279785 59.99999999989678 0
0.3405878702279784 64.99999999984516 0
0.3405878702279784 69.99999999979357 0
0.3405878702279785 74.99999999974196 0
0.3405878702279784 79.99999999969032 0
0.3405878702279784 84.9999999997286 0
0.3405878702279785 89.99999999981907 0
0.3405878702279784 94.99999999990953 0
0.5102606569090705 54.99999999994839 0
0.5102606569090705 59.99999999989679 0
0.5102606569090707 64.99999999984516 0
0.5102606569090706 69.99999999979357 0
0.5102606569090705 74.99999999974196 0
0.5102606569090705 79.99999999969032 0
0.5102606569090704 84.9999999997286 0
0.5102606569090705 89.99999999981905 0
0.5102606569090704 94.99999999990953 0
0.7237592509367378 54.99999999994839 0
0.7237592509367379 59.99999999989679 0
0.7237592509367378 64.99999999984517 0
0.723759250936738 69.99999999979357 0
0.7237592509367378 74.99999999974196 0
0.7237592509367381 79.99999999969032 0
0.723759250936738 84.9999999997286 0
0.7237592509367379 89.99999999981907 0
0.723759250936738 94.99999999990953 0
0.991297444399605 54.99999999994839 0
0.991297444399605 59.99999999989679 0
0.9912974443996051 64.99999999984517 0
0.9912974443996048 69.99999999979357 0
0.991297444399605 74.99999999974196 0
0.9912974443996047 79.99999999969032 0
0.9912974443996052 84.9999999997286 0
0.9912974443996052 89.99999999981905 0
0.9912974443996052 94.99999999990953 0
1.32482517862703 54.99999999994839 0
1.32482517862703 59.99999999989678 0
1.32482517862703 64.99999999984516 0
1.32482517862703 69.99999999979357 0
1.32482517862703 74.99999999974196 0
1.32482517862703 79.99999999969032 0
1.32482517862703 84.9999999997286 0
1.32482517862703 89.99999999981907 0
1.32482517862703 94.99999999990953 0
1.737950548901335 54.99999999994838 0
1.737950548901335 59.99999999989678 0
1.737950548901335 64.99999999984516 0
1.737950548901335 69.99999999979357 0
1.737950548901335 74.99999999974196 0
1.737950548901335 79.99999999969032 0
1.737950548901336 84.99999999972859 0
1.737950548901335 89.99999999981907 0
1.737950548901335 94.99999999990953 0
2.245608084831628 54.99999999994839 0
2.245608084831628 59.99999999989679 0
2.245608084831629 64.99999999984517 0
2.245608084831628 69.99999999979357 0
2.245608084831629 74.99999999974196 0
2.245608084831629 79.99999999969032 0
2.245608084831628 84.9999999997286 0
2.245608084831629 89.99999999981907 0
2.245608084831629 94.99999999990953 0
2.863354888502562 54.99999999994839 0
2.863354888502562 59.99999999989678 0
2.863354888502561 64.99999999984517 0
2.863354888502562 69.99999999979357 0
2.863354888502561 74.99999999974196 0
2.863354888502561 79.99999999969032 0
2.863354888502562 84.9999999997286 0
2.863354888502562 89.99999999981907 0
2.863354888502561 94.99999999990953 0
3.606177588164466 54.99999999994838 0
3.606177588164465 59.99999999989677 0
3.606177588164465 64.99999999984517 0
3.606177588164465 69.99999999979357 0
3.606177588164465 74.99999999974196 0
3.606177588164466 79.99999999969032 0
3.606177588164466 84.9999999997286 0
3.606177588164465 89.99999999981907 0
3.606177588164466 94.99999999990953 0
4.486732300052378 54.99999999994839 0
4.486732300052376 59.99999999989678 0
4.486732300052375 64.99999999984517 0
4.486732300052377 69.99999999979357 0
4.486732300052377 74.99999999974196 0
4.486732300052376 79.99999999969032 0
4.486732300052376 84.9999999997286 0
4.486732300052376 89.99999999981907 0
4.486732300052377 94.99999999990953 0
5.513054033188922 54.99999999994839 0
5.513054033188923 59.99999999989679 0
5.513054033188923 64.99999999984517 0
5.51305403318892 69.99999999979357 0
5.513054033188922 74.99999999974196 0
5.513054033188921 79.99999999969032 0
5.513054033188922 84.9999999997286 0
5.513054033188921 89.99999999981907 0
5.513054033188922 94.99999999990953 0
6.685959083006107 54.99999999994837 0
6.685959083006106 59.99999999989678 0
6.685959083006107 64.99999999984517 0
6.68595908300611 69.99999999979357 0
6.685959083006107 74.99999999974196 0
6.685959083006109 79.99999999969032 0
6.685959083006107 84.9999999997286 0
6.685959083006109 89.99999999981907 0
6.68595908300611 94.99999999990952 0
7.996610040023858 54.99999999994839 0
7.996610040023856 59.99999999989678 0
7.996610040023855 64.99999999984516 0
7.996610040023857 69.99999999979357 0
7.996610040023855 74.99999999974196 0
7.996610040023858 79.99999999969032 0
7.996610040023857 84.9999999997286 0
7.996610040023854 89.99999999981907 0
7.996610040023856 94.99999999990953 0
9.42492770431207 54.99999999994838 0
9.424927704312072 59.99999999989677 0
9.42492770431207 64.99999999984517 0
9.42492770431207 69.99999999979357 0
9.424927704312072 74.99999999974196 0
9.42492770431207 79.99999999969032 0
9.42492770431207 84.99999999972859 0
9.42492770431207 89.99999999981907 0
9.42492770431207 94.99999999990952 0
10.93957661357317 54.99999999994839 0
10.93957661357317 59.99999999989679 0
10.93957661357317 64.99999999984517 0
10.93957661357317 69.99999999979357 0
10.93957661357317 74.99999999974196 0
10.93957661357317 79.99999999969032 0
10.93957661357317 84.9999999997286 0
10.93957661357317 89.99999999981907 0
10.93957661357317 94.99999999990953 0
12.49999999993642 54.99999999994839 0
12.49999999993643 59.99999999989679 0
12.49999999993642 64.99999999984517 0
12.49999999993643 69.99999999979357 0
12.49999999993643 74.99999999974196 0
12.49999999993642 79.99999999969032 0
12.49999999993643 84.9999999997286 0
12.49999999993643 89.99999999981907 0
12.49999999993643 94.99999999990953 0
14.0604233863101 54.99999999994839 0
14.0604233863101 59.99999999989679 0
14.0604233863101 64.99999999984517 0
14.0604233863101 69.99999999979357 0
14.0604233863101 74.99999999974196 0
14.0604233863101 79.99999999969032 0
14.0604233863101 84.9999999997286 0
14.0604233863101 89.99999999981907 0
14.0604233863101 94.99999999990953 0
15.57507229558447 54.99999999994839 0
15.57507229558447 59.99999999989678 0
15.57507229558448 64.99999999984517 0
15.57507229558448 69.99999999979357 0
15.57507229558447 74.99999999974196 0
15.57507229558447 79.99999999969032 0
15.57507229558448 84.9999999997286 0
15.57507229558448 89.99999999981907 0
15.57507229558448 94.99999999990953 0
17.00338995988788 54.99999999994839 0
17.00338995988787 59.99999999989677 0
17.00338995988788 64.99999999984517 0
17.00338995988788 69.99999999979357 0
17.00338995988787 74.99999999974196 0
17.00338995988787 79.99999999969032 0
17.00338995988787 84.9999999997286 0
17.00338995988788 89.99999999981907 0
17.00338995988788 94.99999999990953 0
18.31404091692076 54.99999999994839 0
18.31404091692076 59.99999999989678 0
18.31404091692076 64.99999999984517 0
18.31404091692076 69.99999999979357 0
18.31404091692076 74.99999999974197 0
18.31404091692076 79.99999999969032 0
18.31404091692076 84.9999999997286 0
18.31404091692076 89.99999999981905 0
18.31404091692076 94.99999999990953 0
19.48694596675131 54.99999999994839 0
19.48694596675131 59.99999999989679 0
19.48694596675131 64.99999999984517 0
19.4869459667513 69.99999999979357 0
19.48694596675131 74.99999999974196 0
19.48694596675131 79.9999999996903 0
19.48694596675131 84.9999999997286 0
19.48694596675131 89.99999999981908 0
19.4869459667513 94.99999999990953 0
20.51326769990143 54.99999999994839 0
20.51326769990143 59.99999999989678 0
20.51326769990143 64.99999999984517 0
20.51326769990143 69.99999999979357 0
20.51326769990143 74.99999999974196 0
20.51326769990143 79.99999999969032 0
20.51326769990143 84.99999999972859 0
20.51326769990143 89.99999999981905 0
20.51326769990143 94.99999999990952 0
21.3938224118011 54.99999999994839 0
21.3938224118011 59.99999999989678 0
21.39382241180109 64.99999999984517 0
21.3938224118011 69.99999999979359 0
21.39382241180109 74.99999999974196 0
21.3938224118011 79.99999999969033 0
21.3938224118011 84.9999999997286 0
21.3938224118011 89.99999999981907 0
21.39382241180109 94.99999999990952 0
22.13664511147217 54.99999999994838 0
22.13664511147218 59.99999999989679 0
22.13664511147217 64.99999999984517 0
22.13664511147218 69.99999999979356 0
22.13664511147217 74.99999999974196 0
22.13664511147217 79.9999999996903 0
22.13664511147218 84.99999999972862 0
22.13664511147217 89.99999999981905 0
22.13664511147217 94.99999999990952 0
22.75439191515004 54.99999999994838 0
22.75439191515004 59.99999999989678 0
22.75439191515004 64.99999999984517 0
22.75439191515004 69.99999999979357 0
22.75439191515004 74.99999999974196 0
22.75439191515004 79.99999999969032 0
22.75439191515004 84.9999999997286 0
22.75439191515004 89.99999999981907 0
22.75439191515004 94.99999999990953 0
23.26204945108574 54.99999999994839 0
23.26204945108574 59.99999999989677 0
23.26204945108575 64.99999999984516 0
23.26204945108574 69.99999999979357 0
23.26204945108574 74.99999999974197 0
23.26204945108574 79.99999999969032 0
23.26204945108575 84.9999999997286 0
23.26204945108574 89.99999999981907 0
23.26204945108574 94.99999999990952 0
23.67517482136439 54.99999999994839 0
23.6751748213644 59.99999999989678 0
23.67517482136439 64.99999999984517 0
23.67517482136439 69.99999999979359 0
23.67517482136439 74.99999999974196 0
23.67517482136439 79.99999999969032 0
23.67517482136439 84.9999999997286 0
23.67517482136439 89.99999999981907 0
23.67517482136439 94.99999999990953 0
24.00870255559505 54.99999999994839 0
24.00870255559505 59.99999999989679 0
24.00870255559505 64.99999999984517 0
24.00870255559505 69.99999999979357 0
24.00870255559505 74.99999999974197 0
24.00870255559505 79.9999999996903 0
24.00870255559505 84.9999999997286 0
24.00870255559505 89.99999999981907 0
24.00870255559505 94.99999999990953 0
24.27624074905998 54.99999999994839 0
24.27624074905998 59.99999999989677 0
24.27624074905998 64.99999999984517 0
24.27624074905998 69.99999999979357 0
24.27624074905998 74.99999999974196 0
24.27624074905998 79.99999999969032 0
24.27624074905998 84.99999999972859 0
24.27624074905998 89.99999999981907 0
24.27624074905998 94.99999999990953 0
24.48973934308896 54.99999999994838 0
24.48973934308896 59.99999999989678 0
24.48973934308897 64.99999999984517 0
24.48973934308895 69.99999999979357 0
24.48973934308896 74.99999999974197 0
24.48973934308896 79.99999999969032 0
24.48973934308896 84.9999999997286 0
24.48973934308896 89.99999999981905 0
24.48973934308896 94.99999999990953 0
24.65941212977097 54.99999999994839 0
24.65941212977098 59.99999999989678 0
24.65941212977097 64.99999999984517 0
24.65941212977097 69.99999999979356 0
24.65941212977096 74.99999999974197 0
24.65941212977097 79.99999999969032 0
24.65941212977097 84.9999999997286 0
24.65941212977097 89.99999999981907 0
24.65941212977097 94.99999999990952 0
24.79381380383925 54.99999999994838 0
24.79381380383925 59.99999999989678 0
24.79381380383925 64.99999999984516 0
24.79381380383925 69.99999999979357 0
24.79381380383925 74.99999999974196 0
24.79381380383925 79.99999999969032 0
24.79381380383925 84.99999999972859 0
24.79381380383924 89.99999999981907 0
24.79381380383925 94.99999999990953 0
2 6 0 0
2 7 0 0
2 8 0 297
851
852
853
854
855
856
857
858
859
860
861
862
863
864
865
866
867
868
869
870
871
872
873
874
875
876
877
878
879
880
881
882
883
884
885
886
887
888
889
890
891
892
893
894
895
896
897
898
899
900
901
902
903
904
905
906
907
908
909
910
911
912
913
914
915
916
917
918
919
920
921
922
923
924
925
926
927
928
929
930
931
932
933
934
935
936
937
938
939
940
941
942
943
944
945
946
947
948
949
950
951
952
953
954
955
956
957
958
959
960
961
962
963
964
965
966
967
968
969
970
971
972
973
974
975
976
977
978
979
980
981
982
983
984
985
986
987
988
989
990
991
992
993
994
995
996
997
998
999
1000
1001
1002
1003
1004
1005
1006
1007
1008
1009
1010
1011
1012
1013
1014
1015
1016
1017
1018
1019
1020
1021
1022
1023
1024
1025
1026
1027
1028
1029
1030
1031
1032
1033
1034
1035
1036
1037
1038
1039
1040
1041
1042
1043
1044
1045
1046
1047
1048
1049
1050
1051
1052
1053
1054
1055
1056
1057
1058
1059
1060
1061
1062
1063
1064
1065
1066
1067
1068
1069
1070
1071
1072
1073
1074
1075
1076
1077
1078
1079
1080
1081
1082
1083
1084
1085
1086
1087
1088
1089
1090
1091
1092
1093
1094
1095
1096
1097
1098
1099
1100
1101
1102
1103
1104
1105
1106
1107
1108
1109
1110
1111
1112
1113
1114
1115
1116
1117
1118
1119
1120
1121
1122
1123
1124
1125
1126
1127
1128
1129
1130
1131
1132
1133
1134
1135
1136
1137
1138
1139
1140
1141
1142
1143
1144
1145
1146
1147
0.2061861961603377 104.9999999999373 0
0.2061861961603378 109.9999999998746 0
0.2061861961603377 114.9999999998119 0
0.2061861961603377 119.9999999997491 0
0.2061861961603377 124.9999999996864 0
0.2061861961603377 129.9999999996825 0
0.2061861961603377 134.9999999997619 0
0.2061861961603377 139.9999999998412 0
0.2061861961603377 144.9999999999206 0
0.3405878702279785 104.9999999999373 0
0.3405878702279784 109.9999999998745 0
0.3405878702279785 114.9999999998119 0
0.3405878702279784 119.9999999997491 0
0.3405878702279784 124.9999999996864 0
0.3405878702279784 129.9999999996825 0
0.3405878702279784 134.9999999997619 0
0.3405878702279785 139.9999999998412 0
0.3405878702279785 144.9999999999206 0
0.5102606569090705 104.9999999999373 0
0.5102606569090705 109.9999999998746 0
0.5102606569090705 114.9999999998118 0
0.5102606569090704 119.9999999997491 0
0.5102606569090706 124.9999999996864 0
0.5102606569090705 129.9999999996825 0
0.5102606569090705 134.9999999997619 0
0.5102606569090705 139.9999999998412 0
0.5102606569090705 144.9999999999206 0
0.723759250936738 104.9999999999373 0
0.723759250936738 109.9999999998746 0
0.723759250936738 114.9999999998119 0
0.7237592509367379 119.9999999997491 0
0.723759250936738 124.9999999996864 0
0.7237592509367378 129.9999999996825 0
0.7237592509367381 134.9999999997619 0
0.7237592509367377 139.9999999998412 0
0.723759250936738 144.9999999999206 0
0.9912974443996049 104.9999999999373 0
0.9912974443996049 109.9999999998746 0
0.991297444399605 114.9999999998118 0
0.991297444399605 119.9999999997491 0
0.9912974443996048 124.9999999996864 0
0.9912974443996048 129.9999999996825 0
0.9912974443996049 134.9999999997619 0
0.9912974443996048 139.9999999998412 0
0.9912974443996051 144.9999999999206 0
1.32482517862703 104.9999999999372 0
1.32482517862703 109.9999999998746 0
1.32482517862703 114.9999999998118 0
1.32482517862703 119.9999999997491 0
1.32482517862703 124.9999999996863 0
1.32482517862703 129.9999999996825 0
1.32482517862703 134.9999999997619 0
1.32482517862703 139.9999999998412 0
1.32482517862703 144.9999999999206 0
1.737950548901336 104.9999999999373 0
1.737950548901335 109.9999999998746 0
1.737950548901336 114.9999999998118 0
1.737950548901335 119.9999999997491 0
1.737950548901335 124.9999999996864 0
1.737950548901335 129.9999999996825 0
1.737950548901335 134.9999999997619 0
1.737950548901335 139.9999999998412 0
1.737950548901335 144.9999999999206 0
2.245608084831628 104.9999999999373 0
2.245608084831628 109.9999999998746 0
2.245608084831629 114.9999999998118 0
2.245608084831629 119.9999999997491 0
2.245608084831629 124.9999999996864 0
2.245608084831629 129.9999999996825 0
2.245608084831629 134.9999999997619 0
2.245608084831629 139.9999999998412 0
2.245608084831629 144.9999999999206 0
2.863354888502561 104.9999999999373 0
2.863354888502562 109.9999999998746 0
2.863354888502561 114.9999999998118 0
2.863354888502562 119.9999999997491 0
2.863354888502562 124.9999999996864 0
2.863354888502561 129.9999999996825 0
2.863354888502562 134.9999999997619 0
2.863354888502562 139.9999999998412 0
2.863354888502561 144.9999999999206 0
3.606177588164466 104.9999999999372 0
3.606177588164466 109.9999999998746 0
3.606177588164465 114.9999999998118 0
3.606177588164467 119.9999999997491 0
3.606177588164465 124.9999999996864 0
3.606177588164465 129.9999999996825 0
3.606177588164466 134.9999999997619 0
3.606177588164465 139.9999999998412 0
3.606177588164465 144.9999999999206 0
4.486732300052377 104.9999999999373 0
4.486732300052377 109.9999999998746 0
4.486732300052377 114.9999999998118 0
4.486732300052376 119.9999999997491 0
4.486732300052377 124.9999999996864 0
4.486732300052376 129.9999999996825 0
4.486732300052377 134.9999999997619 0
4.486732300052377 139.9999999998412 0
4.486732300052377 144.9999999999206 0
5.513054033188921 104.9999999999373 0
5.51305403318892 109.9999999998746 0
5.513054033188922 114.9999999998118 0
5.513054033188923 119.9999999997491 0
5.513054033188922 124.9999999996864 0
5.513054033188922 129.9999999996825 0
5.513054033188922 134.9999999997619 0
5.513054033188922 139.9999999998412 0
5.513054033188922 144.9999999999206 0
6.68595908300611 104.9999999999373 0
6.68595908300611 109.9999999998746 0
6.685959083006109 114.9999999998118 0
6.685959083006107 119.9999999997491 0
6.685959083006107 124.9999999996864 0
6.685959083006109 129.9999999996825 0
6.685959083006109 134.9999999997619 0
6.685959083006107 139.9999999998412 0
6.685959083006109 144.9999999999206 0
7.996610040023856 104.9999999999373 0
7.996610040023854 109.9999999998746 0
7.996610040023858 114.9999999998118 0
7.996610040023854 119.9999999997491 0
7.996610040023854 124.9999999996864 0
7.996610040023856 129.9999999996825 0
7.996610040023855 134.9999999997619 0
7.996610040023855 139.9999999998412 0
7.996610040023855 144.9999999999206 0
9.424927704312068 104.9999999999373 0
9.424927704312067 109.9999999998746 0
9.42492770431207 114.9999999998118 0
9.424927704312068 119.9999999997491 0
9.424927704312072 124.9999999996864 0
9.42492770431207 129.9999999996825 0
9.42492770431207 134.9999999997619 0
9.424927704312072 139.9999999998412 0
9.42492770431207 144.9999999999206 0
10.93957661357316 104.9999999999373 0
10.93957661357317 109.9999999998746 0
10.93957661357317 114.9999999998118 0
10.93957661357317 119.9999999997491 0
10.93957661357317 124.9999999996864 0
10.93957661357317 129.9999999996825 0
10.93957661357317 134.9999999997619 0
10.93957661357317 139.9999999998412 0
10.93957661357317 144.9999999999206 0
12.49999999993643 104.9999999999373 0
12.49999999993642 109.9999999998746 0
12.49999999993642 114.9999999998118 0
12.49999999993643 119.9999999997491 0
12.49999999993643 124.9999999996864 0
12.49999999993642 129.9999999996825 0
12.49999999993643 134.9999999997619 0
12.49999999993642 139.9999999998413 0
12.49999999993643 144.9999999999206 0
14.0604233863101 104.9999999999373 0
14.0604233863101 109.9999999998746 0
14.0604233863101 114.9999999998118 0
14.0604233863101 119.9999999997491 0
14.0604233863101 124.9999999996864 0
14.0604233863101 129.9999999996825 0
14.0604233863101 134.9999999997619 0
14.0604233863101 139.9999999998412 0
14.0604233863101 144.9999999999206 0
15.57507229558447 104.9999999999373 0
15.57507229558448 109.9999999998746 0
15.57507229558448 114.9999999998118 0
15.57507229558448 119.9999999997491 0
15.57507229558447 124.9999999996864 0
15.57507229558448 129.9999999996825 0
15.57507229558448 134.9999999997619 0
15.57507229558447 139.9999999998412 0
15.57507229558448 144.9999999999206 0
17.00338995988788 104.9999999999373 0
17.00338995988787 109.9999999998746 0
17.00338995988788 114.9999999998118 0
17.00338995988788 119.9999999997491 0
17.00338995988787 124.9999999996864 0
17.00338995988788 129.9999999996825 0
17.00338995988788 134.9999999997619 0
17.00338995988787 139.9999999998412 0
17.00338995988787 144.9999999999206 0
18.31404091692076 104.9999999999373 0
18.31404091692076 109.9999999998746 0
18.31404091692076 114.9999999998118 0
18.31404091692076 119.9999999997491 0
18.31404091692076 124.9999999996864 0
18.31404091692076 129.9999999996825 0
18.31404091692076 134.9999999997619 0
18.31404091692076 139.9999999998412 0
18.31404091692076 144.9999999999206 0
19.48694596675131 104.9999999999373 0
19.48694596675131 109.9999999998746 0
19.48694596675131 114.9999999998119 0
19.4869459667513 119.9999999997491 0
19.4869459667513 124.9999999996864 0
19.48694596675131 129.9999999996825 0
19.48694596675131 134.9999999997619 0
19.4869459667513 139.9999999998412 0
19.4869459667513 144.9999999999206 0
20.51326769990143 104.9999999999373 0
20.51326769990143 109.9999999998746 0
20.51326769990143 114.9999999998118 0
20.51326769990143 119.9999999997491 0
20.51326769990142 124.9999999996864 0
20.51326769990143 129.9999999996825 0
20.51326769990143 134.9999999997619 0
20.51326769990143 139.9999999998412 0
20.51326769990143 144.9999999999206 0
21.3938224118011 104.9999999999372 0
21.3938224118011 109.9999999998746 0
21.3938224118011 114.9999999998118 0
21.3938224118011 119.9999999997491 0
21.3938224118011 124.9999999996863 0
21.3938224118011 129.9999999996825 0
21.39382241180109 134.9999999997619 0
21.3938224118011 139.9999999998412 0
21.39382241180109 144.9999999999206 0
22.13664511147217 104.9999999999373 0
22.13664511147218 109.9999999998746 0
22.13664511147217 114.9999999998118 0
22.13664511147217 119.9999999997491 0
22.13664511147217 124.9999999996864 0
22.13664511147217 129.9999999996825 0
22.13664511147218 134.9999999997619 0
22.13664511147218 139.9999999998412 0
22.13664511147218 144.9999999999206 0
22.75439191515004 104.9999999999372 0
22.75439191515004 109.9999999998746 0
22.75439191515004 114.9999999998118 0
22.75439191515004 119.9999999997491 0
22.75439191515004 124.9999999996864 0
22.75439191515004 129.9999999996825 0
22.75439191515004 134.9999999997619 0
22.75439191515004 139.9999999998412 0
22.75439191515004 144.9999999999206 0
23.26204945108574 104.9999999999373 0
23.26204945108574 109.9999999998746 0
23.26204945108574 114.9999999998119 0
23.26204945108574 119.9999999997491 0
23.26204945108574 124.9999999996863 0
23.26204945108575 129.9999999996825 0
23.26204945108574 134.9999999997619 0
23.26204945108574 139.9999999998412 0
23.26204945108574 144.9999999999206 0
23.67517482136439 104.9999999999373 0
23.6751748213644 109.9999999998746 0
23.67517482136439 114.9999999998118 0
23.67517482136439 119.9999999997491 0
23.67517482136439 124.9999999996864 0
23.6751748213644 129.9999999996825 0
23.67517482136439 134.9999999997619 0
23.67517482136439 139.9999999998412 0
23.67517482136439 144.9999999999206 0
24.00870255559505 104.9999999999373 0
24.00870255559505 109.9999999998746 0
24.00870255559505 114.9999999998118 0
24.00870255559506 119.9999999997491 0
24.00870255559505 124.9999999996864 0
24.00870255559505 129.9999999996825 0
24.00870255559505 134.9999999997619 0
24.00870255559505 139.9999999998412 0
24.00870255559505 144.9999999999206 0
24.27624074905998 104.9999999999373 0
24.27624074905998 109.9999999998746 0
24.27624074905998 114.9999999998118 0
24.27624074905998 119.9999999997491 0
24.27624074905998 124.9999999996864 0
24.27624074905998 129.9999999996825 0
24.27624074905998 134.9999999997619 0
24.27624074905998 139.9999999998412 0
24.27624074905998 144.9999999999206 0
24.48973934308896 104.9999999999372 0
24.48973934308896 109.9999999998746 0
24.48973934308895 114.9999999998119 0
24.48973934308896 119.9999999997491 0
24.48973934308896 124.9999999996864 0
24.48973934308895 129.9999999996825 0
24.48973934308896 134.9999999997619 0
24.48973934308896 139.9999999998412 0
24.48973934308896 144.9999999999206 0
24.65941212977097 104.9999999999373 0
24.65941212977096 109.9999999998746 0
24.65941212977097 114.9999999998118 0
24.65941212977097 119.9999999997491 0
24.65941212977097 124.9999999996864 0
24.65941212977097 129.9999999996825 0
24.65941212977097 134.9999999997619 0
24.65941212977097 139.9999999998412 0
24.65941212977097 144.9999999999206 0
24.79381380383925 104.9999999999373 0
24.79381380383924 109.9999999998746 0
24.79381380383925 114.9999999998119 0
24.79381380383925 119.9999999997491 0
24.79381380383925 124.9999999996864 0
24.79381380383925 129.9999999996825 0
24.79381380383924 134.9999999997619 0
24.79381380383924 139.9999999998412 0
24.79381380383924 144.9999999999206 0
2 9 0 0
$EndNodes
$Elements
21 1212 1 1212
1 1 1 1
1 1 2 
1 2 1 34
2 2 17 
3 17 18 
4 18 19 
5 19 20 
6 20 21 
7 21 22 
8 22 23 
9 23 24 
10 24 25 
11 25 26 
12 26 27 
13 27 28 
14 28 29 
15 29 30 
16 30 31 
17 31 32 
18 32 33 
19 33 34 
20 34 35 
21 35 36 
22 36 37 
23 37 38 
24 38 39 
25 39 40 
26 40 41 
27 41 42 
28 42 43 
29 43 44 
30 44 45 
31 45 46 
32 46 47 
33 47 48 
34 48 49 
35 49 3 
1 3 1 1
36 3 4 
1 10 1 1
37 13 14 
1 11 1 34
38 14 116 
39 116 117 
40 117 118 
41 118 119 
42 119 120 
43 120 121 
44 121 122 
45 122 123 
46 123 124 
47 124 125 
48 125 126 
49 126 127 
50 127 128 
51 128 129 
52 129 130 
53 130 131 
54 131 132 
55 132 133 
56 133 134 
57 134 135 
58 135 136 
59 136 137 
60 137 138 
61 138 139 
62 139 140 
63 140 141 
64 141 142 
65 142 143 
66 143 144 
67 144 145 
68 145 146 
69 146 147 
70 147 148 
71 148 15 
1 12 1 1
72 15 16 
1 13 1 10
73 1 149 
74 149 150 
75 150 151 
76 151 152 
77 152 153 
78 153 154 
79 154 155 
80 155 156 
81 156 157 
82 157 5 
1 14 1 10
83 5 158 
84 158 159 
85 159 160 
86 160 161 
87 161 162 
88 162 163 
89 163 164 
90 164 165 
91 165 166 
92 166 9 
1 15 1 10
93 9 167 
94 167 168 
95 168 169 
96 169 170 
97 170 171 
98 171 172 
99 172 173 
100 173 174 
101 174 175 
102 175 13 
1 22 1 10
103 4 230 
104 230 231 
105 231 232 
106 232 233 
107 233 234 
108 234 235 
109 235 236 
110 236 237 
111 237 238 
112 238 8 
1 23 1 10
113 8 239 
114 239 240 
115 240 241 
116 241 242 
117 242 243 
118 243 244 
119 244 245 
120 245 246 
121 246 247 
122 247 12 
1 24 1 10
123 12 248 
124 248 249 
125 249 250 
126 250 251 
127 251 252 
128 252 253 
129 253 254 
130 254 255 
131 255 256 
132 256 16 
2 1 3 10
133 1 2 176 149 
134 149 176 177 150 
135 150 177 178 151 
136 151 178 179 152 
137 152 179 180 153 
138 153 180 181 154 
139 154 181 182 155 
140 155 182 183 156 
141 156 183 184 157 
142 157 184 6 5 
2 2 3 340
143 2 17 257 176 
144 176 257 258 177 
145 177 258 259 178 
146 178 259 260 179 
147 179 260 261 180 
148 180 261 262 181 
149 181 262 263 182 
150 182 263 264 183 
151 183 264 265 184 
152 184 265 50 6 
153 17 18 266 257 
154 257 266 267 258 
155 258 267 268 259 
156 259 268 269 260 
157 260 269 270 261 
158 261 270 271 262 
159 262 271 272 263 
160 263 272 273 264 
161 264 273 274 265 
162 265 274 51 50 
163 18 19 275 266 
164 266 275 276 267 
165 267 276 277 268 
166 268 277 278 269 
167 269 278 279 270 
168 270 279 280 271 
169 271 280 281 272 
170 272 281 282 273 
171 273 282 283 274 
172 274 283 52 51 
173 19 20 284 275 
174 275 284 285 276 
175 276 285 286 277 
176 277 286 287 278 
177 278 287 288 279 
178 279 288 289 280 
179 280 289 290 281 
180 281 290 291 282 
181 282 291 292 283 
182 283 292 53 52 
183 20 21 293 284 
184 284 293 294 285 
185 285 294 295 286 
186 286 295 296 287 
187 287 296 297 288 
188 288 297 298 289 
189 289 298 299 290 
190 290 299 300 291 
191 291 300 301 292 
192 292 301 54 53 
193 21 22 302 293 
194 293 302 303 294 
195 294 303 304 295 
196 295 304 305 296 
197 296 305 306 297 
198 297 306 307 298 
199 298 307 308 299 
200 299 308 309 300 
201 300 309 310 301 
202 301 310 55 54 
203 22 23 311 302 
204 302 311 312 303 
205 303 312 313 304 
206 304 313 314 305 
207 305 314 315 306 
208 306 315 316 307 
209 307 316 317 308 
210 308 317 318 309 
211 309 318 319 310 
212 310 319 56 55 
213 23 24 320 311 
214 311 320 321 312 
215 312 321 322 313 
216 313 322 323 314 
217 314 323 324 315 
218 315 324 325 316 
219 316 325 326 317 
220 317 326 327 318 
221 318 327 328 319 
222 319 328 57 56 
223 24 25 329 320 
224 320 329 330 321 
225 321 330 331 322 
226 322 331 332 323 
227 323 332 333 324 
228 324 333 334 325 
229 325 334 335 326 
230 326 335 336 327 
231 327 336 337 328 
232 328 337 58 57 
233 25 26 338 329 
234 329 338 339 330 
235 330 339 340 331 
236 331 340 341 332 
237 332 341 342 333 
238 333 342 343 334 
239 334 343 344 335 
240 335 344 345 336 
241 336 345 346 337 
242 337 346 59 58 
243 26 27 347 338 
244 338 347 348 339 
245 339 348 349 340 
246 340 349 350 341 
247 341 350 351 342 
248 342 351 352 343 
249 343 352 353 344 
250 344 353 354 345 
251 345 354 355 346 
252 346 355 60 59 
253 27 28 356 347 
254 347 356 357 348 
255 348 357 358 349 
256 349 358 359 350 
257 350 359 360 351 
258 351 360 361 352 
259 352 361 362 353 
260 353 362 363 354 
261 354 363 364 355 
262 355 364 61 60 
263 28 29 365 356 
264 356 365 366 357 
265 357 366 367 358 
266 358 367 368 359 
267 359 368 369 360 
268 360 369 370 361 
269 361 370 371 362 
270 362 371 372 363 
271 363 372 373 364 
272 364 373 62 61 
273 29 30 374 365 
274 365 374 375 366 
275 366 375 376 367 
276 367 376 377 368 
277 368 377 378 369 
278 369 378 379 370 
279 370 379 380 371 
280 371 380 381 372 
281 372 381 382 373 
282 373 382 63 62 
283 30 31 383 374 
284 374 383 384 375 
285 375 384 385 376 
286 376 385 386 377 
287 377 386 387 378 
288 378 387 388 379 
289 379 388 389 380 
290 380 389 390 381 
291 381 390 391 382 
292 382 391 64 63 
293 31 32 392 383 
294 383 392 393 384 
295 384 393 394 385 
296 385 394 395 386 
297 386 395 396 387 
298 387 396 397 388 
299 388 397 398 389 
300 389 398 399 390 
301 390 399 400 391 
302 391 400 65 64 
303 32 33 401 392 
304 392 401 402 393 
305 393 402 403 394 
306 394 403 404 395 
307 395 404 405 396 
308 396 405 406 397 
309 397 406 407 398 
310 398 407 408 399 
311 399 408 409 400 
312 400 409 66 65 
313 33 34 410 401 
314 401 410 411 402 
315 402 411 412 403 
316 403 412 413 404 
317 404 413 414 405 
318 405 414 415 406 
319 406 415 416 407 
320 407 416 417 408 
321 408 417 418 409 
322 409 418 67 66 
323 34 35 419 410 
324 410 419 420 411 
325 411 420 421 412 
326 412 421 422 413 
327 413 422 423 414 
328 414 423 424 415 
329 415 424 425 416 
330 416 425 426 417 
331 417 426 427 418 
332 418 427 68 67 
333 35 36 428 419 
334 419 428 429 420 
335 420 429 430 421 
336 421 430 431 422 
337 422 431 432 423 
338 423 432 433 424 
339 424 433 434 425 
340 425 434 435 426 
341 426 435 436 427 
342 427 436 69 68 
343 36 37 437 428 
344 428 437 438 429 
345 429 438 439 430 
346 430 439 440 431 
347 431 440 441 432 
348 432 441 442 433 
349 433 442 443 434 
350 434 443 444 435 
351 435 444 445 436 
352 436 445 70 69 
353 37 38 446 437 
354 437 446 447 438 
355 438 447 448 439 
356 439 448 449 440 
357 440 449 450 441 
358 441 450 451 442 
359 442 451 452 443 
360 443 452 453 444 
361 444 453 454 445 
362 445 454 71 70 
363 38 39 455 446 
364 446 455 456 447 
365 447 456 457 448 
366 448 457 458 449 
367 449 458 459 450 
368 450 459 460 451 
369 451 460 461 452 
370 452 461 462 453 
371 453 462 463 454 
372 454 463 72 71 
373 39 40 464 455 
374 455 464 465 456 
375 456 465 466 457 
376 457 466 467 458 
377 458 467 468 459 
378 459 468 469 460 
379 460 469 470 461 
380 461 470 471 462 
381 462 471 472 463 
382 463 472 73 72 
383 40 41 473 464 
384 464 473 474 465 
385 465 474 475 466 
386 466 475 476 467 
387 467 476 477 468 
388 468 477 478 469 
389 469 478 479 470 
390 470 479 480 471 
391 471 480 481 472 
392 472 481 74 73 
393 41 42 482 473 
394 473 482 483 474 
395 474 483 484 475 
396 475 484 485 476 
397 476 485 486 477 
398 477 486 487 478 
399 478 487 488 479 
400 479 488 489 480 
401 480 489 490 481 
402 481 490 75 74 
403 42 43 491 482 
404 482 491 492 483 
405 483 492 493 484 
406 484 493 494 485 
407 485 494 495 486 
408 486 495 496 487 
409 487 496 497 488 
410 488 497 498 489 
411 489 498 499 490 
412 490 499 76 75 
413 43 44 500 491 
414 491 500 501 492 
415 492 501 502 493 
416 493 502 503 494 
417 494 503 504 495 
418 495 504 505 496 
419 496 505 506 497 
420 497 506 507 498 
421 498 507 508 499 
422 499 508 77 76 
423 44 45 509 500 
424 500 509 510 501 
425 501 510 511 502 
426 502 511 512 503 
427 503 512 513 504 
428 504 513 514 505 
429 505 514 515 506 
430 506 515 516 507 
431 507 516 517 508 
432 508 517 78 77 
433 45 46 518 509 
434 509 518 519 510 
435 510 519 520 511 
436 511 520 521 512 
437 512 521 522 513 
438 513 522 523 514 
439 514 523 524 515 
440 515 524 525 516 
441 516 525 526 517 
442 517 526 79 78 
443 46 47 527 518 
444 518 527 528 519 
445 519 528 529 520 
446 520 529 530 521 
447 521 530 531 522 
448 522 531 532 523 
449 523 532 533 524 
450 524 533 534 525 
451 525 534 535 526 
452 526 535 80 79 
453 47 48 536 527 
454 527 536 537 528 
455 528 537 538 529 
456 529 538 539 530 
457 530 539 540 531 
458 531 540 541 532 
459 532 541 542 533 
460 533 542 543 534 
461 534 543 544 535 
462 535 544 81 80 
463 48 49 545 536 
464 536 545 546 537 
465 537 546 547 538 
466 538 547 548 539 
467 539 548 549 540 
468 540 549 550 541 
469 541 550 551 542 
470 542 551 552 543 
471 543 552 553 544 
472 544 553 82 81 
473 49 3 203 545 
474 545 203 204 546 
475 546 204 205 547 
476 547 205 206 548 
477 548 206 207 549 
478 549 207 208 550 
479 550 208 209 551 
480 551 209 210 552 
481 552 210 211 553 
482 553 211 7 82 
2 3 3 10
483 3 4 230 203 
484 203 230 231 204 
485 204 231 232 205 
486 205 232 233 206 
487 206 233 234 207 
488 207 234 235 208 
489 208 235 236 209 
490 209 236 237 210 
491 210 237 238 211 
492 211 238 8 7 
2 4 3 10
493 5 6 185 158 
494 158 185 186 159 
495 159 186 187 160 
496 160 187 188 161 
497 161 188 189 162 
498 162 189 190 163 
499 163 190 191 164 
500 164 191 192 165 
501 165 192 193 166 
502 166 193 10 9 
2 5 3 340
503 6 50 554 185 
504 185 554 555 186 
505 186 555 556 187 
506 187 556 557 188 
507 188 557 558 189 
508 189 558 559 190 
509 190 559 560 191 
510 191 560 561 192 
511 192 561 562 193 
512 193 562 83 10 
513 50 51 563 554 
514 554 563 564 555 
515 555 564 565 556 
516 556 565 566 557 
517 557 566 567 558 
518 558 567 568 559 
519 559 568 569 560 
520 560 569 570 561 
521 561 570 571 562 
522 562 571 84 83 
523 51 52 572 563 
524 563 572 573 564 
525 564 573 574 565 
526 565 574 575 566 
527 566 575 576 567 
528 567 576 577 568 
529 568 577 578 569 
530 569 578 579 570 
531 570 579 580 571 
532 571 580 85 84 
533 52 53 581 572 
534 572 581 582 573 
535 573 582 583 574 
536 574 583 584 575 
537 575 584 585 576 
538 576 585 586 577 
539 577 586 587 578 
540 578 587 588 579 
541 579 588 589 580 
542 580 589 86 85 
543 53 54 590 581 
544 581 590 591 582 
545 582 591 592 583 
546 583 592 593 584 
547 584 593 594 585 
548 585 594 595 586 
549 586 595 596 587 
550 587 596 597 588 
551 588 597 598 589 
552 589 598 87 86 
553 54 55 599 590 
554 590 599 600 591 
555 591 600 601 592 
556 592 601 602 593 
557 593 602 603 594 
558 594 603 604 595 
559 595 604 605 596 
560 596 605 606 597 
561 597 606 607 598 
562 598 607 88 87 
563 55 56 608 599 
564 599 608 609 600 
565 600 609 610 601 
566 601 610 611 602 
567 602 611 612 603 
568 603 612 613 604 
569 604 613 614 605 
570 605 614 615 606 
571 606 615 616 607 
572 607 616 89 88 
573 56 57 617 608 
574 608 617 618 609 
575 609 618 619 610 
576 610 619 620 611 
577 611 620 621 612 
578 612 621 622 613 
579 613 622 623 614 
580 614 623 624 615 
581 615 624 625 616 
582 616 625 90 89 
583 57 58 626 617 
584 617 626 627 618 
585 618 627 628 619 
586 619 628 629 620 
587 620 629 630 621 
588 621 630 631 622 
589 622 631 632 623 
590 623 632 633 624 
591 624 633 634 625 
592 625 634 91 90 
593 58 59 635 626 
594 626 635 636 627 
595 627 636 637 628 
596 628 637 638 629 
597 629 638 639 630 
598 630 639 640 631 
599 631 640 641 632 
600 632 641 642 633 
601 633 642 643 634 
602 634 643 92 91 
603 59 60 644 635 
604 635 644 645 636 
605 636 645 646 637 
606 637 646 647 638 
607 638 647 648 639 
608 639 648 649 640 
609 640 649 650 641 
610 641 650 651 642 
611 642 651 652 643 
612 643 652 93 92 
613 60 61 653 644 
614 644 653 654 645 
615 645 654 655 646 
616 646 655 656 647 
617 647 656 657 648 
618 648 657 658 649 
619 649 658 659 650 
620 650 659 660 651 
621 651 660 661 652 
622 652 661 94 93 
623 61 62 662 653 
624 653 662 663 654 
625 654 663 664 655 
626 655 664 665 656 
627 656 665 666 657 
628 657 666 667 658 
629 658 667 668 659 
630 659 668 669 660 
631 660 669 670 661 
632 661 670 95 94 
633 62 63 671 662 
634 662 671 672 663 
635 663 672 673 664 
636 664 673 674 665 
637 665 674 675 666 
638 666 675 676 667 
639 667 676 677 668 
640 668 677 678 669 
641 669 678 679 670 
642 670 679 96 95 
643 63 64 680 671 
644 671 680 681 672 
645 672 681 682 673 
646 673 682 683 674 
647 674 683 684 675 
648 675 684 685 676 
649 676 685 686 677 
650 677 686 687 678 
651 678 687 688 679 
652 679 688 97 96 
653 64 65 689 680 
654 680 689 690 681 
655 681 690 691 682 
656 682 691 692 683 
657 683 692 693 684 
658 684 693 694 685 
659 685 694 695 686 
660 686 695 696 687 
661 687 696 697 688 
662 688 697 98 97 
663 65 66 698 689 
664 689 698 699 690 
665 690 699 700 691 
666 691 700 701 692 
667 692 701 702 693 
668 693 702 703 694 
669 694 703 704 695 
670 695 704 705 696 
671 696 705 706 697 
672 697 706 99 98 
673 66 67 707 698 
674 698 707 708 699 
675 699 708 709 700 
676 700 709 710 701 
677 701 710 711 702 
678 702 711 712 703 
679 703 712 713 704 
680 704 713 714 705 
681 705 714 715 706 
682 706 715 100 99 
683 67 68 716 707 
684 707 716 717 708 
685 708 717 718 709 
686 709 718 719 710 
687 710 719 720 711 
688 711 720 721 712 
689 712 721 722 713 
690 713 722 723 714 
691 714 723 724 715 
692 715 724 101 100 
693 68 69 725 716 
694 716 725 726 717 
695 717 726 727 718 
696 718 727 728 719 
697 719 728 729 720 
698 720 729 730 721 
699 721 730 731 722 
700 722 731 732 723 
701 723 732 733 724 
702 724 733 102 101 
703 69 70 734 725 
704 725 734 735 726 
705 726 735 736 727 
706 727 736 737 728 
707 728 737 738 729 
708 729 738 739 730 
709 730 739 740 731 
710 731 740 741 732 
711 732 741 742 733 
712 733 742 103 102 
713 70 71 743 734 
714 734 743 744 735 
715 735 744 745 736 
716 736 745 746 737 
717 737 746 747 738 
718 738 747 748 739 
719 739 748 749 740 
720 740 749 750 741 
721 741 750 751 742 
722 742 751 104 103 
723 71 72 752 743 
724 743 752 753 744 
725 744 753 754 745 
726 745 754 755 746 
727 746 755 756 747 
728 747 756 757 748 
729 748 757 758 749 
730 749 758 759 750 
731 750 759 760 751 
732 751 760 105 104 
733 72 73 761 752 
734 752 761 762 753 
735 753 762 763 754 
736 754 763 764 755 
737 755 764 765 756 
738 756 765 766 757 
739 757 766 767 758 
740 758 767 768 759 
741 759 768 769 760 
742 760 769 106 105 
743 73 74 770 761 
744 761 770 771 762 
745 762 771 772 763 
746 763 772 773 764 
747 764 773 774 765 
748 765 774 775 766 
749 766 775 776 767 
750 767 776 777 768 
751 768 777 778 769 
752 769 778 107 106 
753 74 75 779 770 
754 770 779 780 771 
755 771 780 781 772 
756 772 781 782 773 
757 773 782 783 774 
758 774 783 784 775 
759 775 784 785 776 
760 776 785 786 777 
761 777 786 787 778 
762 778 787 108 107 
763 75 76 788 779 
764 779 788 789 780 
765 780 789 790 781 
766 781 790 791 782 
767 782 791 792 783 
768 783 792 793 784 
769 784 793 794 785 
770 785 794 795 786 
771 786 795 796 787 
772 787 796 109 108 
773 76 77 797 788 
774 788 797 798 789 
775 789 798 799 790 
776 790 799 800 791 
777 791 800 801 792 
778 792 801 802 793 
779 793 802 803 794 
780 794 803 804 795 
781 795 804 805 796 
782 796 805 110 109 
783 77 78 806 797 
784 797 806 807 798 
785 798 807 808 799 
786 799 808 809 800 
787 800 809 810 801 
788 801 810 811 802 
789 802 811 812 803 
790 803 812 813 804 
791 804 813 814 805 
792 805 814 111 110 
793 78 79 815 806 
794 806 815 816 807 
795 807 816 817 808 
796 808 817 818 809 
797 809 818 819 810 
798 810 819 820 811 
799 811 820 821 812 
800 812 821 822 813 
801 813 822 823 814 
802 814 823 112 111 
803 79 80 824 815 
804 815 824 825 816 
805 816 825 826 817 
806 817 826 827 818 
807 818 827 828 819 
808 819 828 829 820 
809 820 829 830 821 
810 821 830 831 822 
811 822 831 832 823 
812 823 832 113 112 
813 80 81 833 824 
814 824 833 834 825 
815 825 834 835 826 
816 826 835 836 827 
817 827 836 837 828 
818 828 837 838 829 
819 829 838 839 830 
820 830 839 840 831 
821 831 840 841 832 
822 832 841 114 113 
823 81 82 842 833 
824 833 842 843 834 
825 834 843 844 835 
826 835 844 845 836 
827 836 845 846 837 
828 837 846 847 838 
829 838 847 848 839 
830 839 848 849 840 
831 840 849 850 841 
832 841 850 115 114 
833 82 7 212 842 
834 842 212 213 843 
835 843 213 214 844 
836 844 214 215 845 
837 845 215 216 846 
838 846 216 217 847 
839 847 217 218 848 
840 848 218 219 849 
841 849 219 220 850 
842 850 220 11 115 
2 6 3 10
843 7 8 239 212 
844 212 239 240 213 
845 213 240 241 214 
846 214 241 242 215 
847 215 242 243 216 
848 216 243 244 217 
849 217 244 245 218 
850 218 245 246 219 
851 219 246 247 220 
852 220 247 12 11 
2 7 3 10
853 9 10 194 167 
854 167 194 195 168 
855 168 195 196 169 
856 169 196 197 170 
857 170 197 198 171 
858 171 198 199 172 
859 172 199 200 173 
860 173 200 201 174 
861 174 201 202 175 
862 175 202 14 13 
2 8 3 340
863 10 83 851 194 
864 194 851 852 195 
865 195 852 853 196 
866 196 853 854 197 
867 197 854 855 198 
868 198 855 856 199 
869 199 856 857 200 
870 200 857 858 201 
871 201 858 859 202 
872 202 859 116 14 
873 83 84 860 851 
874 851 860 861 852 
875 852 861 862 853 
876 853 862 863 854 
877 854 863 864 855 
878 855 864 865 856 
879 856 865 866 857 
880 857 866 867 858 
881 858 867 868 859 
882 859 868 117 116 
883 84 85 869 860 
884 860 869 870 861 
885 861 870 871 862 
886 862 871 872 863 
887 863 872 873 864 
888 864 873 874 865 
889 865 874 875 866 
890 866 875 876 867 
891 867 876 877 868 
892 868 877 118 117 
893 85 86 878 869 
894 869 878 879 870 
895 870 879 880 871 
896 871 880 881 872 
897 872 881 882 873 
898 873 882 883 874 
899 874 883 884 875 
900 875 884 885 876 
901 876 885 886 877 
902 877 886 119 118 
903 86 87 887 878 
904 878 887 888 879 
905 879 888 889 880 
906 880 889 890 881 
907 881 890 891 882 
908 882 891 892 883 
909 883 892 893 884 
910 884 893 894 885 
911 885 894 895 886 
912 886 895 120 119 
913 87 88 896 887 
914 887 896 897 888 
915 888 897 898 889 
916 889 898 899 890 
917 890 899 900 891 
918 891 900 901 892 
919 892 901 902 893 
920 893 902 903 894 
921 894 903 904 895 
922 895 904 121 120 
923 88 89 905 896 
924 896 905 906 897 
925 897 906 907 898 
926 898 907 908 899 
927 899 908 909 900 
928 900 909 910 901 
929 901 910 911 902 
930 902 911 912 903 
931 903 912 913 904 
932 904 913 122 121 
933 89 90 914 905 
934 905 914 915 906 
935 906 915 916 907 
936 907 916 917 908 
937 908 917 918 909 
938 909 918 919 910 
939 910 919 920 911 
940 911 920 921 912 
941 912 921 922 913 
942 913 922 123 122 
943 90 91 923 914 
944 914 923 924 915 
945 915 924 925 916 
946 916 925 926 917 
947 917 926 927 918 
948 918 927 928 919 
949 919 928 929 920 
950 920 929 930 921 
951 921 930 931 922 
952 922 931 124 123 
953 91 92 932 923 
954 923 932 933 924 
955 924 933 934 925 
956 925 934 935 926 
957 926 935 936 927 
958 927 936 937 928 
959 928 937 938 929 
960 929 938 939 930 
961 930 939 940 931 
962 931 940 125 124 
963 92 93 941 932 
964 932 941 942 933 
965 933 942 943 934 
966 934 943 944 935 
967 935 944 945 936 
968 936 945 946 937 
969 937 946 947 938 
970 938 947 948 939 
971 939 948 949 940 
972 940 949 126 125 
973 93 94 950 941 
974 941 950 951 942 
975 942 951 952 943 
976 943 952 953 944 
977 944 953 954 945 
978 945 954 955 946 
979 946 955 956 947 
980 947 956 957 948 
981 948 957 958 949 
982 949 958 127 126 
983 94 95 959 950 
984 950 959 960 951 
985 951 960 961 952 
986 952 961 962 953 
987 953 962 963 954 
988 954 963 964 955 
989 955 964 965 956 
990 956 965 966 957 
991 957 966 967 958 
992 958 967 128 127 
993 95 96 968 959 
994 959 968 969 960 
995 960 969 970 961 
996 961 970 971 962 
997 962 971 972 963 
998 963 972 973 964 
999 964 973 974 965 
1000 965 974 975 966 
1001 966 975 976 967 
1002 967 976 129 128 
1003 96 97 977 968 
1004 968 977 978 969 
1005 969 978 979 970 
1006 970 979 980 971 
1007 971 980 981 972 
1008 972 981 982 973 
1009 973 982 983 974 
1010 974 983 984 975 
1011 975 984 985 976 
1012 976 985 130 129 
1013 97 98 986 977 
1014 977 986 987 978 
1015 978 987 988 979 
1016 979 988 989 980 
1017 980 989 990 981 
1018 981 990 991 982 
1019 982 991 992 983 
1020 983 992 993 984 
1021 984 993 994 985 
1022 985 994 131 130 
1023 98 99 995 986 
1024 986 995 996 987 
1025 987 996 997 988 
1026 988 997 998 989 
1027 989 998 999 990 
1028 990 999 1000 991 
1029 991 1000 1001 992 
1030 992 1001 1002 993 
1031 993 1002 1003 994 
1032 994 1003 132 131 
1033 99 100 1004 995 
1034 995 1004 1005 996 
1035 996 1005 1006 997 
1036 997 1006 1007 998 
1037 998 1007 1008 999 
1038 999 1008 1009 1000 
1039 1000 1009 1010 1001 
1040 1001 1010 1011 1002 
1041 1002 1011 1012 1003 
1042 1003 1012 133 132 
1043 100 101 1013 1004 
1044 1004 1013 1014 1005 
1045 1005 1014 1015 1006 
1046 1006 1015 1016 1007 
1047 1007 1016 1017 1008 
1048 1008 1017 1018 1009 
1049 1009 1018 1019 1010 
1050 1010 1019 1020 1011 
1051 1011 1020 1021 1012 
1052 1012 1021 134 133 
1053 101 102 1022 1013 
1054 1013 1022 1023 1014 
1055 1014 1023 1024 1015 
1056 1015 1024 1025 1016 
1057 1016 1025 1026 1017 
1058 1017 1026 1027 1018 
1059 1018 1027 1028 1019 
1060 1019 1028 1029 1020 
1061 1020 1029 1030 1021 
1062 1021 1030 135 134 
1063 102 103 1031 1022 
1064 1022 1031 1032 1023 
1065 1023 1032 1033 1024 
1066 1024 1033 1034 1025 
1067 1025 1034 1035 1026 
1068 1026 1035 1036 1027 
1069 1027 1036 1037 1028 
1070 1028 1037 1038 1029 
1071 1029 1038 1039 1030 
1072 1030 1039 136 135 
1073 103 104 1040 1031 
1074 1031 1040 1041 1032 
1075 1032 1041 1042 1033 
1076 1033 1042 1043 1034 
1077 1034 1043 1044 1035 
1078 1035 1044 1045 1036 
1079 1036 1045 1046 1037 
1080 1037 1046 1047 1038 
1081 1038 1047 1048 1039 
1082 1039 1048 137 136 
1083 104 105 1049 1040 
1084 1040 1049 1050 1041 
1085 1041 1050 1051 1042 
1086 1042 1051 1052 1043 
1087 1043 1052 1053 1044 
1088 1044 1053 1054 1045 
1089 1045 1054 1055 1046 
1090 1046 1055 1056 1047 
1091 1047 1056 1057 1048 
1092 1048 1057 138 137 
1093 105 106 1058 1049 
1094 1049 1058 1059 1050 
1095 1050 1059 1060 1051 
1096 1051 1060 1061 1052 
1097 1052 1061 1062 1053 
1098 1053 1062 1063 1054 
1099 1054 1063 1064 1055 
1100 1055 1064 1065 1056 
1101 1056 1065 1066 1057 
1102 1057 1066 139 138 
1103 106 107 1067 1058 
1104 1058 1067 1068 1059 
1105 1059 1068 1069 1060 
1106 1060 1069 1070 1061 
1107 1061 1070 1071 1062 
1108 1062 1071 1072 1063 
1109 1063 1072 1073 1064 
1110 1064 1073 1074 1065 
1111 1065 1074 1075 1066 
1112 1066 1075 140 139 
1113 107 108 1076 1067 
1114 1067 1076 1077 1068 
1115 1068 1077 1078 1069 
1116 1069 1078 1079 1070 
1117 1070 1079 1080 1071 
1118 1071 1080 1081 1072 
1119 1072 1081 1082 1073 
1120 1073 1082 1083 1074 
1121 1074 1083 1084 1075 
1122 1075 1084 141 140 
1123 108 109 1085 1076 
1124 1076 1085 1086 1077 
1125 1077 1086 1087 1078 
1126 1078 1087 1088 1079 
1127 1079 1088 1089 1080 
1128 1080 1089 1090 1081 
1129 1081 1090 1091 1082 
1130 1082 1091 1092 1083 
1131 1083 1092 1093 1084 
1132 1084 1093 142 141 
1133 109 110 1094 1085 
1134 1085 1094 1095 1086 
1135 1086 1095 1096 1087 
1136 1087 1096 1097 1088 
1137 1088 1097 1098 1089 
1138 1089 1098 1099 1090 
1139 1090 1099 1100 1091 
1140 1091 1100 1101 1092 
1141 1092 1101 1102 1093 
1142 1093 1102 143 142 
1143 110 111 1103 1094 
1144 1094 1103 1104 1095 
1145 1095 1104 1105 1096 
1146 1096 1105 1106 1097 
1147 1097 1106 1107 1098 
1148 1098 1107 1108 1099 
1149 1099 1108 1109 1100 
1150 1100 1109 1110 1101 
1151 1101 1110 1111 1102 
1152 1102 1111 144 143 
1153 111 112 1112 1103 
1154 1103 1112 1113 1104 
1155 1104 1113 1114 1105 
1156 1105 1114 1115 1106 
1157 1106 1115 1116 1107 
1158 1107 1116 1117 1108 
1159 1108 1117 1118 1109 
1160 1109 1118 1119 1110 
1161 1110 1119 1120 1111 
1162 1111 1120 145 144 
1163 112 113 1121 1112 
1164 1112 1121 1122 1113 
1165 1113 1122 1123 1114 
1166 1114 1123 1124 1115 
1167 1115 1124 1125 1116 
1168 1116 1125 1126 1117 
1169 1117 1126 1127 1118 
1170 1118 1127 1128 1119 
1171 1119 1128 1129 1120 
1172 1120 1129 146 145 
1173 113 114 1130 1121 
1174 1121 1130 1131 1122 
1175 1122 1131 1132 1123 
1176 1123 1132 1133 1124 
1177 1124 1133 1134 1125 
1178 1125 1134 1135 1126 
1179 1126 1135 1136 1127 
1180 1127 1136 1137 1128 
1181 1128 1137 1138 1129 
1182 1129 1138 147 146 
1183 114 115 1139 1130 
1184 1130 1139 1140 1131 
1185 1131 1140 1141 1132 
1186 1132 1141 1142 1133 
1187 1133 1142 1143 1134 
1188 1134 1143 1144 1135 
1189 1135 1144 1145 1136 
1190 1136 1145 1146 1137 
1191 1137 1146 1147 1138 
1192 1138 1147 148 147 
1193 115 11 221 1139 
1194 1139 221 222 1140 
1195 1140 222 223 1141 
1196 1141 223 224 1142 
1197 1142 224 225 1143 
1198 1143 225 226 1144 
1199 1144 226 227 1145 
1200 1145 227 228 1146 
1201 1146 228 229 1147 
1202 1147 229 15 148 
2 9 3 10
1203 11 12 248 221 
1204 221 248 249 222 
1205 222 249 250 223 
1206 223 250 251 224 
1207 224 251 252 225 
1208 225 252 253 226 
1209 226 253 254 227 
1210 227 254 255 228 
1211 228 255 256 229 
1212 229 256 16 15 
$EndElements
