$MeshFormat
4.1 0 8
$EndMeshFormat
$PhysicalNames
8
1 3 "inlet"
1 4 "outlet"
1 5 "bottom"
1 6 "top"
1 7 "left"
1 8 "right"
2 1 "fracture"
2 2 "matrix"
$EndPhysicalNames
$Entities
16 24 9 0
1 0 0 0 0 
2 0.1 0 0 0 
3 9.9 0 0 0 
4 10 0 0 0 
5 0 50 0 0 
6 0.1 50 0 0 
7 9.9 50 0 0 
8 10 50 0 0 
9 0 100 0 0 
10 0.1 100 0 0 
11 9.9 100 0 0 
12 10 100 0 0 
13 0 150 0 0 
14 0.1 150 0 0 
15 9.9 150 0 0 
16 10 150 0 0 
1 0 0 0 0.1 0 0 1 3 2 1 -2 
2 0.09999999999999964 0 0 9.9 0 0 1 5 2 2 -3 
3 9.9 0 0 10 0 0 1 5 2 3 -4 
4 0 50 0 0.1 50 0 0 2 5 -6 
5 0.09999999999999964 50 0 9.9 50 0 0 2 6 -7 
6 9.9 50 0 10 50 0 0 2 7 -8 
7 0 100 0 0.1 100 0 0 2 9 -10 
8 0.09999999999999964 100 0 9.9 100 0 0 2 10 -11 
9 9.9 100 0 10 100 0 0 2 11 -12 
10 0 150 0 0.1 150 0 1 6 2 13 -14 
11 0.09999999999999964 150 0 9.9 150 0 1 6 2 14 -15 
12 9.9 150 0 10 150 0 1 4 2 15 -16 
13 0 0 0 0 50 0 1 7 2 1 -5 
14 0 50 0 0 100 0 1 7 2 5 -9 
15 0 100 0 0 150 0 1 7 2 9 -13 
16 0.1 0 0 0.1 50 0 0 2 2 -6 
17 0.1 50 0 0.1 100 0 0 2 6 -10 
18 0.1 100 0 0.1 150 0 0 2 10 -14 
19 9.9 0 0 9.9 50 0 0 2 3 -7 
20 9.9 50 0 9.9 100 0 0 2 7 -11 
21 9.9 100 0 9.9 150 0 0 2 11 -15 
22 10 0 0 10 50 0 1 8 2 4 -8 
23 10 50 0 10 100 0 1 8 2 8 -12 
24 10 100 0 10 150 0 1 8 2 12 -16 
1 0 0 0 0.1 50 0 1 1 4 1 16 -4 -13 
2 0.09999999999999964 0 0 9.9 50 0 1 2 4 2 19 -5 -16 
3 9.9 0 0 10 50 0 1 2 4 3 22 -6 -19 
4 0 50 0 0.1 100 0 1 1 4 4 17 -7 -14 
5 0.09999999999999964 50 0 9.9 100 0 1 2 4 5 20 -8 -17 
6 9.9 50 0 10 100 0 1 1 4 6 23 -9 -20 
7 0 100 0 0.1 150 0 1 2 4 7 18 -10 -15 
8 0.09999999999999964 100 0 9.9 150 0 1 2 4 8 21 -11 -18 
9 9.9 100 0 10 150 0 1 1 4 9 24 -12 -21 
$EndEntities
$Nodes
45 1023 1 1023
0 1 0 1
1
0 0 0
0 2 0 1
2
0.1 0 0
0 3 0 1
3
9.9 0 0
0 4 0 1
4
10 0 0
0 5 0 1
5
0 50 0
0 6 0 1
6
0.1 50 0
0 7 0 1
7
9.9 50 0
0 8 0 1
8
10 50 0
0 9 0 1
9
0 100 0
0 10 0 1
10
0.1 100 0
0 11 0 1
11
9.9 100 0
0 12 0 1
12
10 100 0
0 13 0 1
13
0 150 0
0 14 0 1
14
0.1 150 0
0 15 0 1
15
9.9 150 0
0 16 0 1
16
10 150 0
1 1 0 0
1 2 0 29
17
18
19
20
21
22
23
24
25
26
27
28
29
30
31
32
33
34
35
36
37
38
39
40
41
42
43
44
45
0.1703639201784033 0 0
0.258621089968234 0 0
0.3688604933993918 0 0
0.5058414247786202 0 0
0.6749526691148449 0 0
0.8820703638499533 0 0
1.133269803897619 0 0
1.434347981148794 0 0
1.790131179848652 0 0
2.203585966549016 0 0
2.674824859699504 0 0
3.200187978645607 0 0
3.771659759829202 0 0
4.376891371231332 0 0
4.999999999974656 0 0
5.623108628722219 0 0
6.228340240129547 0 0
6.799812021318909 0 0
7.325175140271096 0 0
7.796414033427684 0 0
8.209868820133195 0 0
8.565652018837481 0 0
8.866730196092352 0 0
9.117929636142827 0 0
9.325047330880167 0 0
9.494158575218171 0 0
9.631139506598686 0 0
9.741378910030734 0 0
9.829636079821183 0 0
1 3 0 0
1 5 0 29
46
47
48
49
50
51
52
53
54
55
56
57
58
59
60
61
62
63
64
65
66
67
68
69
70
71
72
73
74
0.1703639201784033 50 0
0.258621089968234 50 0
0.3688604933993918 50 0
0.5058414247786202 50 0
0.6749526691148449 50 0
0.8820703638499533 50 0
1.133269803897619 50 0
1.434347981148794 50 0
1.790131179848652 50 0
2.203585966549016 50 0
2.674824859699504 50 0
3.200187978645607 50 0
3.771659759829202 50 0
4.376891371231332 50 0
4.999999999974656 50 0
5.623108628722219 50 0
6.228340240129547 50 0
6.799812021318909 50 0
7.325175140271096 50 0
7.796414033427684 50 0
8.209868820133195 50 0
8.565652018837481 50 0
8.866730196092352 50 0
9.117929636142827 50 0
9.325047330880167 50 0
9.494158575218171 50 0
9.631139506598686 50 0
9.741378910030734 50 0
9.829636079821183 50 0
1 8 0 29
75
76
77
78
79
80
81
82
83
84
85
86
87
88
89
90
91
92
93
94
95
96
97
98
99
100
101
102
103
0.1703639201784033 100 0
0.258621089968234 100 0
0.3688604933993918 100 0
0.5058414247786202 100 0
0.6749526691148449 100 0
0.8820703638499533 100 0
1.133269803897619 100 0
1.434347981148794 100 0
1.790131179848652 100 0
2.203585966549016 100 0
2.674824859699504 100 0
3.200187978645607 100 0
3.771659759829202 100 0
4.376891371231332 100 0
4.999999999974656 100 0
5.623108628722219 100 0
6.228340240129547 100 0
6.799812021318909 100 0
7.325175140271096 100 0
7.796414033427684 100 0
8.209868820133195 100 0
8.565652018837481 100 0
8.866730196092352 100 0
9.117929636142827 100 0
9.325047330880167 100 0
9.494158575218171 100 0
9.631139506598686 100 0
9.741378910030734 100 0
9.829636079821183 100 0
1 10 0 0
1 11 0 29
104
105
106
107
108
109
110
111
112
113
114
115
116
117
118
119
120
121
122
123
124
125
126
127
128
129
130
131
132
0.1703639201784033 150 0
0.258621089968234 150 0
0.3688604933993918 150 0
0.5058414247786202 150 0
0.6749526691148449 150 0
0.8820703638499533 150 0
1.133269803897619 150 0
1.434347981148794 150 0
1.790131179848652 150 0
2.203585966549016 150 0
2.674824859699504 150 0
3.200187978645607 150 0
3.771659759829202 150 0
4.376891371231332 150 0
4.999999999974656 150 0
5.623108628722219 150 0
6.228340240129547 150 0
6.799812021318909 150 0
7.325175140271096 150 0
7.796414033427684 150 0
8.209868820133195 150 0
8.565652018837481 150 0
8.866730196092352 150 0
9.117929636142827 150 0
9.325047330880167 150 0
9.494158575218171 150 0
9.631139506598686 150 0
9.741378910030734 150 0
9.829636079821183 150 0
1 12 0 0
1 13 0 9
133
134
135
136
137
138
139
140
141
0 4.99999999998078 0
0 9.999999999957042 0
0 14.99999999993109 0
0 19.99999999992 0
0 24.99999999991182 0
0 29.99999999990365 0
0 34.99999999991795 0
0 39.9999999999453 0
0 44.99999999997265 0
1 14 0 9
142
143
144
145
146
147
148
149
150
0 54.99999999994839 0
0 59.99999999989678 0
0 64.99999999984517 0
0 69.99999999979357 0
0 74.99999999974196 0
0 79.99999999969032 0
0 84.9999999997286 0
0 89.99999999981907 0
0 94.99999999990953 0
1 15 0 9
151
152
153
154
155
156
157
158
159
0 104.9999999999373 0
0 109.9999999998746 0
0 114.9999999998118 0
0 119.9999999997491 0
0 124.9999999996864 0
0 129.9999999996825 0
0 134.9999999997619 0
0 139.9999999998412 0
0 144.9999999999206 0
1 16 0 9
160
161
162
163
164
165
166
167
168
0.1 4.99999999998078 0
0.1 9.999999999957042 0
0.1 14.99999999993109 0
0.1 19.99999999992 0
0.1 24.99999999991182 0
0.1 29.99999999990365 0
0.1 34.99999999991795 0
0.1 39.9999999999453 0
0.1 44.99999999997265 0
1 17 0 9
169
170
171
172
173
174
175
176
177
0.1 54.99999999994839 0
0.1 59.99999999989678 0
0.1 64.99999999984517 0
0.1 69.99999999979357 0
0.1 74.99999999974196 0
0.1 79.99999999969032 0
0.1 84.9999999997286 0
0.1 89.99999999981907 0
0.1 94.99999999990953 0
1 18 0 9
178
179
180
181
182
183
184
185
186
0.1 104.9999999999373 0
0.1 109.9999999998746 0
0.1 114.9999999998118 0
0.1 119.9999999997491 0
0.1 124.9999999996864 0
0.1 129.9999999996825 0
0.1 134.9999999997619 0
0.1 139.9999999998412 0
0.1 144.9999999999206 0
1 19 0 9
187
188
189
190
191
192
193
194
195
9.9 4.99999999998078 0
9.9 9.999999999957042 0
9.9 14.99999999993109 0
9.9 19.99999999992 0
9.9 24.99999999991182 0
9.9 29.99999999990365 0
9.9 34.99999999991795 0
9.9 39.9999999999453 0
9.9 44.99999999997265 0
1 20 0 9
196
197
198
199
200
201
202
203
204
9.9 54.99999999994839 0
9.9 59.99999999989678 0
9.9 64.99999999984517 0
9.9 69.99999999979357 0
9.9 74.99999999974196 0
9.9 79.99999999969032 0
9.9 84.9999999997286 0
9.9 89.99999999981907 0
9.9 94.99999999990953 0
1 21 0 9
205
206
207
208
209
210
211
212
213
9.9 104.9999999999373 0
9.9 109.9999999998746 0
9.9 114.9999999998118 0
9.9 119.9999999997491 0
9.9 124.9999999996864 0
9.9 129.9999999996825 0
9.9 134.9999999997619 0
9.9 139.9999999998412 0
9.9 144.9999999999206 0
1 22 0 9
214
215
216
217
218
219
220
221
222
10 4.99999999998078 0
10 9.999999999957042 0
10 14.99999999993109 0
10 19.99999999992 0
10 24.99999999991182 0
10 29.99999999990365 0
10 34.99999999991795 0
10 39.9999999999453 0
10 44.99999999997265 0
1 23 0 9
223
224
225
226
227
228
229
230
231
10 54.99999999994839 0
10 59.99999999989678 0
10 64.99999999984517 0
10 69.99999999979357 0
10 74.99999999974196 0
10 79.99999999969032 0
10 84.9999999997286 0
10 89.99999999981907 0
10 94.99999999990953 0
1 24 0 9
232
233
234
235
236
237
238
239
240
10 104.9999999999373 0
10 109.9999999998746 0
10 114.9999999998118 0
10 119.9999999997491 0
10 124.9999999996864 0
10 129.9999999996825 0
10 134.9999999997619 0
10 139.9999999998412 0
10 144.9999999999206 0
2 1 0 0
2 2 0 261
241
242
243
244
245
246
247
248
249
250
251
252
253
254
255
256
257
258
259
260
261
262
263
264
265
266
267
268
269
270
271
272
273
274
275
276
277
278
279
280
281
282
283
284
285
286
287
288
289
290
291
292
293
294
295
296
297
298
299
300
301
302
303
304
305
306
307
308
309
310
311
312
313
314
315
316
317
318
319
320
321
322
323
324
325
326
327
328
329
330
331
332
333
334
335
336
337
338
339
340
341
342
343
344
345
346
347
348
349
350
351
352
353
354
355
356
357
358
359
360
361
362
363
364
365
366
367
368
369
370
371
372
373
374
375
376
377
378
379
380
381
382
383
384
385
386
387
388
389
390
391
392
393
394
395
396
397
398
399
400
401
402
403
404
405
406
407
408
409
410
411
412
413
414
415
416
417
418
419
420
421
422
423
424
425
426
427
428
429
430
431
432
433
434
435
436
437
438
439
440
441
442
443
444
445
446
447
448
449
450
451
452
453
454
455
456
457
458
459
460
461
462
463
464
465
466
467
468
469
470
471
472
473
474
475
476
477
478
479
480
481
482
483
484
485
486
487
488
489
490
491
492
493
494
495
496
497
498
499
500
501
0.1703639201784033 4.99999999998078 0
0.1703639201784034 9.999999999957042 0
0.1703639201784033 14.99999999993109 0
0.1703639201784034 19.99999999992 0
0.1703639201784033 24.99999999991182 0
0.1703639201784033 29.99999999990365 0
0.1703639201784033 34.99999999991795 0
0.1703639201784033 39.9999999999453 0
0.1703639201784033 44.99999999997265 0
0.258621089968234 4.99999999998078 0
0.2586210899682341 9.999999999957042 0
0.258621089968234 14.99999999993109 0
0.258621089968234 19.99999999992 0
0.258621089968234 24.99999999991182 0
0.258621089968234 29.99999999990364 0
0.258621089968234 34.99999999991795 0
0.258621089968234 39.99999999994531 0
0.258621089968234 44.99999999997264 0
0.3688604933993917 4.99999999998078 0
0.3688604933993918 9.999999999957046 0
0.3688604933993918 14.99999999993109 0
0.3688604933993918 19.99999999992 0
0.3688604933993918 24.99999999991182 0
0.3688604933993917 29.99999999990365 0
0.3688604933993918 34.99999999991795 0
0.3688604933993918 39.9999999999453 0
0.3688604933993918 44.99999999997265 0
0.5058414247786202 4.99999999998078 0
0.5058414247786202 9.999999999957042 0
0.50584142477862 14.99999999993109 0
0.5058414247786202 19.99999999992 0
0.5058414247786202 24.99999999991182 0
0.5058414247786202 29.99999999990364 0
0.5058414247786202 34.99999999991795 0
0.50584142477862 39.99999999994531 0
0.50584142477862 44.99999999997265 0
0.6749526691148445 4.99999999998078 0
0.674952669114845 9.999999999957042 0
0.6749526691148449 14.99999999993109 0
0.6749526691148446 19.99999999992 0
0.6749526691148449 24.99999999991183 0
0.6749526691148447 29.99999999990364 0
0.6749526691148449 34.99999999991796 0
0.6749526691148449 39.9999999999453 0
0.6749526691148449 44.99999999997265 0
0.8820703638499532 4.99999999998078 0
0.8820703638499531 9.999999999957042 0
0.8820703638499533 14.99999999993109 0
0.8820703638499532 19.99999999992 0
0.8820703638499531 24.99999999991182 0
0.8820703638499532 29.99999999990364 0
0.8820703638499532 34.99999999991795 0
0.8820703638499532 39.9999999999453 0
0.8820703638499531 44.99999999997266 0
1.133269803897619 4.99999999998078 0
1.133269803897619 9.999999999957042 0
1.133269803897619 14.99999999993109 0
1.133269803897619 19.99999999992 0
1.133269803897619 24.99999999991182 0
1.133269803897619 29.99999999990365 0
1.133269803897619 34.99999999991795 0
1.133269803897619 39.9999999999453 0
1.133269803897619 44.99999999997265 0
1.434347981148794 4.99999999998078 0
1.434347981148794 9.999999999957041 0
1.434347981148794 14.99999999993109 0
1.434347981148794 19.99999999992 0
1.434347981148794 24.99999999991182 0
1.434347981148794 29.99999999990364 0
1.434347981148794 34.99999999991795 0
1.434347981148794 39.9999999999453 0
1.434347981148794 44.99999999997263 0
1.790131179848651 4.99999999998078 0
1.790131179848652 9.999999999957042 0
1.790131179848652 14.99999999993109 0
1.790131179848651 19.99999999992 0
1.790131179848651 24.99999999991182 0
1.790131179848652 29.99999999990364 0
1.790131179848652 34.99999999991795 0
1.790131179848652 39.99999999994531 0
1.790131179848652 44.99999999997265 0
2.203585966549016 4.99999999998078 0
2.203585966549017 9.999999999957041 0
2.203585966549017 14.99999999993109 0
2.203585966549016 19.99999999992 0
2.203585966549016 24.99999999991183 0
2.203585966549016 29.99999999990364 0
2.203585966549016 34.99999999991796 0
2.203585966549017 39.9999999999453 0
2.203585966549016 44.99999999997264 0
2.674824859699504 4.99999999998078 0
2.674824859699503 9.999999999957042 0
2.674824859699503 14.99999999993109 0
2.674824859699503 19.99999999992 0
2.674824859699504 24.99999999991182 0
2.674824859699503 29.99999999990364 0
2.674824859699503 34.99999999991795 0
2.674824859699503 39.9999999999453 0
2.674824859699503 44.99999999997266 0
3.200187978645607 4.99999999998078 0
3.200187978645606 9.999999999957042 0
3.200187978645607 14.99999999993109 0
3.200187978645608 19.99999999992 0
3.200187978645607 24.99999999991182 0
3.200187978645607 29.99999999990365 0
3.200187978645607 34.99999999991795 0
3.200187978645606 39.9999999999453 0
3.200187978645608 44.99999999997265 0
3.771659759829203 4.999999999980781 0
3.771659759829202 9.999999999957041 0
3.771659759829202 14.99999999993109 0
3.771659759829202 19.99999999992 0
3.771659759829202 24.99999999991183 0
3.771659759829202 29.99999999990365 0
3.771659759829201 34.99999999991795 0
3.771659759829201 39.9999999999453 0
3.771659759829202 44.99999999997266 0
4.376891371231332 4.99999999998078 0
4.376891371231332 9.999999999957044 0
4.376891371231332 14.99999999993109 0
4.376891371231333 19.99999999992 0
4.376891371231332 24.99999999991182 0
4.376891371231332 29.99999999990365 0
4.376891371231332 34.99999999991796 0
4.376891371231332 39.9999999999453 0
4.376891371231332 44.99999999997264 0
4.999999999974655 4.99999999998078 0
4.999999999974656 9.999999999957042 0
4.999999999974656 14.99999999993109 0
4.999999999974654 19.99999999992 0
4.999999999974656 24.99999999991182 0
4.999999999974656 29.99999999990364 0
4.999999999974656 34.99999999991795 0
4.999999999974656 39.9999999999453 0
4.999999999974656 44.99999999997265 0
5.623108628722219 4.99999999998078 0
5.623108628722219 9.999999999957044 0
5.62310862872222 14.99999999993109 0
5.62310862872222 19.99999999992 0
5.623108628722219 24.99999999991182 0
5.623108628722219 29.99999999990364 0
5.623108628722219 34.99999999991795 0
5.62310862872222 39.9999999999453 0
5.62310862872222 44.99999999997266 0
6.228340240129548 4.99999999998078 0
6.228340240129547 9.999999999957042 0
6.228340240129546 14.9999999999311 0
6.228340240129547 19.99999999992 0
6.228340240129547 24.99999999991182 0
6.228340240129546 29.99999999990364 0
6.228340240129545 34.99999999991795 0
6.228340240129546 39.9999999999453 0
6.228340240129548 44.99999999997266 0
6.799812021318909 4.99999999998078 0
6.799812021318911 9.999999999957042 0
6.799812021318908 14.9999999999311 0
6.799812021318909 19.99999999992 0
6.799812021318908 24.99999999991182 0
6.799812021318909 29.99999999990364 0
6.799812021318909 34.99999999991795 0
6.799812021318909 39.9999999999453 0
6.799812021318908 44.99999999997265 0
7.325175140271095 4.99999999998078 0
7.325175140271096 9.999999999957044 0
7.325175140271097 14.99999999993109 0
7.325175140271096 19.99999999992 0
7.325175140271097 24.99999999991182 0
7.325175140271096 29.99999999990365 0
7.325175140271097 34.99999999991796 0
7.325175140271096 39.9999999999453 0
7.325175140271097 44.99999999997267 0
7.796414033427686 4.99999999998078 0
7.796414033427685 9.999999999957044 0
7.796414033427685 14.99999999993109 0
7.796414033427686 19.99999999992 0
7.796414033427683 24.99999999991183 0
7.796414033427686 29.99999999990364 0
7.796414033427683 34.99999999991795 0
7.796414033427686 39.9999999999453 0
7.796414033427683 44.99999999997266 0
8.209868820133195 4.99999999998078 0
8.209868820133195 9.999999999957042 0
8.209868820133195 14.99999999993109 0
8.209868820133195 19.99999999992 0
8.209868820133194 24.99999999991182 0
8.209868820133195 29.99999999990365 0
8.209868820133195 34.99999999991795 0
8.209868820133195 39.99999999994531 0
8.209868820133195 44.99999999997265 0
8.565652018837485 4.999999999980781 0
8.565652018837481 9.999999999957042 0
8.565652018837481 14.9999999999311 0
8.565652018837483 19.99999999992 0
8.565652018837481 24.99999999991182 0
8.565652018837481 29.99999999990364 0
8.565652018837483 34.99999999991796 0
8.565652018837481 39.9999999999453 0
8.565652018837481 44.99999999997265 0
8.866730196092352 4.999999999980781 0
8.86673019609235 9.999999999957042 0
8.866730196092352 14.99999999993109 0
8.866730196092352 19.99999999992 0
8.86673019609235 24.99999999991182 0
8.866730196092352 29.99999999990364 0
8.86673019609235 34.99999999991795 0
8.86673019609235 39.9999999999453 0
8.866730196092352 44.99999999997265 0
9.117929636142833 4.99999999998078 0
9.117929636142829 9.999999999957042 0
9.117929636142827 14.99999999993109 0
9.117929636142826 19.99999999992 0
9.117929636142827 24.99999999991182 0
9.117929636142827 29.99999999990364 0
9.117929636142827 34.99999999991795 0
9.117929636142827 39.9999999999453 0
9.117929636142827 44.99999999997265 0
9.325047330880167 4.99999999998078 0
9.325047330880167 9.999999999957042 0
9.325047330880166 14.99999999993109 0
9.325047330880167 19.99999999992 0
9.325047330880167 24.99999999991182 0
9.325047330880167 29.99999999990365 0
9.325047330880167 34.99999999991796 0
9.325047330880167 39.9999999999453 0
9.325047330880167 44.99999999997265 0
9.494158575218169 4.99999999998078 0
9.494158575218169 9.999999999957042 0
9.494158575218171 14.99999999993109 0
9.494158575218167 19.99999999992 0
9.494158575218171 24.99999999991182 0
9.494158575218169 29.99999999990365 0
9.494158575218167 34.99999999991795 0
9.494158575218167 39.9999999999453 0
9.494158575218167 44.99999999997265 0
9.631139506598686 4.99999999998078 0
9.631139506598689 9.999999999957042 0
9.631139506598689 14.99999999993109 0
9.631139506598686 19.99999999992 0
9.631139506598686 24.99999999991182 0
9.631139506598686 29.99999999990365 0
9.631139506598686 34.99999999991796 0
9.631139506598684 39.9999999999453 0
9.631139506598688 44.99999999997265 0
9.741378910030738 4.999999999980781 0
9.741378910030738 9.999999999957044 0
9.741378910030734 14.99999999993109 0
9.741378910030731 19.99999999992 0
9.741378910030734 24.99999999991183 0
9.741378910030734 29.99999999990364 0
9.741378910030734 34.99999999991795 0
9.741378910030734 39.99999999994531 0
9.741378910030733 44.99999999997265 0
9.829636079821185 4.99999999998078 0
9.829636079821183 9.999999999957042 0
9.829636079821187 14.99999999993109 0
9.829636079821183 19.99999999992 0
9.829636079821181 24.99999999991182 0
9.829636079821183 29.99999999990365 0
9.829636079821183 34.99999999991796 0
9.829636079821181 39.9999999999453 0
9.829636079821183 44.99999999997264 0
2 3 0 0
2 4 0 0
2 5 0 261
502
503
504
505
506
507
508
509
510
511
512
513
514
515
516
517
518
519
520
521
522
523
524
525
526
527
528
529
530
531
532
533
534
535
536
537
538
539
540
541
542
543
544
545
546
547
548
549
550
551
552
553
554
555
556
557
558
559
560
561
562
563
564
565
566
567
568
569
570
571
572
573
574
575
576
577
578
579
580
581
582
583
584
585
586
587
588
589
590
591
592
593
594
595
596
597
598
599
600
601
602
603
604
605
606
607
608
609
610
611
612
613
614
615
616
617
618
619
620
621
622
623
624
625
626
627
628
629
630
631
632
633
634
635
636
637
638
639
640
641
642
643
644
645
646
647
648
649
650
651
652
653
654
655
656
657
658
659
660
661
662
663
664
665
666
667
668
669
670
671
672
673
674
675
676
677
678
679
680
681
682
683
684
685
686
687
688
689
690
691
692
693
694
695
696
697
698
699
700
701
702
703
704
705
706
707
708
709
710
711
712
713
714
715
716
717
718
719
720
721
722
723
724
725
726
727
728
729
730
731
732
733
734
735
736
737
738
739
740
741
742
743
744
745
746
747
748
749
750
751
752
753
754
755
756
757
758
759
760
761
762
0.1703639201784033 54.99999999994839 0
0.1703639201784033 59.99999999989679 0
0.1703639201784033 64.99999999984517 0
0.1703639201784033 69.99999999979357 0
0.1703639201784033 74.99999999974196 0
0.1703639201784033 79.99999999969032 0
0.1703639201784033 84.9999999997286 0
0.1703639201784033 89.99999999981907 0
0.1703639201784033 94.99999999990953 0
0.258621089968234 54.99999999994839 0
0.2586210899682341 59.99999999989679 0
0.258621089968234 64.99999999984517 0
0.258621089968234 69.99999999979357 0
0.258621089968234 74.99999999974196 0
0.258621089968234 79.99999999969032 0
0.258621089968234 84.9999999997286 0
0.258621089968234 89.99999999981907 0
0.258621089968234 94.99999999990953 0
0.3688604933993918 54.99999999994839 0
0.3688604933993918 59.99999999989677 0
0.3688604933993918 64.99999999984517 0
0.3688604933993918 69.99999999979357 0
0.3688604933993918 74.99999999974196 0
0.3688604933993918 79.99999999969032 0
0.3688604933993917 84.99999999972859 0
0.3688604933993918 89.99999999981907 0
0.3688604933993918 94.99999999990952 0
0.5058414247786202 54.99999999994839 0
0.5058414247786202 59.99999999989679 0
0.5058414247786202 64.99999999984516 0
0.5058414247786202 69.99999999979357 0
0.5058414247786202 74.99999999974196 0
0.5058414247786202 79.99999999969032 0
0.5058414247786202 84.99999999972862 0
0.5058414247786202 89.99999999981907 0
0.5058414247786202 94.99999999990953 0
0.6749526691148449 54.99999999994839 0
0.6749526691148449 59.99999999989678 0
0.6749526691148449 64.99999999984517 0
0.6749526691148449 69.99999999979357 0
0.6749526691148449 74.99999999974196 0
0.674952669114845 79.99999999969032 0
0.674952669114845 84.9999999997286 0
0.6749526691148449 89.99999999981908 0
0.6749526691148449 94.99999999990953 0
0.882070363849953 54.99999999994839 0
0.8820703638499534 59.99999999989678 0
0.8820703638499533 64.99999999984517 0
0.8820703638499532 69.99999999979357 0
0.8820703638499532 74.99999999974196 0
0.8820703638499531 79.99999999969032 0
0.8820703638499533 84.9999999997286 0
0.882070363849953 89.99999999981907 0
0.8820703638499532 94.99999999990953 0
1.133269803897619 54.99999999994838 0
1.133269803897619 59.99999999989677 0
1.133269803897619 64.99999999984516 0
1.133269803897619 69.99999999979357 0
1.133269803897619 74.99999999974196 0
1.133269803897619 79.99999999969032 0
1.133269803897619 84.99999999972859 0
1.133269803897619 89.99999999981905 0
1.133269803897619 94.99999999990953 0
1.434347981148794 54.99999999994838 0
1.434347981148795 59.99999999989678 0
1.434347981148794 64.99999999984517 0
1.434347981148794 69.99999999979357 0
1.434347981148794 74.99999999974196 0
1.434347981148794 79.99999999969032 0
1.434347981148794 84.9999999997286 0
1.434347981148794 89.99999999981907 0
1.434347981148794 94.99999999990953 0
1.790131179848652 54.99999999994839 0
1.790131179848652 59.99999999989677 0
1.790131179848652 64.99999999984516 0
1.790131179848652 69.99999999979357 0
1.790131179848652 74.99999999974196 0
1.790131179848652 79.99999999969032 0
1.790131179848652 84.9999999997286 0
1.790131179848652 89.99999999981907 0
1.790131179848652 94.99999999990953 0
2.203585966549016 54.99999999994839 0
2.203585966549016 59.99999999989679 0
2.203585966549017 64.99999999984516 0
2.203585966549016 69.99999999979357 0
2.203585966549016 74.99999999974197 0
2.203585966549016 79.99999999969032 0
2.203585966549016 84.9999999997286 0
2.203585966549016 89.99999999981907 0
2.203585966549016 94.99999999990953 0
2.674824859699504 54.99999999994839 0
2.674824859699503 59.99999999989678 0
2.674824859699503 64.99999999984517 0
2.674824859699504 69.99999999979357 0
2.674824859699505 74.99999999974196 0
2.674824859699503 79.99999999969032 0
2.674824859699503 84.9999999997286 0
2.674824859699504 89.99999999981907 0
2.674824859699503 94.99999999990952 0
3.200187978645606 54.99999999994839 0
3.200187978645607 59.99999999989679 0
3.200187978645608 64.99999999984517 0
3.200187978645606 69.99999999979357 0
3.200187978645606 74.99999999974196 0
3.200187978645607 79.99999999969032 0
3.200187978645607 84.9999999997286 0
3.200187978645607 89.99999999981907 0
3.200187978645606 94.99999999990953 0
3.771659759829203 54.99999999994839 0
3.771659759829202 59.99999999989679 0
3.771659759829201 64.99999999984514 0
3.771659759829202 69.99999999979357 0
3.771659759829201 74.99999999974196 0
3.771659759829202 79.99999999969032 0
3.771659759829202 84.9999999997286 0
3.771659759829202 89.99999999981907 0
3.771659759829201 94.99999999990953 0
4.376891371231334 54.99999999994839 0
4.376891371231332 59.99999999989679 0
4.376891371231332 64.99999999984517 0
4.376891371231332 69.99999999979357 0
4.376891371231332 74.99999999974197 0
4.376891371231333 79.99999999969032 0
4.376891371231332 84.9999999997286 0
4.376891371231332 89.99999999981907 0
4.376891371231332 94.99999999990955 0
4.999999999974658 54.99999999994839 0
4.999999999974656 59.99999999989678 0
4.999999999974657 64.99999999984517 0
4.999999999974655 69.99999999979357 0
4.999999999974656 74.99999999974196 0
4.999999999974656 79.99999999969032 0
4.999999999974657 84.9999999997286 0
4.999999999974656 89.99999999981907 0
4.999999999974656 94.99999999990953 0
5.623108628722219 54.99999999994839 0
5.623108628722219 59.99999999989678 0
5.62310862872222 64.99999999984517 0
5.623108628722219 69.99999999979357 0
5.62310862872222 74.99999999974196 0
5.623108628722219 79.99999999969032 0
5.62310862872222 84.9999999997286 0
5.62310862872222 89.99999999981907 0
5.623108628722219 94.99999999990953 0
6.228340240129548 54.99999999994839 0
6.228340240129548 59.99999999989678 0
6.228340240129546 64.99999999984517 0
6.228340240129547 69.99999999979357 0
6.228340240129548 74.99999999974196 0
6.228340240129544 79.99999999969032 0
6.228340240129548 84.9999999997286 0
6.228340240129548 89.99999999981907 0
6.228340240129547 94.99999999990953 0
6.799812021318909 54.99999999994839 0
6.799812021318909 59.99999999989678 0
6.799812021318908 64.99999999984517 0
6.799812021318909 69.99999999979357 0
6.799812021318909 74.99999999974197 0
6.799812021318909 79.99999999969032 0
6.799812021318909 84.9999999997286 0
6.799812021318908 89.99999999981907 0
6.799812021318909 94.99999999990953 0
7.325175140271096 54.99999999994839 0
7.325175140271096 59.99999999989678 0
7.325175140271096 64.99999999984517 0
7.325175140271095 69.99999999979357 0
7.325175140271095 74.99999999974197 0
7.325175140271096 79.99999999969032 0
7.325175140271097 84.9999999997286 0
7.325175140271095 89.99999999981905 0
7.325175140271096 94.99999999990952 0
7.796414033427685 54.99999999994839 0
7.796414033427687 59.99999999989679 0
7.796414033427685 64.99999999984517 0
7.796414033427685 69.99999999979357 0
7.796414033427684 74.99999999974196 0
7.796414033427686 79.99999999969032 0
7.796414033427684 84.9999999997286 0
7.796414033427684 89.99999999981907 0
7.796414033427684 94.99999999990953 0
8.209868820133194 54.99999999994839 0
8.209868820133195 59.99999999989677 0
8.209868820133195 64.99999999984517 0
8.209868820133195 69.99999999979357 0
8.209868820133195 74.99999999974196 0
8.209868820133197 79.99999999969032 0
8.209868820133197 84.9999999997286 0
8.209868820133195 89.99999999981907 0
8.209868820133195 94.99999999990953 0
8.565652018837485 54.99999999994839 0
8.565652018837481 59.99999999989679 0
8.565652018837481 64.99999999984517 0
8.565652018837483 69.99999999979357 0
8.565652018837483 74.99999999974196 0
8.565652018837481 79.99999999969032 0
8.565652018837481 84.99999999972859 0
8.565652018837481 89.99999999981907 0
8.565652018837483 94.99999999990953 0
8.86673019609235 54.99999999994839 0
8.866730196092352 59.99999999989679 0
8.866730196092352 64.99999999984517 0
8.86673019609235 69.99999999979357 0
8.866730196092352 74.99999999974197 0
8.866730196092352 79.99999999969032 0
8.866730196092352 84.9999999997286 0
8.866730196092352 89.99999999981907 0
8.86673019609235 94.99999999990953 0
9.117929636142827 54.99999999994839 0
9.117929636142827 59.99999999989679 0
9.117929636142827 64.99999999984517 0
9.117929636142829 69.99999999979356 0
9.117929636142829 74.99999999974197 0
9.117929636142829 79.99999999969032 0
9.117929636142826 84.99999999972859 0
9.117929636142829 89.99999999981907 0
9.117929636142827 94.99999999990953 0
9.325047330880167 54.99999999994839 0
9.325047330880164 59.99999999989678 0
9.325047330880166 64.99999999984517 0
9.325047330880167 69.99999999979357 0
9.325047330880169 74.99999999974196 0
9.325047330880167 79.99999999969032 0
9.325047330880169 84.9999999997286 0
9.325047330880166 89.99999999981907 0
9.325047330880167 94.99999999990953 0
9.494158575218169 54.99999999994839 0
9.494158575218172 59.99999999989679 0
9.494158575218171 64.99999999984517 0
9.494158575218171 69.99999999979357 0
9.494158575218169 74.99999999974196 0
9.494158575218169 79.99999999969032 0
9.494158575218169 84.9999999997286 0
9.494158575218167 89.99999999981905 0
9.494158575218167 94.99999999990953 0
9.631139506598684 54.99999999994838 0
9.631139506598686 59.99999999989678 0
9.631139506598688 64.99999999984517 0
9.631139506598684 69.99999999979357 0
9.631139506598686 74.99999999974196 0
9.631139506598686 79.99999999969032 0
9.631139506598686 84.9999999997286 0
9.631139506598684 89.99999999981905 0
9.631139506598686 94.99999999990953 0
9.741378910030734 54.99999999994838 0
9.741378910030734 59.99999999989678 0
9.741378910030733 64.99999999984517 0
9.741378910030734 69.99999999979357 0
9.741378910030731 74.99999999974196 0
9.741378910030733 79.9999999996903 0
9.741378910030734 84.9999999997286 0
9.741378910030733 89.99999999981905 0
9.741378910030736 94.99999999990953 0
9.829636079821181 54.99999999994839 0
9.82963607982118 59.99999999989678 0
9.829636079821181 64.99999999984517 0
9.829636079821183 69.99999999979357 0
9.829636079821185 74.99999999974196 0
9.829636079821183 79.9999999996903 0
9.829636079821183 84.9999999997286 0
9.829636079821181 89.99999999981907 0
9.829636079821183 94.99999999990953 0
2 6 0 0
2 7 0 0
2 8 0 261
763
764
765
766
767
768
769
770
771
772
773
774
775
776
777
778
779
780
781
782
783
784
785
786
787
788
789
790
791
792
793
794
795
796
797
798
799
800
801
802
803
804
805
806
807
808
809
810
811
812
813
814
815
816
817
818
819
820
821
822
823
824
825
826
827
828
829
830
831
832
833
834
835
836
837
838
839
840
841
842
843
844
845
846
847
848
849
850
851
852
853
854
855
856
857
858
859
860
861
862
863
864
865
866
867
868
869
870
871
872
873
874
875
876
877
878
879
880
881
882
883
884
885
886
887
888
889
890
891
892
893
894
895
896
897
898
899
900
901
902
903
904
905
906
907
908
909
910
911
912
913
914
915
916
917
918
919
920
921
922
923
924
925
926
927
928
929
930
931
932
933
934
935
936
937
938
939
940
941
942
943
944
945
946
947
948
949
950
951
952
953
954
955
956
957
958
959
960
961
962
963
964
965
966
967
968
969
970
971
972
973
974
975
976
977
978
979
980
981
982
983
984
985
986
987
988
989
990
991
992
993
994
995
996
997
998
999
1000
1001
1002
1003
1004
1005
1006
1007
1008
1009
1010
1011
1012
1013
1014
1015
1016
1017
1018
1019
1020
1021
1022
1023
0.1703639201784034 104.9999999999373 0
0.1703639201784034 109.9999999998746 0
0.1703639201784033 114.9999999998118 0
0.1703639201784033 119.9999999997491 0
0.1703639201784034 124.9999999996864 0
0.1703639201784033 129.9999999996825 0
0.1703639201784033 134.9999999997619 0
0.1703639201784033 139.9999999998412 0
0.1703639201784033 144.9999999999206 0
0.258621089968234 104.9999999999373 0
0.258621089968234 109.9999999998746 0
0.258621089968234 114.9999999998119 0
0.258621089968234 119.9999999997491 0
0.258621089968234 124.9999999996864 0
0.258621089968234 129.9999999996825 0
0.258621089968234 134.9999999997619 0
0.2586210899682341 139.9999999998412 0
0.258621089968234 144.9999999999206 0
0.3688604933993918 104.9999999999373 0
0.3688604933993917 109.9999999998746 0
0.3688604933993917 114.9999999998118 0
0.3688604933993918 119.9999999997491 0
0.3688604933993918 124.9999999996864 0
0.3688604933993917 129.9999999996825 0
0.3688604933993917 134.9999999997619 0
0.3688604933993917 139.9999999998412 0
0.3688604933993918 144.9999999999206 0
0.5058414247786202 104.9999999999373 0
0.5058414247786202 109.9999999998746 0
0.5058414247786202 114.9999999998118 0
0.5058414247786202 119.9999999997491 0
0.5058414247786202 124.9999999996864 0
0.5058414247786202 129.9999999996825 0
0.5058414247786202 134.9999999997619 0
0.5058414247786202 139.9999999998413 0
0.50584142477862 144.9999999999206 0
0.674952669114845 104.9999999999373 0
0.6749526691148449 109.9999999998746 0
0.6749526691148449 114.9999999998119 0
0.6749526691148451 119.9999999997491 0
0.6749526691148449 124.9999999996864 0
0.6749526691148447 129.9999999996825 0
0.674952669114845 134.9999999997619 0
0.6749526691148449 139.9999999998412 0
0.6749526691148449 144.9999999999206 0
0.882070363849953 104.9999999999372 0
0.8820703638499532 109.9999999998746 0
0.8820703638499532 114.9999999998119 0
0.8820703638499532 119.9999999997491 0
0.8820703638499533 124.9999999996864 0
0.8820703638499531 129.9999999996825 0
0.8820703638499534 134.9999999997619 0
0.8820703638499531 139.9999999998412 0
0.8820703638499531 144.9999999999206 0
1.133269803897619 104.9999999999373 0
1.133269803897619 109.9999999998746 0
1.133269803897619 114.9999999998118 0
1.133269803897619 119.9999999997491 0
1.133269803897619 124.9999999996864 0
1.133269803897619 129.9999999996825 0
1.133269803897619 134.9999999997619 0
1.133269803897619 139.9999999998412 0
1.133269803897619 144.9999999999207 0
1.434347981148795 104.9999999999373 0
1.434347981148794 109.9999999998746 0
1.434347981148794 114.9999999998118 0
1.434347981148795 119.9999999997491 0
1.434347981148794 124.9999999996864 0
1.434347981148794 129.9999999996825 0
1.434347981148794 134.9999999997619 0
1.434347981148794 139.9999999998412 0
1.434347981148794 144.9999999999206 0
1.790131179848652 104.9999999999373 0
1.790131179848651 109.9999999998746 0
1.790131179848652 114.9999999998118 0
1.790131179848652 119.9999999997491 0
1.790131179848652 124.9999999996864 0
1.790131179848652 129.9999999996825 0
1.790131179848652 134.9999999997619 0
1.790131179848652 139.9999999998412 0
1.790131179848652 144.9999999999206 0
2.203585966549016 104.9999999999373 0
2.203585966549017 109.9999999998746 0
2.203585966549017 114.9999999998118 0
2.203585966549017 119.9999999997491 0
2.203585966549017 124.9999999996864 0
2.203585966549016 129.9999999996825 0
2.203585966549016 134.9999999997619 0
2.203585966549016 139.9999999998412 0
2.203585966549016 144.9999999999206 0
2.674824859699503 104.9999999999373 0
2.674824859699504 109.9999999998746 0
2.674824859699504 114.9999999998118 0
2.674824859699503 119.9999999997491 0
2.674824859699504 124.9999999996864 0
2.674824859699503 129.9999999996825 0
2.674824859699503 134.9999999997619 0
2.674824859699503 139.9999999998412 0
2.674824859699503 144.9999999999206 0
3.200187978645606 104.9999999999373 0
3.200187978645607 109.9999999998746 0
3.200187978645607 114.9999999998118 0
3.200187978645607 119.9999999997491 0
3.200187978645607 124.9999999996864 0
3.200187978645608 129.9999999996825 0
3.200187978645607 134.9999999997619 0
3.200187978645607 139.9999999998412 0
3.200187978645606 144.9999999999206 0
3.771659759829203 104.9999999999373 0
3.771659759829202 109.9999999998745 0
3.771659759829202 114.9999999998119 0
3.771659759829202 119.9999999997491 0
3.771659759829202 124.9999999996864 0
3.771659759829202 129.9999999996825 0
3.771659759829203 134.9999999997619 0
3.771659759829202 139.9999999998413 0
3.771659759829201 144.9999999999206 0
4.376891371231332 104.9999999999373 0
4.376891371231332 109.9999999998746 0
4.376891371231333 114.9999999998119 0
4.376891371231332 119.9999999997491 0
4.376891371231332 124.9999999996864 0
4.376891371231332 129.9999999996825 0
4.376891371231332 134.9999999997619 0
4.376891371231332 139.9999999998412 0
4.376891371231332 144.9999999999206 0
4.999999999974655 104.9999999999373 0
4.999999999974656 109.9999999998746 0
4.999999999974656 114.9999999998119 0
4.999999999974656 119.9999999997491 0
4.999999999974657 124.9999999996863 0
4.999999999974656 129.9999999996825 0
4.999999999974656 134.9999999997619 0
4.999999999974656 139.9999999998412 0
4.999999999974655 144.9999999999206 0
5.623108628722221 104.9999999999373 0
5.623108628722219 109.9999999998746 0
5.623108628722218 114.9999999998118 0
5.62310862872222 119.9999999997491 0
5.623108628722221 124.9999999996864 0
5.623108628722219 129.9999999996825 0
5.62310862872222 134.9999999997619 0
5.62310862872222 139.9999999998412 0
5.62310862872222 144.9999999999206 0
6.228340240129547 104.9999999999373 0
6.228340240129547 109.9999999998746 0
6.228340240129547 114.9999999998118 0
6.228340240129548 119.9999999997491 0
6.228340240129547 124.9999999996864 0
6.228340240129545 129.9999999996825 0
6.228340240129546 134.9999999997619 0
6.228340240129548 139.9999999998412 0
6.228340240129547 144.9999999999206 0
6.799812021318909 104.9999999999373 0
6.799812021318909 109.9999999998746 0
6.799812021318909 114.9999999998118 0
6.799812021318909 119.9999999997491 0
6.799812021318909 124.9999999996864 0
6.799812021318909 129.9999999996825 0
6.799812021318909 134.9999999997619 0
6.799812021318909 139.9999999998412 0
6.799812021318908 144.9999999999206 0
7.325175140271096 104.9999999999373 0
7.325175140271095 109.9999999998746 0
7.325175140271096 114.9999999998119 0
7.325175140271096 119.9999999997491 0
7.325175140271096 124.9999999996864 0
7.325175140271097 129.9999999996825 0
7.325175140271096 134.9999999997619 0
7.325175140271097 139.9999999998412 0
7.325175140271096 144.9999999999206 0
7.796414033427686 104.9999999999372 0
7.796414033427684 109.9999999998746 0
7.796414033427684 114.9999999998118 0
7.796414033427686 119.9999999997491 0
7.796414033427684 124.9999999996864 0
7.796414033427685 129.9999999996825 0
7.796414033427682 134.9999999997619 0
7.796414033427683 139.9999999998412 0
7.796414033427684 144.9999999999206 0
8.209868820133195 104.9999999999373 0
8.209868820133195 109.9999999998746 0
8.209868820133195 114.9999999998119 0
8.209868820133194 119.9999999997491 0
8.209868820133197 124.9999999996864 0
8.209868820133195 129.9999999996825 0
8.209868820133195 134.9999999997619 0
8.209868820133195 139.9999999998412 0
8.209868820133195 144.9999999999206 0
8.565652018837483 104.9999999999373 0
8.565652018837481 109.9999999998746 0
8.565652018837481 114.9999999998118 0
8.565652018837481 119.9999999997491 0
8.565652018837481 124.9999999996863 0
8.565652018837481 129.9999999996825 0
8.565652018837481 134.9999999997619 0
8.565652018837481 139.9999999998412 0
8.565652018837481 144.9999999999206 0
8.866730196092352 104.9999999999373 0
8.86673019609235 109.9999999998746 0
8.866730196092353 114.9999999998118 0
8.866730196092352 119.9999999997491 0
8.866730196092352 124.9999999996864 0
8.866730196092352 129.9999999996825 0
8.866730196092352 134.9999999997619 0
8.866730196092352 139.9999999998412 0
8.866730196092352 144.9999999999206 0
9.117929636142829 104.9999999999373 0
9.117929636142826 109.9999999998746 0
9.117929636142827 114.9999999998119 0
9.117929636142827 119.9999999997491 0
9.117929636142829 124.9999999996864 0
9.117929636142827 129.9999999996825 0
9.117929636142829 134.9999999997619 0
9.117929636142827 139.9999999998412 0
9.117929636142829 144.9999999999206 0
9.325047330880169 104.9999999999373 0
9.325047330880167 109.9999999998746 0
9.325047330880167 114.9999999998119 0
9.325047330880167 119.9999999997491 0
9.325047330880169 124.9999999996864 0
9.325047330880166 129.9999999996825 0
9.325047330880167 134.9999999997619 0
9.325047330880167 139.9999999998412 0
9.325047330880167 144.9999999999206 0
9.494158575218171 104.9999999999373 0
9.494158575218169 109.9999999998746 0
9.494158575218171 114.9999999998119 0
9.494158575218171 119.9999999997491 0
9.494158575218171 124.9999999996864 0
9.494158575218167 129.9999999996825 0
9.494158575218169 134.9999999997619 0
9.494158575218167 139.9999999998412 0
9.494158575218169 144.9999999999206 0
9.631139506598684 104.9999999999373 0
9.631139506598684 109.9999999998746 0
9.631139506598688 114.9999999998118 0
9.631139506598686 119.9999999997491 0
9.631139506598688 124.9999999996864 0
9.631139506598689 129.9999999996825 0
9.631139506598686 134.9999999997619 0
9.631139506598689 139.9999999998412 0
9.631139506598682 144.9999999999206 0
9.741378910030734 104.9999999999373 0
9.741378910030734 109.9999999998746 0
9.741378910030736 114.9999999998118 0
9.741378910030734 119.9999999997491 0
9.741378910030734 124.9999999996864 0
9.741378910030733 129.9999999996825 0
9.741378910030734 134.9999999997619 0
9.741378910030734 139.9999999998412 0
9.741378910030734 144.9999999999206 0
9.829636079821183 104.9999999999373 0
9.829636079821181 109.9999999998746 0
9.829636079821183 114.9999999998119 0
9.829636079821183 119.9999999997491 0
9.829636079821183 124.9999999996864 0
9.829636079821183 129.9999999996825 0
9.829636079821183 134.9999999997619 0
9.829636079821183 139.9999999998412 0
9.829636079821183 144.9999999999206 0
2 9 0 0
$EndNodes
$Elements
21 1084 1 1084
1 1 1 1
1 1 2 
1 2 1 30
2 2 17 
3 17 18 
4 18 19 
5 19 20 
6 20 21 
7 21 22 
8 22 23 
9 23 24 
10 24 25 
11 25 26 
12 26 27 
13 27 28 
14 28 29 
15 29 30 
16 30 31 
17 31 32 
18 32 33 
19 33 34 
20 34 35 
21 35 36 
22 36 37 
23 37 38 
24 38 39 
25 39 40 
26 40 41 
27 41 42 
28 42 43 
29 43 44 
30 44 45 
31 45 3 
1 3 1 1
32 3 4 
1 10 1 1
33 13 14 
1 11 1 30
34 14 104 
35 104 105 
36 105 106 
37 106 107 
38 107 108 
39 108 109 
40 109 110 
41 110 111 
42 111 112 
43 112 113 
44 113 114 
45 114 115 
46 115 116 
47 116 117 
48 117 118 
49 118 119 
50 119 120 
51 120 121 
52 121 122 
53 122 123 
54 123 124 
55 124 125 
56 125 126 
57 126 127 
58 127 128 
59 128 129 
60 129 130 
61 130 131 
62 131 132 
63 132 15 
1 12 1 1
64 15 16 
1 13 1 10
65 1 133 
66 133 134 
67 134 135 
68 135 136 
69 136 137 
70 137 138 
71 138 139 
72 139 140 
73 140 141 
74 141 5 
1 14 1 10
75 5 142 
76 142 143 
77 143 144 
78 144 145 
79 145 146 
80 146 147 
81 147 148 
82 148 149 
83 149 150 
84 150 9 
1 15 1 10
85 9 151 
86 151 152 
87 152 153 
88 153 154 
89 154 155 
90 155 156 
91 156 157 
92 157 158 
93 158 159 
94 159 13 
1 22 1 10
95 4 214 
96 214 215 
97 215 216 
98 216 217 
99 217 218 
100 218 219 
101 219 220 
102 220 221 
103 221 222 
104 222 8 
1 23 1 10
105 8 223 
106 223 224 
107 224 225 
108 225 226 
109 226 227 
110 227 228 
111 228 229 
112 229 230 
113 230 231 
114 231 12 
1 24 1 10
115 12 232 
116 232 233 
117 233 234 
118 234 235 
119 235 236 
120 236 237 
121 237 238 
122 238 239 
123 239 240 
124 240 16 
2 1 3 10
125 1 2 160 133 
126 133 160 161 134 
127 134 161 162 135 
128 135 162 163 136 
129 136 163 164 137 
130 137 164 165 138 
131 138 165 166 139 
132 139 166 167 140 
133 140 167 168 141 
134 141 168 6 5 
2 2 3 300
135 2 17 241 160 
136 160 241 242 161 
137 161 242 243 162 
138 162 243 244 163 
139 163 244 245 164 
140 164 245 246 165 
141 165 246 247 166 
142 166 247 248 167 
143 167 248 249 168 
144 168 249 46 6 
145 17 18 250 241 
146 241 250 251 242 
147 242 251 252 243 
148 243 252 253 244 
149 244 253 254 245 
150 245 254 255 246 
151 246 255 256 247 
152 247 256 257 248 
153 248 257 258 249 
154 249 258 47 46 
155 18 19 259 250 
156 250 259 260 251 
157 251 260 261 252 
158 252 261 262 253 
159 253 262 263 254 
160 254 263 264 255 
161 255 264 265 256 
162 256 265 266 257 
163 257 266 267 258 
164 258 267 48 47 
165 19 20 268 259 
166 259 268 269 260 
167 260 269 270 261 
168 261 270 271 262 
169 262 271 272 263 
170 263 272 273 264 
171 264 273 274 265 
172 265 274 275 266 
173 266 275 276 267 
174 267 276 49 48 
175 20 21 277 268 
176 268 277 278 269 
177 269 278 279 270 
178 270 279 280 271 
179 271 280 281 272 
180 272 281 282 273 
181 273 282 283 274 
182 274 283 284 275 
183 275 284 285 276 
184 276 285 50 49 
185 21 22 286 277 
186 277 286 287 278 
187 278 287 288 279 
188 279 288 289 280 
189 280 289 290 281 
190 281 290 291 282 
191 282 291 292 283 
192 283 292 293 284 
193 284 293 294 285 
194 285 294 51 50 
195 22 23 295 286 
196 286 295 296 287 
197 287 296 297 288 
198 288 297 298 289 
199 289 298 299 290 
200 290 299 300 291 
201 291 300 301 292 
202 292 301 302 293 
203 293 302 303 294 
204 294 303 52 51 
205 23 24 304 295 
206 295 304 305 296 
207 296 305 306 297 
208 297 306 307 298 
209 298 307 308 299 
210 299 308 309 300 
211 300 309 310 301 
212 301 310 311 302 
213 302 311 312 303 
214 303 312 53 52 
215 24 25 313 304 
216 304 313 314 305 
217 305 314 315 306 
218 306 315 316 307 
219 307 316 317 308 
220 308 317 318 309 
221 309 318 319 310 
222 310 319 320 311 
223 311 320 321 312 
224 312 321 54 53 
225 25 26 322 313 
226 313 322 323 314 
227 314 323 324 315 
228 315 324 325 316 
229 316 325 326 317 
230 317 326 327 318 
231 318 327 328 319 
232 319 328 329 320 
233 320 329 330 321 
234 321 330 55 54 
235 26 27 331 322 
236 322 331 332 323 
237 323 332 333 324 
238 324 333 334 325 
239 325 334 335 326 
240 326 335 336 327 
241 327 336 337 328 
242 328 337 338 329 
243 329 338 339 330 
244 330 339 56 55 
245 27 28 340 331 
246 331 340 341 332 
247 332 341 342 333 
248 333 342 343 334 
249 334 343 344 335 
250 335 344 345 336 
251 336 345 346 337 
252 337 346 347 338 
253 338 347 348 339 
254 339 348 57 56 
255 28 29 349 340 
256 340 349 350 341 
257 341 350 351 342 
258 342 351 352 343 
259 343 352 353 344 
260 344 353 354 345 
261 345 354 355 346 
262 346 355 356 347 
263 347 356 357 348 
264 348 357 58 57 
265 29 30 358 349 
266 349 358 359 350 
267 350 359 360 351 
268 351 360 361 352 
269 352 361 362 353 
270 353 362 363 354 
271 354 363 364 355 
272 355 364 365 356 
273 356 365 366 357 
274 357 366 59 58 
275 30 31 367 358 
276 358 367 368 359 
277 359 368 369 360 
278 360 369 370 361 
279 361 370 371 362 
280 362 371 372 363 
281 363 372 373 364 
282 364 373 374 365 
283 365 374 375 366 
284 366 375 60 59 
285 31 32 376 367 
286 367 376 377 368 
287 368 377 378 369 
288 369 378 379 370 
289 370 379 380 371 
290 371 380 381 372 
291 372 381 382 373 
292 373 382 383 374 
293 374 383 384 375 
294 375 384 61 60 
295 32 33 385 376 
296 376 385 386 377 
297 377 386 387 378 
298 378 387 388 379 
299 379 388 389 380 
300 380 389 390 381 
301 381 390 391 382 
302 382 391 392 383 
303 383 392 393 384 
304 384 393 62 61 
305 33 34 394 385 
306 385 394 395 386 
307 386 395 396 387 
308 387 396 397 388 
309 388 397 398 389 
310 389 398 399 390 
311 390 399 400 391 
312 391 400 401 392 
313 392 401 402 393 
314 393 402 63 62 
315 34 35 403 394 
316 394 403 404 395 
317 395 404 405 396 
318 396 405 406 397 
319 397 406 407 398 
320 398 407 408 399 
321 399 408 409 400 
322 400 409 410 401 
323 401 410 411 402 
324 402 411 64 63 
325 35 36 412 403 
326 403 412 413 404 
327 404 413 414 405 
328 405 414 415 406 
329 406 415 416 407 
330 407 416 417 408 
331 408 417 418 409 
332 409 418 419 410 
333 410 419 420 411 
334 411 420 65 64 
335 36 37 421 412 
336 412 421 422 413 
337 413 422 423 414 
338 414 423 424 415 
339 415 424 425 416 
340 416 425 426 417 
341 417 426 427 418 
342 418 427 428 419 
343 419 428 429 420 
344 420 429 66 65 
345 37 38 430 421 
346 421 430 431 422 
347 422 431 432 423 
348 423 432 433 424 
349 424 433 434 425 
350 425 434 435 426 
351 426 435 436 427 
352 427 436 437 428 
353 428 437 438 429 
354 429 438 67 66 
355 38 39 439 430 
356 430 439 440 431 
357 431 440 441 432 
358 432 441 442 433 
359 433 442 443 434 
360 434 443 444 435 
361 435 444 445 436 
362 436 445 446 437 
363 437 446 447 438 
364 438 447 68 67 
365 39 40 448 439 
366 439 448 449 440 
367 440 449 450 441 
368 441 450 451 442 
369 442 451 452 443 
370 443 452 453 444 
371 444 453 454 445 
372 445 454 455 446 
373 446 455 456 447 
374 447 456 69 68 
375 40 41 457 448 
376 448 457 458 449 
377 449 458 459 450 
378 450 459 460 451 
379 451 460 461 452 
380 452 461 462 453 
381 453 462 463 454 
382 454 463 464 455 
383 455 464 465 456 
384 456 465 70 69 
385 41 42 466 457 
386 457 466 467 458 
387 458 467 468 459 
388 459 468 469 460 
389 460 469 470 461 
390 461 470 471 462 
391 462 471 472 463 
392 463 472 473 464 
393 464 473 474 465 
394 465 474 71 70 
395 42 43 475 466 
396 466 475 476 467 
397 467 476 477 468 
398 468 477 478 469 
399 469 478 479 470 
400 470 479 480 471 
401 471 480 481 472 
402 472 481 482 473 
403 473 482 483 474 
404 474 483 72 71 
405 43 44 484 475 
406 475 484 485 476 
407 476 485 486 477 
408 477 486 487 478 
409 478 487 488 479 
410 479 488 489 480 
411 480 489 490 481 
412 481 490 491 482 
413 482 491 492 483 
414 483 492 73 72 
415 44 45 493 484 
416 484 493 494 485 
417 485 494 495 486 
418 486 495 496 487 
419 487 496 497 488 
420 488 497 498 489 
421 489 498 499 490 
422 490 499 500 491 
423 491 500 501 492 
424 492 501 74 73 
425 45 3 187 493 
426 493 187 188 494 
427 494 188 189 495 
428 495 189 190 496 
429 496 190 191 497 
430 497 191 192 498 
431 498 192 193 499 
432 499 193 194 500 
433 500 194 195 501 
434 501 195 7 74 
2 3 3 10
435 3 4 214 187 
436 187 214 215 188 
437 188 215 216 189 
438 189 216 217 190 
439 190 217 218 191 
440 191 218 219 192 
441 192 219 220 193 
442 193 220 221 194 
443 194 221 222 195 
444 195 222 8 7 
2 4 3 10
445 5 6 169 142 
446 142 169 170 143 
447 143 170 171 144 
448 144 171 172 145 
449 145 172 173 146 
450 146 173 174 147 
451 147 174 175 148 
452 148 175 176 149 
453 149 176 177 150 
454 150 177 10 9 
2 5 3 300
455 6 46 502 169 
456 169 502 503 170 
457 170 503 504 171 
458 171 504 505 172 
459 172 505 506 173 
460 173 506 507 174 
461 174 507 508 175 
462 175 508 509 176 
463 176 509 510 177 
464 177 510 75 10 
465 46 47 511 502 
466 502 511 512 503 
467 503 512 513 504 
468 504 513 514 505 
469 505 514 515 506 
470 506 515 516 507 
471 507 516 517 508 
472 508 517 518 509 
473 509 518 519 510 
474 510 519 76 75 
475 47 48 520 511 
476 511 520 521 512 
477 512 521 522 513 
478 513 522 523 514 
479 514 523 524 515 
480 515 524 525 516 
481 516 525 526 517 
482 517 526 527 518 
483 518 527 528 519 
484 519 528 77 76 
485 48 49 529 520 
486 520 529 530 521 
487 521 530 531 522 
488 522 531 532 523 
489 523 532 533 524 
490 524 533 534 525 
491 525 534 535 526 
492 526 535 536 527 
493 527 536 537 528 
494 528 537 78 77 
495 49 50 538 529 
496 529 538 539 530 
497 530 539 540 531 
498 531 540 541 532 
499 532 541 542 533 
500 533 542 543 534 
501 534 543 544 535 
502 535 544 545 536 
503 536 545 546 537 
504 537 546 79 78 
505 50 51 547 538 
506 538 547 548 539 
507 539 548 549 540 
508 540 549 550 541 
509 541 550 551 542 
510 542 551 552 543 
511 543 552 553 544 
512 544 553 554 545 
513 545 554 555 546 
514 546 555 80 79 
515 51 52 556 547 
516 547 556 557 548 
517 548 557 558 549 
518 549 558 559 550 
519 550 559 560 551 
520 551 560 561 552 
521 552 561 562 553 
522 553 562 563 554 
523 554 563 564 555 
524 555 564 81 80 
525 52 53 565 556 
526 556 565 566 557 
527 557 566 567 558 
528 558 567 568 559 
529 559 568 569 560 
530 560 569 570 561 
531 561 570 571 562 
532 562 571 572 563 
533 563 572 573 564 
534 564 573 82 81 
535 53 54 574 565 
536 565 574 575 566 
537 566 575 576 567 
538 567 576 577 568 
539 568 577 578 569 
540 569 578 579 570 
541 570 579 580 571 
542 571 580 581 572 
543 572 581 582 573 
544 573 582 83 82 
545 54 55 583 574 
546 574 583 584 575 
547 575 584 585 576 
548 576 585 586 577 
549 577 586 587 578 
550 578 587 588 579 
551 579 588 589 580 
552 580 589 590 581 
553 581 590 591 582 
554 582 591 84 83 
555 55 56 592 583 
556 583 592 593 584 
557 584 593 594 585 
558 585 594 595 586 
559 586 595 596 587 
560 587 596 597 588 
561 588 597 598 589 
562 589 598 599 590 
563 590 599 600 591 
564 591 600 85 84 
565 56 57 601 592 
566 592 601 602 593 
567 593 602 603 594 
568 594 603 604 595 
569 595 604 605 596 
570 596 605 606 597 
571 597 606 607 598 
572 598 607 608 599 
573 599 608 609 600 
574 600 609 86 85 
575 57 58 610 601 
576 601 610 611 602 
577 602 611 612 603 
578 603 612 613 604 
579 604 613 614 605 
580 605 614 615 606 
581 606 615 616 607 
582 607 616 617 608 
583 608 617 618 609 
584 609 618 87 86 
585 58 59 619 610 
586 610 619 620 611 
587 611 620 621 612 
588 612 621 622 613 
589 613 622 623 614 
590 614 623 624 615 
591 615 624 625 616 
592 616 625 626 617 
593 617 626 627 618 
594 618 627 88 87 
595 59 60 628 619 
596 619 628 629 620 
597 620 629 630 621 
598 621 630 631 622 
599 622 631 632 623 
600 623 632 633 624 
601 624 633 634 625 
602 625 634 635 626 
603 626 635 636 627 
604 627 636 89 88 
605 60 61 637 628 
606 628 637 638 629 
607 629 638 639 630 
608 630 639 640 631 
609 631 640 641 632 
610 632 641 642 633 
611 633 642 643 634 
612 634 643 644 635 
613 635 644 645 636 
614 636 645 90 89 
615 61 62 646 637 
616 637 646 647 638 
617 638 647 648 639 
618 639 648 649 640 
619 640 649 650 641 
620 641 650 651 642 
621 642 651 652 643 
622 643 652 653 644 
623 644 653 654 645 
624 645 654 91 90 
625 62 63 655 646 
626 646 655 656 647 
627 647 656 657 648 
628 648 657 658 649 
629 649 658 659 650 
630 650 659 660 651 
631 651 660 661 652 
632 652 661 662 653 
633 653 662 663 654 
634 654 663 92 91 
635 63 64 664 655 
636 655 664 665 656 
637 656 665 666 657 
638 657 666 667 658 
639 658 667 668 659 
640 659 668 669 660 
641 660 669 670 661 
642 661 670 671 662 
643 662 671 672 663 
644 663 672 93 92 
645 64 65 673 664 
646 664 673 674 665 
647 665 674 675 666 
648 666 675 676 667 
649 667 676 677 668 
650 668 677 678 669 
651 669 678 679 670 
652 670 679 680 671 
653 671 680 681 672 
654 672 681 94 93 
655 65 66 682 673 
656 673 682 683 674 
657 674 683 684 675 
658 675 684 685 676 
659 676 685 686 677 
660 677 686 687 678 
661 678 687 688 679 
662 679 688 689 680 
663 680 689 690 681 
664 681 690 95 94 
665 66 67 691 682 
666 682 691 692 683 
667 683 692 693 684 
668 684 693 694 685 
669 685 694 695 686 
670 686 695 696 687 
671 687 696 697 688 
672 688 697 698 689 
673 689 698 699 690 
674 690 699 96 95 
675 67 68 700 691 
676 691 700 701 692 
677 692 701 702 693 
678 693 702 703 694 
679 694 703 704 695 
680 695 704 705 696 
681 696 705 706 697 
682 697 706 707 698 
683 698 707 708 699 
684 699 708 97 96 
685 68 69 709 700 
686 700 709 710 701 
687 701 710 711 702 
688 702 711 712 703 
689 703 712 713 704 
690 704 713 714 705 
691 705 714 715 706 
692 706 715 716 707 
693 707 716 717 708 
694 708 717 98 97 
695 69 70 718 709 
696 709 718 719 710 
697 710 719 720 711 
698 711 720 721 712 
699 712 721 722 713 
700 713 722 723 714 
701 714 723 724 715 
702 715 724 725 716 
703 716 725 726 717 
704 717 726 99 98 
705 70 71 727 718 
706 718 727 728 719 
707 719 728 729 720 
708 720 729 730 721 
709 721 730 731 722 
710 722 731 732 723 
711 723 732 733 724 
712 724 733 734 725 
713 725 734 735 726 
714 726 735 100 99 
715 71 72 736 727 
716 727 736 737 728 
717 728 737 738 729 
718 729 738 739 730 
719 730 739 740 731 
720 731 740 741 732 
721 732 741 742 733 
722 733 742 743 734 
723 734 743 744 735 
724 735 744 101 100 
725 72 73 745 736 
726 736 745 746 737 
727 737 746 747 738 
728 738 747 748 739 
729 739 748 749 740 
730 740 749 750 741 
731 741 750 751 742 
732 742 751 752 743 
733 743 752 753 744 
734 744 753 102 101 
735 73 74 754 745 
736 745 754 755 746 
737 746 755 756 747 
738 747 756 757 748 
739 748 757 758 749 
740 749 758 759 750 
741 750 759 760 751 
742 751 760 761 752 
743 752 761 762 753 
744 753 762 103 102 
745 74 7 196 754 
746 754 196 197 755 
747 755 197 198 756 
748 756 198 199 757 
749 757 199 200 758 
750 758 200 201 759 
751 759 201 202 760 
752 760 202 203 761 
753 761 203 204 762 
754 762 204 11 103 
2 6 3 10
755 7 8 223 196 
756 196 223 224 197 
757 197 224 225 198 
758 198 225 226 199 
759 199 226 227 200 
760 200 227 228 201 
761 201 228 229 202 
762 202 229 230 203 
763 203 230 231 204 
764 204 231 12 11 
2 7 3 10
765 9 10 178 151 
766 151 178 179 152 
767 152 179 180 153 
768 153 180 181 154 
769 154 181 182 155 
770 155 182 183 156 
771 156 183 184 157 
772 157 184 185 158 
773 158 185 186 159 
774 159 186 14 13 
2 8 3 300
775 10 75 763 178 
776 178 763 764 179 
777 179 764 765 180 
778 180 765 766 181 
779 181 766 767 182 
780 182 767 768 183 
781 183 768 769 184 
782 184 769 770 185 
783 185 770 771 186 
784 186 771 104 14 
785 75 76 772 763 
786 763 772 773 764 
787 764 773 774 765 
788 765 774 775 766 
789 766 775 776 767 
790 767 776 777 768 
791 768 777 778 769 
792 769 778 779 770 
793 770 779 780 771 
794 771 780 105 104 
795 76 77 781 772 
796 772 781 782 773 
797 773 782 783 774 
798 774 783 784 775 
799 775 784 785 776 
800 776 785 786 777 
801 777 786 787 778 
802 778 787 788 779 
803 779 788 789 780 
804 780 789 106 105 
805 77 78 790 781 
806 781 790 791 782 
807 782 791 792 783 
808 783 792 793 784 
809 784 793 794 785 
810 785 794 795 786 
811 786 795 796 787 
812 787 796 797 788 
813 788 797 798 789 
814 789 798 107 106 
815 78 79 799 790 
816 790 799 800 791 
817 791 800 801 792 
818 792 801 802 793 
819 793 802 803 794 
820 794 803 804 795 
821 795 804 805 796 
822 796 805 806 797 
823 797 806 807 798 
824 798 807 108 107 
825 79 80 808 799 
826 799 808 809 800 
827 800 809 810 801 
828 801 810 811 802 
829 802 811 812 803 
830 803 812 813 804 
831 804 813 814 805 
832 805 814 815 806 
833 806 815 816 807 
834 807 816 109 108 
835 80 81 817 808 
836 808 817 818 809 
837 809 818 819 810 
838 810 819 820 811 
839 811 820 821 812 
840 812 821 822 813 
841 813 822 823 814 
842 814 823 824 815 
843 815 824 825 816 
844 816 825 110 109 
845 81 82 826 817 
846 817 826 827 818 
847 818 827 828 819 
848 819 828 829 820 
849 820 829 830 821 
850 821 830 831 822 
851 822 831 832 823 
852 823 832 833 824 
853 824 833 834 825 
854 825 834 111 110 
855 82 83 835 826 
856 826 835 836 827 
857 827 836 837 828 
858 828 837 838 829 
859 829 838 839 830 
860 830 839 840 831 
861 831 840 841 832 
862 832 841 842 833 
863 833 842 843 834 
864 834 843 112 111 
865 83 84 844 835 
866 835 844 845 836 
867 836 845 846 837 
868 837 846 847 838 
869 838 847 848 839 
870 839 848 849 840 
871 840 849 850 841 
872 841 850 851 842 
873 842 851 852 843 
874 843 852 113 112 
875 84 85 853 844 
876 844 853 854 845 
877 845 854 855 846 
878 846 855 856 847 
879 847 856 857 848 
880 848 857 858 849 
881 849 858 859 850 
882 850 859 860 851 
883 851 860 861 852 
884 852 861 114 113 
885 85 86 862 853 
886 853 862 863 854 
887 854 863 864 855 
888 855 864 865 856 
889 856 865 866 857 
890 857 866 867 858 
891 858 867 868 859 
892 859 868 869 860 
893 860 869 870 861 
894 861 870 115 114 
895 86 87 871 862 
896 862 871 872 863 
897 863 872 873 864 
898 864 873 874 865 
899 865 874 875 866 
900 866 875 876 867 
901 867 876 877 868 
902 868 877 878 869 
903 869 878 879 870 
904 870 879 116 115 
905 87 88 880 871 
906 871 880 881 872 
907 872 881 882 873 
908 873 882 883 874 
909 874 883 884 875 
910 875 884 885 876 
911 876 885 886 877 
912 877 886 887 878 
913 878 887 888 879 
914 879 888 117 116 
915 88 89 889 880 
916 880 889 890 881 
917 881 890 891 882 
918 882 891 892 883 
919 883 892 893 884 
920 884 893 894 885 
921 885 894 895 886 
922 886 895 896 887 
923 887 896 897 888 
924 888 897 118 117 
925 89 90 898 889 
926 889 898 899 890 
927 890 899 900 891 
928 891 900 901 892 
929 892 901 902 893 
930 893 902 903 894 
931 894 903 904 895 
932 895 904 905 896 
933 896 905 906 897 
934 897 906 119 118 
935 90 91 907 898 
936 898 907 908 899 
937 899 908 909 900 
938 900 909 910 901 
939 901 910 911 902 
940 902 911 912 903 
941 903 912 913 904 
942 904 913 914 905 
943 905 914 915 906 
944 906 915 120 119 
945 91 92 916 907 
946 907 916 917 908 
947 908 917 918 909 
948 909 918 919 910 
949 910 919 920 911 
950 911 920 921 912 
951 912 921 922 913 
952 913 922 923 914 
953 914 923 924 915 
954 915 924 121 120 
955 92 93 925 916 
956 916 925 926 917 
957 917 926 927 918 
958 918 927 928 919 
959 919 928 929 920 
960 920 929 930 921 
961 921 930 931 922 
962 922 931 932 923 
963 923 932 933 924 
964 924 933 122 121 
965 93 94 934 925 
966 925 934 935 926 
967 926 935 936 927 
968 927 936 937 928 
969 928 937 938 929 
970 929 938 939 930 
971 930 939 940 931 
972 931 940 941 932 
973 932 941 942 933 
974 933 942 123 122 
975 94 95 943 934 
976 934 943 944 935 
977 935 944 945 936 
978 936 945 946 937 
979 937 946 947 938 
980 938 947 948 939 
981 939 948 949 940 
982 940 949 950 941 
983 941 950 951 942 
984 942 951 124 123 
985 95 96 952 943 
986 943 952 953 944 
987 944 953 954 945 
988 945 954 955 946 
989 946 955 956 947 
990 947 956 957 948 
991 948 957 958 949 
992 949 958 959 950 
993 950 959 960 951 
994 951 960 125 124 
995 96 97 961 952 
996 952 961 962 953 
997 953 962 963 954 
998 954 963 964 955 
999 955 964 965 956 
1000 956 965 966 957 
1001 957 966 967 958 
1002 958 967 968 959 
1003 959 968 969 960 
1004 960 969 126 125 
1005 97 98 970 961 
1006 961 970 971 962 
1007 962 971 972 963 
1008 963 972 973 964 
1009 964 973 974 965 
1010 965 974 975 966 
1011 966 975 976 967 
1012 967 976 977 968 
1013 968 977 978 969 
1014 969 978 127 126 
1015 98 99 979 970 
1016 970 979 980 971 
1017 971 980 981 972 
1018 972 981 982 973 
1019 973 982 983 974 
1020 974 983 984 975 
1021 975 984 985 976 
1022 976 985 986 977 
1023 977 986 987 978 
1024 978 987 128 127 
1025 99 100 988 979 
1026 979 988 989 980 
1027 980 989 990 981 
1028 981 990 991 982 
1029 982 991 992 983 
1030 983 992 993 984 
1031 984 993 994 985 
1032 985 994 995 986 
1033 986 995 996 987 
1034 987 996 129 128 
1035 100 101 997 988 
1036 988 997 998 989 
1037 989 998 999 990 
1038 990 999 1000 991 
1039 991 1000 1001 992 
1040 992 1001 1002 993 
1041 993 1002 1003 994 
1042 994 1003 1004 995 
1043 995 1004 1005 996 
1044 996 1005 130 129 
1045 101 102 1006 997 
1046 997 1006 1007 998 
1047 998 1007 1008 999 
1048 999 1008 1009 1000 
1049 1000 1009 1010 1001 
1050 1001 1010 1011 1002 
1051 1002 1011 1012 1003 
1052 1003 1012 1013 1004 
1053 1004 1013 1014 1005 
1054 1005 1014 131 130 
1055 102 103 1015 1006 
1056 1006 1015 1016 1007 
1057 1007 1016 1017 1008 
1058 1008 1017 1018 1009 
1059 1009 1018 1019 1010 
1060 1010 1019 1020 1011 
1061 1011 1020 1021 1012 
1062 1012 1021 1022 1013 
1063 1013 1022 1023 1014 
1064 1014 1023 132 131 
1065 103 11 205 1015 
1066 1015 205 206 1016 
1067 1016 206 207 1017 
1068 1017 207 208 1018 
1069 1018 208 209 1019 
1070 1019 209 210 1020 
1071 1020 210 211 1021 
1072 1021 211 212 1022 
1073 1022 212 213 1023 
1074 1023 213 15 132 
2 9 3 10
1075 11 12 232 205 
1076 205 232 233 206 
1077 206 233 234 207 
1078 207 234 235 208 
1079 208 235 236 209 
1080 209 236 237 210 
1081 210 237 238 211 
1082 211 238 239 212 
1083 212 239 240 213 
1084 213 240 16 15 
$EndElements
